<?xml version="1.0" encoding="UTF-8"?>
<svg xmlns="http://www.w3.org/2000/svg" xmlns:xlink="http://www.w3.org/1999/xlink" viewBox="0 0 84.57 101.04">
  <defs>
    <style>
      .cls-1 {
        fill: url(#_ÂÁ_Ï_ÌÌ_È_ËÂÌÚ_3-2);
      }

      .cls-2 {
        fill: url(#_ÂÁ_Ï_ÌÌ_È_ËÂÌÚ_3-3);
      }

      .cls-3 {
        fill: url(#_ÂÁ_Ï_ÌÌ_È_ËÂÌÚ_3-4);
      }

      .cls-4 {
        fill: url(#_ÂÁ_Ï_ÌÌ_È_ËÂÌÚ_7);
      }

      .cls-5 {
        fill: url(#_ÂÁ_Ï_ÌÌ_È_ËÂÌÚ_3);
      }

      .cls-6 {
        fill: url(#_ÂÁ_Ï_ÌÌ_È_ËÂÌÚ_11);
        mix-blend-mode: screen;
      }

      .cls-7 {
        isolation: isolate;
      }

      .cls-8 {
        fill: #ffdf80;
      }

      .cls-9 {
        fill: url(#_ÂÁ_Ï_ÌÌ_È_ËÂÌÚ_12-2);
      }

      .cls-10 {
        fill: #eb924d;
      }

      .cls-11 {
        fill: url(#_ÂÁ_Ï_ÌÌ_È_ËÂÌÚ_12);
      }
    </style>
    <linearGradient id="_ÂÁ_Ï_ÌÌ_È_ËÂÌÚ_3" data-name="¡ÂÁ˚ÏˇÌÌ˚È „‡‰ËÂÌÚ 3" x1="92.5" y1="-17.94" x2="80.23" y2="1.41" gradientUnits="userSpaceOnUse">
      <stop offset="0" stop-color="#cf5c2b"/>
      <stop offset="1" stop-color="#59173e"/>
    </linearGradient>
    <linearGradient id="_ÂÁ_Ï_ÌÌ_È_ËÂÌÚ_3-2" data-name="¡ÂÁ˚ÏˇÌÌ˚È „‡‰ËÂÌÚ 3" x1="63.83" y1="-3.58" x2="8.84" y2="174.35" xlink:href="#_ÂÁ_Ï_ÌÌ_È_ËÂÌÚ_3"/>
    <linearGradient id="_ÂÁ_Ï_ÌÌ_È_ËÂÌÚ_3-3" data-name="¡ÂÁ˚ÏˇÌÌ˚È „‡‰ËÂÌÚ 3" x1="54.47" y1="22.5" x2="11.28" y2="182.03" xlink:href="#_ÂÁ_Ï_ÌÌ_È_ËÂÌÚ_3"/>
    <linearGradient id="_ÂÁ_Ï_ÌÌ_È_ËÂÌÚ_3-4" data-name="¡ÂÁ˚ÏˇÌÌ˚È „‡‰ËÂÌÚ 3" x1="43.1" y1="109.61" x2="47.12" y2="63.69" xlink:href="#_ÂÁ_Ï_ÌÌ_È_ËÂÌÚ_3"/>
    <linearGradient id="_ÂÁ_Ï_ÌÌ_È_ËÂÌÚ_7" data-name="¡ÂÁ˚ÏˇÌÌ˚È „‡‰ËÂÌÚ 7" x1="49.47" y1="11.65" x2="48.74" y2="39.53" gradientUnits="userSpaceOnUse">
      <stop offset="0" stop-color="#ffca2b"/>
      <stop offset="1" stop-color="#d15b24"/>
    </linearGradient>
    <linearGradient id="_ÂÁ_Ï_ÌÌ_È_ËÂÌÚ_12" data-name="¡ÂÁ˚ÏˇÌÌ˚È „‡‰ËÂÌÚ 12" x1="49.09" y1="77.89" x2="48.8" y2="48.7" gradientUnits="userSpaceOnUse">
      <stop offset="0" stop-color="#ffce3b"/>
      <stop offset="1" stop-color="#cc6923"/>
    </linearGradient>
    <linearGradient id="_ÂÁ_Ï_ÌÌ_È_ËÂÌÚ_12-2" data-name="¡ÂÁ˚ÏˇÌÌ˚È „‡‰ËÂÌÚ 12" x1="48.86" y1="58.91" x2="48.86" y2="24.72" xlink:href="#_ÂÁ_Ï_ÌÌ_È_ËÂÌÚ_12"/>
    <linearGradient id="_ÂÁ_Ï_ÌÌ_È_ËÂÌÚ_11" data-name="¡ÂÁ˚ÏˇÌÌ˚È „‡‰ËÂÌÚ 11" x1="80.32" y1="-12.31" x2="37.27" y2="66.64" gradientUnits="userSpaceOnUse">
      <stop offset="0" stop-color="#f2de6d"/>
      <stop offset="1" stop-color="#000"/>
    </linearGradient>
  </defs>
  <g class="cls-7">
    <g id="Layer_2">
      <g id="BUTTON">
        <g>
          <path class="cls-5" d="M84.04,69.58c-.14,2.05-.3,4.15-1.04,6.06-2.08,5.41-6.35,11.39-10.85,15.08-4.88,4.01-11.1,5.77-16.74,8.39-2.36,1.1-4.8,1.91-7.49,1.93-2.93.03-5.7-1.16-8.11-2.75-7.62-4.99-12.93-12.45-19.65-18.45-1.08-.97-3.09-2.89-2.73-4.54.21-.99,1.38-1.39,2.37-1.61-.62-.12-1.23-.25-1.85-.39-1.49-.34-2.98-.76-4.35-1.43-2.25-1.1-3.7-2.95-5.29-4.85-3.12-3.77-6.61-7.49-7.92-12.31-1.88-6.95,3.44-12.49,7.44-17.59,1.65-2.11,3.46-4.07,5.21-6.09.2-.24.31-.49.46-.76.18-.33.47-.58.75-.83.62-.58,1.28-1.12,1.97-1.63.68-.51,1.4-.97,2.13-1.4.37-.21.74-.42,1.12-.61.15-.08,1.07-.39,1.11-.53.02-.09.05-.18.07-.26.44-1.45,1.34-2.77,2.52-3.72,5.73-4.63,11.6-9.07,17.7-13.23C46.92,3.92,51.79-.81,59.62.12c5.56.65,10.65,3.33,15.54,5.84.78.4,1.52.82,2.23,1.32,1.65,1.18,3.31,2.22,4.19,4.13.86,1.84,1.03,3.92,1.18,5.96.3,3.97.59,7.94.84,11.91.05.75.02,1.53.08,2.27.03.34.11.67.12,1.02.03.75,0,1.66-.46,2.29-.19.27-.36.51-.5.81-.06.14-.46,1.17-.6,1.17.66,0,1.26.48,1.57,1.07s.4,1.27.46,1.93c.17,1.74.25,3.49.15,5.24-.05.86-.14,1.72-.29,2.57-.07.42-.14.86-.26,1.27-.14.49-.33.99-.54,1.46-.21.47-.45.93-.72,1.37-.1.17-.42.82-.61.87.44-.11.84.26,1.11.62,1.03,1.35,1.48,2.82,1.28,4.5-.03.29,0,.55.04.83.04.42.02.85,0,1.27-.02.98-.05,1.96-.08,2.94-.07,2.27-.18,4.55-.32,6.82Z"/>
          <path class="cls-1" d="M84.47,61.47c-.07,1.28-.15,2.55-.21,3.81-.07,1.44-.14,2.87-.22,4.3-.14,2.05-.3,4.15-1.04,6.06-.46,1.18-1.08,2.26-1.86,3.23-4.42,5.66-13.31,8.22-19.37,11.05-2.36,1.08-4.78,1.91-7.47,1.93-2.94.01-5.7-1.18-8.11-2.76-1.21-.79-2.51-1.69-3.52-2.72-3.37-3.48-7.46-6.63-10.87-10.25-1.39-1.46-2.66-2.99-3.73-4.64-1-1.54.47-2,2.14-2.11.44,0,.89,0,1.33-.01h.28c.69.03,1.28.07,1.54.08,1.1.04,2.19.11,3.29.18,2.8.18,5.6.33,8.4-.01-.96-.15-1.9-.29-2.86-.42-4.77-.68-9.54-1.25-14.34-1.69-.44-.04-.9-.08-1.34-.12-5.16-.46-8.76-5.88-11.83-9.57-.01-.03-.04-.04-.06-.07-.96-1.16-1.95-2.32-2.91-3.51-2.12-2.65-4.05-5.42-4.95-8.73-.4-1.48-.6-3.06-.3-4.59.11-.57.29-1.14.51-1.68.8-1.91,2.22-3.66,3.42-5.27,2.27-3.01,5.19-6.89,8.65-8.85.39-.24.79-.44,1.21-.61,1.18-.49,2.44-.68,3.7-.83,1.26-.15,2.52-.26,3.79-.35.35-.03.69-.06,1.05-.07,2.83-.19,5.66-.33,8.44-.71,1.22-.17,2.43-.39,3.63-.67-3.34-.35-6.72-.47-10.08-.39-1.22.03-2.45.12-3.67.21-.4.01-.82.04-1.22.06-.4.01-.73-.11-1.07-.32-.6-.36-.28-.86.17-1.19,2.68-1.94,5.09-4.23,7.63-6.34,2.61-2.18,5.45-3.97,8.25-5.86C46.92,3.92,51.79-.81,59.62.12c5.56.65,10.65,3.33,15.54,5.84.78.4,1.52.82,2.23,1.32,1.65,1.18,3.31,2.22,4.19,4.13.86,1.84,1.03,3.92,1.18,5.96.14,1.86.22,3.73.28,5.6.08,3.18.1,6.36.19,9.54.01.28.03.55.03.82.01.21.01.42-.06.61-.07.19-.22.35-.37.49-.06.04-.11.08-.17.12-.75.55-1.54,1.01-2.38,1.37-.19.1-.39.18-.6.25.93-.1,2.79-.33,3.47.64.47.65.58,1.41.55,2.19-.07,1.84-.14,3.7,0,5.55,0,.06.01.11.01.17.12,1.35.06,2.88-1.03,3.87-.25.22-.54.42-.83.58-.29.17-.6.32-.89.47-.79.42-1.59.79-2.43,1.12-1.4.55-2.84.97-4.31,1.26.79-.03,1.58-.07,2.37-.1,1.3-.06,2.59-.11,3.9-.17,1.22-.04,2.65,0,3.34,1,.29.43.39.96.46,1.47.36,2.38.3,4.82.17,7.25Z"/>
          <path class="cls-2" d="M83.7,44.54c-2.25.46-4.49.94-6.74,1.52-7.64,1.96-15.35,3.77-23.06,5.49-12.62,2.81-26.14,6-39.29,6.18-.96-1.16-1.95-2.32-2.91-3.51,13.85-4.6,28.62-6.95,42.61-11.13,6.99-2.09,13.82-4.59,20.62-7.2-8.29.54-16.53,1.71-24.85,2.12-9.48.49-18.95,1.44-28.44,1.82-5.39.21-10.12.35-14.68-.61.8-1.91,2.22-3.66,3.42-5.27,2.27-3.01,5.19-6.89,8.65-8.85,1.77-.26,3.55-.49,5.31-.71,8.96-1.14,18.07-1.58,27.09-2.05,9.55-.51,18.94.5,28.49.64,1,.01,2.04,0,3.11-.03.08,3.18.1,6.36.19,9.54.01.28.03.55.03.82.01.21.01.42-.06.61-.1.26-.32.44-.54.61-.92.68-1.91,1.22-2.98,1.62.93-.1,2.79-.33,3.47.64.47.65.58,1.41.55,2.19-.07,1.84-.14,3.7,0,5.55ZM69.28,60.76c-9.55-.18-19.01.46-28.41,2.11-.3.06-.25.57.07.55,9.28-.78,18.68-.82,27.88.72,2.58.43,5.13.98,7.67,1.58-6.38,1.4-12.8,2.19-19.31,2.73-4.99.42-10,.62-15,.73-3.45.08-6.92.12-10.37.17h-.28c-.44.01-.89.01-1.33.01-1.66.11-3.13.57-2.14,2.11,1.07,1.65,2.34,3.19,3.73,4.64,8.36,1.26,16.82,1.83,25.39,2.19,7.06.3,14.13.25,21.2.46.93.03,1.86.07,2.76.1.78-.97,1.4-2.05,1.86-3.23.73-1.91.9-4.01,1.04-6.06.08-1.43.15-2.86.22-4.3.06-1.26.14-2.54.21-3.81-5.13-.43-10.3-.61-15.18-.71Z"/>
          <path class="cls-10" d="M23.38,64.69c1.36,1.05,2.81,1.99,4.36,2.77-2.32.09-4.58-.91-6.42-2.33-2.25-1.73-5.36-4.75-6.65-7.33-.01-.03-.04-.04-.06-.07-.96-1.16-1.95-2.32-2.91-3.51-2.12-2.65-4.05-5.42-4.95-8.73-.4-1.48-.6-3.06-.3-4.59.11-.57.29-1.14.51-1.68.8-1.91,2.22-3.66,3.42-5.27,2.27-3.01,5.19-6.89,8.65-8.85.39-.24.79-.44,1.21-.61,1.18-.49,2.44-.68,3.7-.83,4.41-.53,8.9-.53,13.28-1.12-3.47.94-7.11,1.77-10.61,2.16-2.29.25-4.62.42-6.75,1.26-2.14.87-2.8,3.01-4.23,4.59-1.74,1.92-3.78,3.75-5.57,5.67-.3.32-.61.66-.71,1.1-.32,1.45,2.06,1.73,2.96,1.82,3.66.35,7.35.59,11,1.07-2.4-.31-4.75.53-7.14.5-2.6-.04-4.85-.08-7.34.93-.9.37-.7.73-.47,1.59.25.92.52,1.83.83,2.73.21.64.43,1.28.67,1.91,1.36,3.69,4.79,7.54,7.27,10.57,1.87,2.28,3.93,4.43,6.26,6.23Z"/>
          <path class="cls-10" d="M84.47,61.47c-.07,1.28-.15,2.55-.21,3.81-.07,1.44-.14,2.87-.22,4.3-.14,2.05-.3,4.15-1.04,6.06-.46,1.18-1.08,2.26-1.86,3.23-4.42,5.66-13.31,8.22-19.37,11.05-2.36,1.08-4.78,1.91-7.47,1.93-2.94.01-5.7-1.18-8.11-2.76-1.21-.79-2.51-1.69-3.52-2.72-3.37-3.48-7.46-6.63-10.87-10.25-1.39-1.46-2.66-2.99-3.73-4.64-1-1.54.47-2,2.14-2.11.44,0,.89,0,1.33-.01h.28c.69.03,1.28.07,1.54.08,1.1.04,2.19.11,3.29.18-1.18.21-2.36.4-3.45.47-.32.03-.65.06-.96.19-.47.22-.75.72-.86,1.23-.29,1.51.79,2.9,1.82,4.03,4.73,5.16,10.04,9.8,15.79,13.81,2.07,1.43,4.64,1.22,7.13.8,8.37-1.39,16.33-5.12,22.77-10.65,1.51-1.29,1.84-3.26,2.37-5.17,1.47-5.34,2.16-10.87,2.08-16.4-.01-1-.07-2.04-.58-2.88-1.21-2-4.15-1.9-6.13-3.15,1.3-.06,2.59-.11,3.9-.17,1.22-.04,2.65,0,3.34,1,.29.43.39.96.46,1.47.36,2.38.3,4.82.17,7.25Z"/>
          <path class="cls-10" d="M82.69,48.58c-.25.22-.54.42-.83.58.04-.25.17-.53.22-.75.12-.46.24-.93.33-1.39.21-.92.35-1.84.44-2.79.11-1.07.15-2.15.12-3.23-.01-.64-.07-1.3-.33-1.89-.44-.98-1.44-1.59-2.4-2.15-.5-.29-1-.58-1.51-.87.51-.06,1.03-.12,1.54-.18-.19.1-.39.18-.6.25.93-.1,2.79-.33,3.47.64.47.65.58,1.41.55,2.19-.07,1.84-.14,3.7,0,5.55,0,.06.01.11.01.17.12,1.35.06,2.88-1.03,3.87Z"/>
          <path class="cls-10" d="M83.2,33.93c-.07.19-.22.35-.37.49-.22-6.17-1.33-12.28-2.44-18.37-.16-.85-.3-1.71-.56-2.54-.18-.56-.54-1.09-.79-1.62-1.64-3.45-5.78-4.51-9.06-5.87-4.44-1.85-10.95-5.62-15.86-4.09-2.15.67-4.03,1.99-5.85,3.32-3.19,2.33-6.32,4.76-9.56,7.02-3.06,2.14-7.06,3.71-9.72,6.32-.68.67-1.84,1.79-1.93,2.79-.01.11,0,.22.04.33-.4.01-.82.04-1.22.06-.4.01-.73-.11-1.07-.32-.6-.36-.28-.86.17-1.19,2.68-1.94,5.09-4.23,7.63-6.34,2.61-2.18,5.45-3.97,8.25-5.86C46.92,3.92,51.79-.81,59.62.12c5.56.65,10.65,3.33,15.54,5.84.78.4,1.52.82,2.23,1.32,1.65,1.18,3.31,2.22,4.19,4.13.86,1.84,1.03,3.92,1.18,5.96.14,1.86.22,3.73.28,5.6.08,3.18.1,6.36.19,9.54.01.28.03.55.03.82.01.21.01.42-.06.61Z"/>
          <g>
            <path class="cls-10" d="M21.8,40.19c-.41,2.44-.1,4.98.81,7.28.44,1.1,1.04,2.09,1.71,3.07.13.19.25.37.33.58.35.89.9,1.66,1.44,2.45,1.2,1.78,2.47,3.51,3.8,5.19,2.67,3.36,5.6,6.5,8.76,9.4.54.49,1.08.98,1.63,1.45-1.52-.86-3.44-.97-5.05-.29,1.38.15,2.75.37,4.1.65.65.14,1.35.24,1.98.47.11.04.21.05.3.13.26.23.43.71.63,1,.51.77,1.09,1.49,1.72,2.16,1.27,1.35,2.75,2.49,4.37,3.38,2.09,1.15,4.41,1.88,6.79,2.08,5.5.47,11.17-1.91,14.69-6.16,2.47-.77,3.46-2.52,4.46-4.91,1-2.39,1.26-5.01,1.43-7.6.38-5.75.38-11.53.38-17.29,0-6.6-.02-13.34-2.09-19.61-2.32,5.96-7.92,10.18-13.96,12.29-6.04,2.11-12.55,2.4-18.94,2.53-6.4.12-13.08.18-19.29,1.74Z"/>
            <path class="cls-3" d="M72.75,69.28c-.35.63-.81,1.2-1.43,1.67-5.69,4.29-13.67,9.68-20.93,6.15-3.9-1.89-6.77-5.28-9.52-8.57-2.19-2.61-4.38-5.23-6.56-7.84-2.4-2.87-4.81-5.74-7.21-8.62-.96-1.15-2.2-2.3-2.78-3.69-1.03-2.46-2.78-4.93-2.21-7.67.98-4.7,8.05-9.68,11.48-12.7,4.41-3.88,9.17-7.34,13.79-10.95,3.86-3.01,5.93-5.5,11.16-4.34,2.57.57,5.04,1.61,7.36,2.82,2.1,1.09,4.22,2.34,5.96,3.94,4.46,4.09,3.19,14.07,3.38,19.5.27,7.37,0,14.77-.9,22.1,0,.61-.16,1.27-.25,1.88-.28,2-.29,4.44-1.34,6.34Z"/>
            <path class="cls-4" d="M71.97,39.01c0,1.61-.03,3.21-.09,4.82-.07,3.21-.22,6.43-.45,9.64-.17,2.4-.38,4.8-.6,7.2-.19,2.06-.43,4.46-1.23,6.4-1.05,2.54-4.18,3.98-6.47,5.26-2.35,1.32-4.99,2.49-7.73,2.49-1.27,0-2.42-.27-3.53-.81-3.29-1.61-5.88-4.7-8.39-7.68-2.25-2.69-4.49-5.37-6.74-8.06-3.57-4.25-7.68-7.97-10.13-13.05-.7-1.46-1.37-2.83-1.17-3.81.21-.98.67-1.92,1.34-2.81,2.04-2.9,5.85-5.35,8.13-7.27,5.23-4.41,10.7-8.47,16.03-12.74,2.33-1.89,3.43-2.73,5.14-2.73.5,0,1.06.07,1.7.21,4.06.91,8.66,3.1,11.75,5.93,2.02,1.87,2.13,5.52,2.25,8.06.14,2.98.19,5.97.19,8.95Z"/>
            <path class="cls-8" d="M71.97,39.01c0,1.61-.03,3.21-.09,4.82-1.15,4-2.74,7.89-4.36,11.73l-.98-20.27c-.14-2.76-.27-5.57-1.3-8.13-1.03-2.56-3.12-4.87-5.83-5.38-3.29-.62-6.43,1.44-9.14,3.38-6.46,4.63-12.91,9.26-19.36,13.89-1.13.81-2.86,1.59-3.77.53-.17-.19-.27-.41-.33-.63-.03-.12-.03-.22-.03-.34,2.04-2.9,5.85-5.35,8.13-7.27,5.23-4.41,10.7-8.47,16.03-12.74,2.33-1.89,3.43-2.73,5.14-2.73.5,0,1.06.07,1.7.21,4.06.91,8.66,3.1,11.75,5.93,2.02,1.87,2.13,5.52,2.25,8.06.14,2.98.19,5.97.19,8.95Z"/>
            <path class="cls-11" d="M68.54,39.01c0,1.13-.02,2.28-.03,3.45-.09,3.46-.24,7.01-.5,10.77-.15,2.37-.36,4.75-.58,7.12-.15,1.75-.36,3.91-.98,5.4-.46,1.11-2.47,2.21-4.08,3.09l-.91.5c-1.56.89-3.89,2.06-6.05,2.06-.75,0-1.39-.15-2.02-.46-2.25-1.1-4.27-3.28-6.22-5.57-.36-.39-.7-.81-1.05-1.22l-6.72-8.06c-.36-.43-.74-.86-1.11-1.29-.62-.7-1.25-1.41-1.89-2.11-2.61-2.92-5.09-5.66-6.69-8.95-.27-.58-.69-1.44-.82-1.89.07-.26.19-.5.34-.77t.02-.02c1.08-1.82,3.79-3.91,5.69-5.37.81-.62,1.56-1.2,2.2-1.73,3.12-2.62,6.4-5.2,9.59-7.67.15-.14.29-.24.45-.36.31-.24.62-.48.93-.72,1.68-1.3,3.34-2.61,5.01-3.94,1.97-1.61,2.54-1.97,3-1.97.14,0,.45.02.96.12,3.67.82,7.67,2.83,10.17,5.11.91.84,1.05,3.81,1.11,5.4l.02.31c.02.39.03.77.05,1.17.1,2.47.14,5.02.14,7.61Z"/>
            <path class="cls-9" d="M68.54,39.01c0,1.13-.02,2.28-.03,3.45-.21,1.11-.57,2.18-1.34,2.98-1.23,1.29-3.19,1.53-4.97,1.65-10.12.75-20.49.53-30.11-2.71-1.22-.41-2.59-1.06-2.86-2.32-.07-.33-.05-.67,0-.99t.02-.02c1.08-1.82,3.79-3.91,5.69-5.37.81-.62,1.56-1.2,2.2-1.73,3.26-2.74,6.7-5.44,10.03-8.03,1.99-1.54,3.96-3.09,5.93-4.66,1.97-1.61,2.54-1.97,3-1.97.14,0,.45.02.96.12,3.67.82,7.67,2.83,10.17,5.11.91.84,1.05,3.81,1.11,5.4l.02.31c.14,2.81.19,5.78.19,8.78Z"/>
            <path class="cls-6" d="M68.35,30.23l-.02-.31c-.07-1.59-.21-4.56-1.11-5.4-2.5-2.28-6.5-4.29-10.17-5.11-.51-.1-.82-.12-.96-.12-.46,0-1.03.36-3,1.97-1.66,1.34-3.33,2.64-5.01,3.94-.14.17-.27.34-.41.5.51-.24,1.06-.36,1.63-.34,1.58.02,3.09,1.08,3.64,2.56.86,2.26-.46,4.7-1.75,6.76-4.01,6.45-8.04,12.9-12.06,19.36-.19.31-.53.63-.86.75.38.43.75.86,1.11,1.29l6.72,8.06c.34.41.69.82,1.05,1.22-.15-1.94.12-3.94.69-5.81.96-3.22,2.69-6.16,4.41-9.05,3.29-5.59,6.6-11.16,9.89-16.75.55-.93,1.1-1.85,1.9-2.56.81-.7,1.92-1.15,2.95-.89.6.15,1.11.58,1.41,1.11-.02-.39-.03-.77-.05-1.17Z"/>
          </g>
        </g>
      </g>
    </g>
  </g>
</svg>