<?xml version="1.0" encoding="UTF-8" standalone="no"?>
<!DOCTYPE svg PUBLIC "-//W3C//DTD SVG 1.1//EN" "http://www.w3.org/Graphics/SVG/1.1/DTD/svg11.dtd">
<svg width="100%" height="100%" viewBox="0 0 60 79" version="1.1" xmlns="http://www.w3.org/2000/svg" xmlns:xlink="http://www.w3.org/1999/xlink" xml:space="preserve" xmlns:serif="http://www.serif.com/" style="fill-rule:evenodd;clip-rule:evenodd;stroke-linejoin:round;stroke-miterlimit:2;">
    <g transform="matrix(1,0,0,1,-3073.68,-3122.62)">
        <g transform="matrix(1,0,0,1,-0.933755,-0.882439)">
            <g transform="matrix(-1,0,0,1,6207.77,-118.122)">
                <path d="M3074.27,3278.67C3073.17,3276.67 3073.64,3274.17 3075.41,3272.72C3083.48,3266.07 3105.54,3247.96 3111.88,3242.75C3113.01,3241.82 3114.49,3241.44 3115.93,3241.7C3120.28,3242.53 3131.49,3244.29 3132.31,3250.47C3133.44,3259.02 3133.7,3289.7 3131.47,3308.34C3131.4,3308.91 3131.2,3309.45 3130.88,3309.93C3129.45,3311.9 3124.85,3317.27 3115.21,3320.16C3113.43,3320.69 3111.51,3320.38 3110,3319.32C3105.78,3316.26 3098.38,3309.58 3088.81,3297.83C3087.32,3296 3083.78,3293.28 3082.3,3291.24C3079.53,3287.41 3076.81,3283.22 3074.27,3278.67Z" style="fill:white;"/>
            </g>
        </g>
    </g>
</svg>
