<?xml version="1.0" encoding="UTF-8"?>
<svg xmlns="http://www.w3.org/2000/svg" xmlns:xlink="http://www.w3.org/1999/xlink" viewBox="0 0 481.55 180.7">
  <defs>
    <style>
      .cls-1 {
        fill: #f9df8c;
      }

      .cls-2 {
        fill: url(#_ÂÁ_Ï_ÌÌ_È_ËÂÌÚ_17-11);
      }

      .cls-3 {
        fill: url(#_ÂÁ_Ï_ÌÌ_È_ËÂÌÚ_17-10);
      }

      .cls-4 {
        fill: url(#_ÂÁ_Ï_ÌÌ_È_ËÂÌÚ_7);
      }

      .cls-5 {
        fill: url(#_ÂÁ_Ï_ÌÌ_È_ËÂÌÚ_15);
      }

      .cls-5, .cls-6, .cls-7, .cls-8 {
        mix-blend-mode: screen;
      }

      .cls-9 {
        fill: #d9e0ea;
      }

      .cls-10 {
        isolation: isolate;
      }

      .cls-11 {
        fill: #b7713a;
        mix-blend-mode: multiply;
      }

      .cls-6 {
        fill: url(#_ÂÁ_Ï_ÌÌ_È_ËÂÌÚ_15-2);
      }

      .cls-7 {
        fill: url(#_ÂÁ_Ï_ÌÌ_È_ËÂÌÚ_2);
      }

      .cls-8 {
        fill: url(#_ÂÁ_Ï_ÌÌ_È_ËÂÌÚ_2-2);
      }

      .cls-12 {
        fill: url(#_ÂÁ_Ï_ÌÌ_È_ËÂÌÚ_17-6);
      }

      .cls-13 {
        fill: url(#_ÂÁ_Ï_ÌÌ_È_ËÂÌÚ_17-7);
      }

      .cls-14 {
        fill: url(#_ÂÁ_Ï_ÌÌ_È_ËÂÌÚ_17-8);
      }

      .cls-15 {
        fill: url(#_ÂÁ_Ï_ÌÌ_È_ËÂÌÚ_17-5);
      }

      .cls-16 {
        fill: url(#_ÂÁ_Ï_ÌÌ_È_ËÂÌÚ_17-9);
      }

      .cls-17 {
        fill: url(#_ÂÁ_Ï_ÌÌ_È_ËÂÌÚ_17-2);
      }

      .cls-18 {
        fill: url(#_ÂÁ_Ï_ÌÌ_È_ËÂÌÚ_17-3);
      }

      .cls-19 {
        fill: url(#_ÂÁ_Ï_ÌÌ_È_ËÂÌÚ_17-4);
      }

      .cls-20 {
        fill: url(#_ÂÁ_Ï_ÌÌ_È_ËÂÌÚ_12-2);
      }

      .cls-21 {
        fill: url(#_ÂÁ_Ï_ÌÌ_È_ËÂÌÚ_16);
      }

      .cls-22 {
        fill: url(#_ÂÁ_Ï_ÌÌ_È_ËÂÌÚ_12);
      }

      .cls-23 {
        fill: url(#_ÂÁ_Ï_ÌÌ_È_ËÂÌÚ_17);
      }

      .cls-24 {
        fill: url(#_ÂÁ_Ï_ÌÌ_È_ËÂÌÚ_18);
      }
    </style>
    <linearGradient id="_ÂÁ_Ï_ÌÌ_È_ËÂÌÚ_17" data-name="¡ÂÁ˚ÏˇÌÌ˚È „‡‰ËÂÌÚ 17" x1="276.92" y1="-63.98" x2="219.53" y2="196.91" gradientUnits="userSpaceOnUse">
      <stop offset="0" stop-color="#9eacb3"/>
      <stop offset="1" stop-color="#35404c"/>
    </linearGradient>
    <linearGradient id="_ÂÁ_Ï_ÌÌ_È_ËÂÌÚ_17-2" data-name="¡ÂÁ˚ÏˇÌÌ˚È „‡‰ËÂÌÚ 17" x1="260.01" y1="-74.78" x2="196.67" y2="501.43" xlink:href="#_ÂÁ_Ï_ÌÌ_È_ËÂÌÚ_17"/>
    <linearGradient id="_ÂÁ_Ï_ÌÌ_È_ËÂÌÚ_2" data-name="¡ÂÁ˚ÏˇÌÌ˚È „‡‰ËÂÌÚ 2" x1="435.74" y1="-233.84" x2="100.31" y2="355.4" gradientUnits="userSpaceOnUse">
      <stop offset="0" stop-color="#dae6e9"/>
      <stop offset="1" stop-color="#000"/>
    </linearGradient>
    <linearGradient id="_ÂÁ_Ï_ÌÌ_È_ËÂÌÚ_17-3" data-name="¡ÂÁ˚ÏˇÌÌ˚È „‡‰ËÂÌÚ 17" x1="240.83" y1="244.22" x2="240.83" y2="132.46" xlink:href="#_ÂÁ_Ï_ÌÌ_È_ËÂÌÚ_17"/>
    <linearGradient id="_ÂÁ_Ï_ÌÌ_È_ËÂÌÚ_7" data-name="¡ÂÁ˚ÏˇÌÌ˚È „‡‰ËÂÌÚ 7" x1="240.87" y1="49.32" x2="240.87" y2="101.64" gradientUnits="userSpaceOnUse">
      <stop offset="0" stop-color="#f6cb51"/>
      <stop offset="1" stop-color="#c26234"/>
    </linearGradient>
    <linearGradient id="_ÂÁ_Ï_ÌÌ_È_ËÂÌÚ_12" data-name="¡ÂÁ˚ÏˇÌÌ˚È „‡‰ËÂÌÚ 12" x1="240.87" y1="187.88" x2="240.87" y2="95.76" gradientUnits="userSpaceOnUse">
      <stop offset="0" stop-color="#f6cf5a"/>
      <stop offset="1" stop-color="#be6e35"/>
    </linearGradient>
    <linearGradient id="_ÂÁ_Ï_ÌÌ_È_ËÂÌÚ_12-2" data-name="¡ÂÁ˚ÏˇÌÌ˚È „‡‰ËÂÌÚ 12" x1="240.44" y1="157.44" x2="240.44" y2="74.63" xlink:href="#_ÂÁ_Ï_ÌÌ_È_ËÂÌÚ_12"/>
    <linearGradient id="_ÂÁ_Ï_ÌÌ_È_ËÂÌÚ_17-4" data-name="¡ÂÁ˚ÏˇÌÌ˚È „‡‰ËÂÌÚ 17" x1="263.61" y1="-4.08" x2="245.57" y2="26.39" xlink:href="#_ÂÁ_Ï_ÌÌ_È_ËÂÌÚ_17"/>
    <linearGradient id="_ÂÁ_Ï_ÌÌ_È_ËÂÌÚ_17-5" data-name="¡ÂÁ˚ÏˇÌÌ˚È „‡‰ËÂÌÚ 17" x1="263.94" y1="-8.59" x2="205.87" y2="99.13" xlink:href="#_ÂÁ_Ï_ÌÌ_È_ËÂÌÚ_17"/>
    <linearGradient id="_ÂÁ_Ï_ÌÌ_È_ËÂÌÚ_17-6" data-name="¡ÂÁ˚ÏˇÌÌ˚È „‡‰ËÂÌÚ 17" x1="274.39" y1="6.84" x2="274.68" y2="34.82" gradientTransform="translate(-19.56 -5.72) rotate(.94) scale(1.06 1) skewX(1.83)" xlink:href="#_ÂÁ_Ï_ÌÌ_È_ËÂÌÚ_17"/>
    <linearGradient id="_ÂÁ_Ï_ÌÌ_È_ËÂÌÚ_17-7" data-name="¡ÂÁ˚ÏˇÌÌ˚È „‡‰ËÂÌÚ 17" x1="212.22" y1="11.46" x2="212.48" y2="36.66" xlink:href="#_ÂÁ_Ï_ÌÌ_È_ËÂÌÚ_17"/>
    <linearGradient id="_ÂÁ_Ï_ÌÌ_È_ËÂÌÚ_17-8" data-name="¡ÂÁ˚ÏˇÌÌ˚È „‡‰ËÂÌÚ 17" x1="266.54" y1="1.73" x2="266.88" y2="33.98" xlink:href="#_ÂÁ_Ï_ÌÌ_È_ËÂÌÚ_17"/>
    <linearGradient id="_ÂÁ_Ï_ÌÌ_È_ËÂÌÚ_17-9" data-name="¡ÂÁ˚ÏˇÌÌ˚È „‡‰ËÂÌÚ 17" x1="223.26" y1="4.85" x2="218.84" y2="12.52" xlink:href="#_ÂÁ_Ï_ÌÌ_È_ËÂÌÚ_17"/>
    <linearGradient id="_ÂÁ_Ï_ÌÌ_È_ËÂÌÚ_17-10" data-name="¡ÂÁ˚ÏˇÌÌ˚È „‡‰ËÂÌÚ 17" x1="215.54" y1="10.41" x2="209.49" y2="33.23" xlink:href="#_ÂÁ_Ï_ÌÌ_È_ËÂÌÚ_17"/>
    <linearGradient id="_ÂÁ_Ï_ÌÌ_È_ËÂÌÚ_2-2" data-name="¡ÂÁ˚ÏˇÌÌ˚È „‡‰ËÂÌÚ 2" x1="261.4" y1="-5.55" x2="213.06" y2="67.64" xlink:href="#_ÂÁ_Ï_ÌÌ_È_ËÂÌÚ_2"/>
    <linearGradient id="_ÂÁ_Ï_ÌÌ_È_ËÂÌÚ_17-11" data-name="¡ÂÁ˚ÏˇÌÌ˚È „‡‰ËÂÌÚ 17" x1="241.66" y1="98.6" x2="239.7" y2="36.8" xlink:href="#_ÂÁ_Ï_ÌÌ_È_ËÂÌÚ_17"/>
    <radialGradient id="_ÂÁ_Ï_ÌÌ_È_ËÂÌÚ_18" data-name="¡ÂÁ˚ÏˇÌÌ˚È „‡‰ËÂÌÚ 18" cx="246.66" cy="23.71" fx="246.66" fy="23.71" r="45.26" gradientUnits="userSpaceOnUse">
      <stop offset="0" stop-color="#dfa54b"/>
      <stop offset=".68" stop-color="#7e452a"/>
      <stop offset=".73" stop-color="#864d2c"/>
      <stop offset=".82" stop-color="#9e6434"/>
      <stop offset=".93" stop-color="#c48a41"/>
      <stop offset="1" stop-color="#dfa54b"/>
    </radialGradient>
    <linearGradient id="_ÂÁ_Ï_ÌÌ_È_ËÂÌÚ_16" data-name="¡ÂÁ˚ÏˇÌÌ˚È „‡‰ËÂÌÚ 16" x1="240.93" y1="32.23" x2="216.67" y2="96.06" gradientUnits="userSpaceOnUse">
      <stop offset=".09" stop-color="#dfa54b"/>
      <stop offset=".68" stop-color="#7e452a"/>
      <stop offset=".73" stop-color="#864d2c"/>
      <stop offset=".82" stop-color="#9e6434"/>
      <stop offset=".93" stop-color="#c48a41"/>
      <stop offset="1" stop-color="#dfa54b"/>
    </linearGradient>
    <linearGradient id="_ÂÁ_Ï_ÌÌ_È_ËÂÌÚ_15" data-name="¡ÂÁ˚ÏˇÌÌ˚È „‡‰ËÂÌÚ 15" x1="244.79" y1="15.45" x2="243.23" y2="38.85" gradientUnits="userSpaceOnUse">
      <stop offset="0" stop-color="#f3df88"/>
      <stop offset="1" stop-color="#000"/>
    </linearGradient>
    <linearGradient id="_ÂÁ_Ï_ÌÌ_È_ËÂÌÚ_15-2" data-name="¡ÂÁ˚ÏˇÌÌ˚È „‡‰ËÂÌÚ 15" x1="237.67" y1="37.07" x2="226.53" y2="58.92" xlink:href="#_ÂÁ_Ï_ÌÌ_È_ËÂÌÚ_15"/>
  </defs>
  <g class="cls-10">
    <g id="Layer_2">
      <g id="Layer_1-2" data-name="Layer_1">
        <g>
          <g>
            <path class="cls-23" d="M239.79,180.7c-4.77,0-9.54,0-14.31-.02-28.51-.1-57.09-.41-84.94-.92h-.16c-6.26,0-13.07-.09-20.65-.26-7.98-.18-15.98-.43-23.97-.68-7.37-.23-14.75-.46-22.11-.64l-2.12-.04c-6.7-.1-15.04-.22-22.62-5.56-3.87-2.71-7.04-6.06-9.84-9.01l-1.91-2.02c-2.79-2.96-5.49-6-8-9.02l-1.38-1.66c-1.51-1.82-3.01-3.63-4.59-5.4-1.48-1.71-2.51-3.35-3.34-4.74l-.4-.65c-1.03-1.68-2.44-3.98-3.07-7.02-.03-.15-.05-.29-.07-.43-.81-.6-1.58-1.26-2.3-1.99-1.4-1.44-2.5-2.93-3.37-4.52l-.37-.69c-1.94-3.62-3.94-7.37-5.75-11.28-.26-.58-.54-1.15-.82-1.73-1.48-3.05-3.32-6.84-3.65-11.2-.04-.39-.05-.76-.05-1.16-.07-3.32.63-6.76,2.07-10.22,1.4-3.43,3.33-6.5,5.04-9.21.45-.72.9-1.42,1.31-2.12,3.75-6.17,7.94-11.91,11.17-16.22,4.01-5.37,8.38-10.8,12.97-16.11.81-.96,1.65-1.92,2.49-2.85,2.99-3.44,6.54-7.27,11.44-11.1,10.77-8.43,24.4-8.62,35.35-8.78l1.04-.02c9.53-.16,18.9-.26,28.29-.37l11.33-.13c5.65-.08,11.31-.14,16.98-.2l16.97-.16,16.98-.14,16.92-.1,16.94-.08,16.91-.04c5.63-.02,11.26-.02,16.92-.02s11.26,0,16.9.02c5.58,0,11.22.02,16.85.04l16.83.06,16.85.1c5.62.04,11.23.08,16.84.14l16.75.14c5.64.06,11.24.12,16.85.2,5.05.06,10.14.13,15.23.2l18.26.26c5.6.08,11.19.18,16.76.28,5.59.1,12.08.46,18.53,3.34.84.37,1.74.82,2.65,1.32,6.87,3.79,12.1,9.19,15.88,13.46l.68.77c.74.83,1.48,1.66,2.2,2.51,2,2.24,3.65,4.34,5.05,6.45,1.44,2.17,2.67,4.14,3.77,6.05l.21.34c.6.97,1.52,2.44,2.04,4.41.02.07.04.14.06.22,2.27.93,4.89,2.74,7.21,6.21.77,1.15,1.36,2.25,1.88,3.21.22.42.44.83.68,1.24l.82,1.44c1.13,1.98,2.19,3.85,3.33,5.62,1.62,2.56,2.71,5.22,3.5,7.18.18.41,1.02,2.4,1.02,2.4.81,1.85,1.72,3.94,2.28,6.44,2.02,9-2.33,16.81-4.92,21.47l-.43.79c-.51.93-1.02,1.86-1.54,2.77-.3.57-.62,1.12-.94,1.66-2.24,4-4.55,7.69-6.97,11.15-1.38,1.99-2.87,3.96-4.4,5.85l-.57.69c-.61.75-1.36,1.69-2.32,2.63-.8.78-1.66,1.48-2.57,2.08l-.13.36c-1.17,3.12-2.89,6.02-5.1,8.6-1.06,1.23-2.08,2.48-3.12,3.75-3.88,4.74-8.28,10.12-14.07,14.08-4.93,3.38-9.68,4.26-14.11,4.87-7.78,1.07-15.56,1.28-23.09,1.48l-2.01.05c-28,.8-56.44,1.39-84.53,1.74-13.71.16-27.39.28-41.1.36-3.41,0-6.78.02-10.15.04-6.42.01-12.8.02-19.18.02Z"/>
            <path class="cls-17" d="M468.45,113.45c-.66,1.2-1.31,2.43-1.99,3.61-.26.48-.55.96-.81,1.45-2.04,3.61-4.2,7.14-6.59,10.55-1.27,1.84-2.63,3.61-4.03,5.34-.72.85-1.4,1.77-2.21,2.58-.66.66-1.42,1.18-2.28,1.58-.35.15-.72.37-1.09.48-.46.13-1.01.04-1.49.07-1.12.02-2.23.13-3.35.28-.55.09-1.09.2-1.64.31-.18.04-1.51.46-1.58.39.77.83,1.73,1.47,2.78,1.86.53.2,1.07.35,1.64.42.24.02.48.02.72,0,.53-.07.99.11,1.51.22-.83,2.19-2.06,4.23-3.57,6-4.77,5.58-9.33,12.09-15.46,16.29-3.31,2.28-6.46,2.89-10.38,3.44-7.97,1.09-16.23,1.23-24.15,1.45-28.11.81-56.25,1.38-84.39,1.75-12.09.13-24.15.26-36.24.33-1.6,0-3.2.02-4.8.02-3.37,0-6.77.02-10.14.04-11.15.02-22.27.04-33.41,0-28.27-.11-56.54-.39-84.83-.92-6.92,0-13.84-.11-20.76-.26-2.52-.04-5.06-.11-7.58-.2-12.85-.33-25.68-.83-38.49-1.12-6.98-.18-13.9.22-19.93-4.01-3.53-2.47-6.55-5.82-9.48-8.89-.28-.31-.59-.63-.9-.96-2.63-2.78-5.19-5.67-7.66-8.63-2.04-2.45-4.03-4.9-6.15-7.29-.9-1.03-1.64-2.19-2.34-3.37-.94-1.58-2.04-3.15-2.43-4.99-.04-.31-.07-.68.13-.92.18-.22.46-.28.72-.31,4.99-.9,10.2-.42,15.11-1.4,1.01-.18,1.99-.44,2.96-.77-4.55-.02-9.09-.04-13.62-.09-1.16,0-2.3-.02-3.44-.13-.44-.07-.85-.13-1.29-.22-2.01-.46-3.85-1.55-5.32-3-.72-.74-1.36-1.6-1.86-2.52-2.01-3.77-4.07-7.55-5.87-11.45-1.4-3.07-3.48-6.61-3.7-10.01-.02-.18-.02-.35-.02-.53-.07-2.32.5-4.58,1.4-6.74,1.49-3.61,3.85-7.01,5.76-10.16,3.26-5.36,6.92-10.49,10.69-15.5,4.01-5.36,8.21-10.55,12.59-15.63.81-.94,1.58-1.84,2.36-2.69,3.2-3.68,6.22-6.85,10.34-10.09,8.76-6.83,20.74-6.77,31.14-6.94,13.36-.22,26.41-.33,39.59-.48,5.67-.09,11.32-.15,16.97-.22,5.67-.04,11.3-.09,16.97-.15,5.65-.04,11.28-.09,16.95-.13,5.65-.04,11.28-.07,16.93-.11,5.65-.02,11.25-.07,16.9-.09,5.65,0,11.28,0,16.9-.02s11.25-.02,16.88-.02c3.04,0,6.07,0,9.11.02,2.58-.02,5.19,0,7.77,0,5.61,0,11.21.02,16.84.02,5.61.02,11.23.04,16.84.07,5.61.04,11.21.07,16.82.11s11.21.07,16.82.13c5.58.04,11.19.11,16.77.15,5.61.04,11.19.11,16.79.2,5.58.04,11.17.13,16.75.22,1.16.02,2.34.02,3.5.04,4.42.07,8.82.13,13.23.2,5.58.07,11.17.18,16.73.28,5.32.09,10.34.44,15.13,2.56.63.28,1.29.61,1.93.96,5.26,2.91,9.63,7.14,13.6,11.63.92,1.05,1.86,2.08,2.76,3.15,1.6,1.8,3.13,3.66,4.44,5.63,1.23,1.84,2.39,3.7,3.48,5.58.48.81,1.12,1.69,1.36,2.61.04.11.07.24.07.37-.02.44-.37.61-.74.77-.99.39-2.63,1.38-1.75,2.69.28.44.81.61,1.29.77,1.12.35,2.23.7,3.35,1.03.42.13.81.22,1.23.22.33-.02.61-.07.94,0,1.75.31,3.13,1.8,4.07,3.22.85,1.27,1.51,2.65,2.28,3.99,1.42,2.47,2.8,4.97,4.36,7.4,1.14,1.8,1.99,3.83,2.78,5.82.2.46.39.9.57,1.34.83,1.97,1.8,3.92,2.26,6,1.23,5.45-1.47,10.73-4.03,15.33Z"/>
            <path class="cls-7" d="M379.57,32.98c-11.08-1.47-22.33,2.5-31.64,8.69-9.31,6.2-16.97,14.52-24.55,22.73-11.23,12.2-22.47,24.39-33.68,36.59-6.31,6.85-12.61,13.71-18.92,20.56-3.15,3.44-6.31,6.85-9.46,10.29-1.58,1.71-3.13,3.46-4.73,5.12-5.1,5.32-9.02,12.52-12.31,19.07-1.4,2.78-2.69,5.82-2.21,8.89.5,3.07,2.8,4.71,5.58,5.5,1.51.42,2.96.44,4.51.5,7.23.26,14.45.7,21.68.92-1.6,0-3.2.02-4.8.02-3.37,0-6.77.02-10.14.04-11.15.02-22.27.04-33.41,0-28.27-.11-56.54-.39-84.83-.92-6.92,0-13.84-.11-20.76-.26-2.52-.04-5.06-.11-7.58-.2-.68-.26-1.36-.55-2.04-.85,11.58.28,23.21-2.19,33.79-6.94,6.57-2.93,12.74-6.77,18.31-11.34,6.2-5.1,10.73-11.36,16.05-17.25,7.75-8.56,15.5-17.14,23.25-25.71,15.5-17.14,31.01-34.29,46.51-51.43,3.46-3.85,7.09-7.97,8.01-13.05.94-5.1-2.06-11.3-7.23-11.78.42-.42.81-.81,1.23-1.2,2.58-.02,5.19,0,7.77,0,5.61,0,11.21.02,16.84.02,5.61.02,11.23.04,16.84.07,5.61.04,11.21.07,16.82.11s11.21.07,16.82.13c5.58.04,11.19.11,16.77.15,5.61.04,11.19.11,16.79.2,5.58.04,11.17.13,16.75.22,1.16.02,2.34.02,3.5.04.15.35.28.72.44,1.07Z"/>
            <path class="cls-9" d="M450.01,94.22c.83,2.64,2.27,5.08,4.18,7.08.34.35.72.75.72,1.24,0,.29-.13.55-.26.81-1.27,2.52-2.54,5.05-3.81,7.57-.65,1.28-1.29,2.56-1.94,3.84-.28.56-.58,1.1-.77,1.7-.4,1.23-1.32,2.22-2.11,3.23-1.51,1.93-3.05,3.99-4.78,5.74-.69.7-1.5,1.12-2.09,1.94-1.76,2.4-3.49,4.85-5.01,7.4-.58.96-.63,1.93-.93,2.98-.16.55-.44,1.04-.79,1.5-1.8,2.31-4.33,4.02-6.41,6.06-1.84,1.81-3.46,3.88-5.53,5.42-5.26,3.92-12.19,2.69-18.71,3.4-13.01,1.43-26.14.13-39.22-.31-18.68-.63-35.85,2.12-54.54,1.85-9.05-.13-18.1-.26-27.14-.39.86,1.62,1.71,3.24,2.57,4.85-8.64-4.68-18.89-5.03-28.71-5.16-11.71-.16-23.43-.16-35.15-.16-2.01,0-4.11.02-5.87.99-1.76.97-2.99,3.21-2.13,5.03-.81-3.83-5.8-4.71-9.71-4.75-35.74-.42-71.49-.84-107.23-1.26-4.19-.05-8.38-.1-12.57-.33-3.97-.21-7.94-.58-11.86-1.26-1.95-.34-3.89-.75-5.8-1.25-.96-.25-1.91-.53-2.85-.83-1.16-.37-1.97-.9-2.99-1.61-.6-.42-1.32-.87-1.7-1.51-1.67-2.82-3.72-5.48-5.78-8.04-1.5-1.87-3.09-3.66-4.71-5.43-.82-.9-1.66-1.79-2.49-2.68-1.91-2.03-3.19-4.4-4.57-6.83-4.75-8.4-8.61-17.26-12.41-26.13,10.06,12.71,21.64,24.82,31.7,37.53,2.69,3.4,5.5,6.91,9.37,8.88,3.95,2.02,8.55,2.22,12.98,2.36,107.09,3.55,214.33,2.73,321.36-2.43,5.92-.29,12.08-.65,17.26-3.54,4.23-2.36,7.41-6.19,10.31-10.07,8.21-10.95,14.91-24.83,20.16-37.47Z"/>
            <path class="cls-9" d="M330.51,46.63c-.89,1.22-1.85,2.44-3.17,3.17-1.83,1.02-4.06.94-6.14.69-1.4-.16-2.79-.39-4.17-.68,2.37-.85,4.84-1.43,7.34-1.74.63-.08,1.28-.14,1.85-.44.54-.29.95-.77,1.35-1.23,1.09-1.26,2.21-2.5,3.37-3.7,1.16-1.2,2.35-2.37,3.57-3.51.34-.32.68-.63,1.03-.94.18-.16.36-.32.53-.48.13-.12.29-.31.45-.37-.68,1.25-1.5,2.45-2.26,3.65-.77,1.21-1.55,2.42-2.36,3.6-.45.66-.91,1.31-1.38,1.96Z"/>
            <path class="cls-9" d="M39.81,76c.22.06.45.13.63.28.42.34.43.96.42,1.49-.03,1-.06,2-.1,3,1.28-2.19,2.53-4.4,3.73-6.63-1.99-1.08-4.37-1.07-6.63-1.02-1,.02-1.99.04-2.99.06-.51,0-1.02.02-1.53.03-.23,0-.47,0-.7.01-.12,0-.56-.06-.66.03-.47.44,1.53.91,1.7.97.96.28,1.91.56,2.87.84,1.08.32,2.16.63,3.24.95Z"/>
            <path class="cls-9" d="M52.58,124.04c-.89-1.76-1.79-3.64-1.64-5.6.03-.33.09-.67.29-.93.31-.41.86-.53,1.37-.62,7.25-1.29,14.55-2.32,21.87-3.11-1.46-.55-3.01-.54-4.57-.47-4.95.24-9.92.21-14.87-.07-2.84-.16-5.76-.41-8.49.4,1.16,2.06,1.85,4.35,2.79,6.52.94,2.17,2.21,4.3,4.18,5.61-.16-.68-.62-1.11-.93-1.74Z"/>
            <path class="cls-9" d="M433.62,95c1.67.2,3.36.51,4.86,1.27,1.5.76,2.82,2.01,3.35,3.61.51,1.54.25,3.22-.02,4.82,1.21-1.34,2.12-2.96,2.63-4.7.09-.31.17-.64.11-.96-.05-.26-.18-.49-.31-.71-.78-1.33-1.58-2.64-2.41-3.93-.22-.35-.45-.7-.77-.95-.49-.39-1.13-.51-1.75-.6-.19-.03-.37-.05-.56-.08-2.09-.26-4.19-.29-6.29-.23-.39.01-.73,0-1.11-.08-.4-.08-.79.02-1.19.09-1.03.17-2.07.31-3.11.41-1.04.11-2.09.18-3.13.22-.52.02-1.05.04-1.57.04-.26,0-.52,0-.79,0-.24,0-.52.03-.75,0,.84.15,1.68.31,2.52.47,1.04.2,2.07.41,3.11.62.52.11,1.03.21,1.55.32.18.04.35.06.53.03.3-.05.57-.02.88,0,1.26.08,2.51.15,3.76.29.16.02.31.03.47.05Z"/>
            <path class="cls-18" d="M453.61,99.09c-1.54-3.7-2.86-6.36-4.42-8.94-2.2-3.68-4.68-7.44-7.36-11.18-6.66-9.28-14.19-21.65-24.41-27.29-.16-.1-.34-.18-.5-.24-1.74-.78-4.5-.98-8.12-1.04-5.58-.1-11.14-.2-16.71-.28-5.56-.08-11.14-.18-16.71-.24-5.58-.08-11.14-.16-16.73-.22-1.61-.02-3.23-.04-4.84-.06-3.78-.05-7.56,0-11.33-.24-1.67-.1-3.32.13-5,0-2.05-.16-4.12-.32-6.13-.77,1.88-4.01,3.76-8.01,5.65-12.02-2.06,2.22-3.98,4.57-5.74,7.03-.85,1.19-1.68,2.46-2.79,3.44-.82.73-1.68,1.66-2.72,2.04-.95.35-1.98.37-2.99.38-4.2.07-8.43.28-12.6-.05-7.64-.6-15.38-.3-23.04-.34-20.94-.1-41.89-.17-62.84-.09-5.64.02-11.26.02-16.89.04-11.24.04-22.51.12-33.77.18-5.64.04-11.28.1-16.91.14-5.64.06-11.28.1-16.93.16-15.77,0-31.55.38-47.32.6-8.1.12-22.55-2.2-29.47,3.2-3.72,2.92-6.28,5.88-10.18,10.4-.8.93-1.58,1.89-2.4,2.8-.46.51-1.03.92-1.42,1.48-.56.81-.95,1.64-1.66,2.34-.68.66-1.49,1.19-2.38,1.52-1.35.5-2.81.57-4.24.64-1.96.09-3.91.17-5.87.26-1.55.07-3.17.15-4.54.88,4.14-.28,8.34.35,12.22,1.85.15.06.31.13.37.28.06.16-.03.33-.12.48-.58.96-1.25,1.79-2.07,2.53-.77.7-1.35,1.8-1.96,2.64-.81,1.11-1.61,2.22-2.39,3.34-1.75,2.5-3.44,5.04-5.02,7.65-.5.82-1.02,1.66-1.56,2.52-.84,1.32-2,3.16-2.64,4.44.22.48.46.98.66,1.4.38.74.72,1.48,1.06,2.18,2.44,5.32,5.34,10.6,8.6,15.69,2.94,4.58,6.1,9.02,9.38,13.23,3.34,4.24,6.9,8.36,10.62,12.24l1.1,1.14c2.78,2.94,4.88,5.88,9.18,6,24.31.68,48.64,1.76,72.95,1.76h.34c19.3.36,38.61.61,57.91.77,1.89.02,3.82-.13,5.74-.13,1.98,0,3.96,0,5.94,0,.48,0,1.04.04,1.31.43.21.31.17.72.11,1.09-.72,4.63-1.43,9.26-2.14,13.9,1.97-4.73,3.94-9.46,5.92-14.18.14-.33.28-.67.56-.9.32-.26.75-.32,1.15-.36,1.99-.2,4.01-.17,5.99.09.86.11,1.71.37,2.57.28.95-.1,1.91-.07,2.87-.06,4.23,0,8.45.01,12.68.01h.63c10.16,0,20.34-.11,30.49-.12,2.3,0,4.55.86,6.44,2.14,2.29,1.54,4.13,3.64,5.85,5.79-.82-2.47-1.49-5-2.01-7.55,2.34-.23,4.67-.45,7.01-.68,1.88-.18,3.67.18,5.56.16,4.75-.05,9.49-.16,14.24-.16,27.95-.36,56.26-.94,84.11-1.72l2.16-.06c6.32-.18,16.71,1.12,22.55-1.72.88-.42,1.56-1.16,2.22-1.88,5.02-5.44,9.94-11.12,14.55-16.93,2.84-3.58,5.52-7.22,7.96-10.8,3.2-4.7,5.98-9.66,9.3-15.65.36-.66,1.3-2.36,1.82-3.56-.08-.18-.7-1.58-.92-2.1ZM435.13,114.77c-2.3,3.4-4.84,6.82-7.52,10.2-4.14,5.24-8.84,10.7-13.97,16.27-.98.28-3.02.62-7.12.62-1.58,0-3.16-.04-4.66-.08-1.56-.04-3.02-.08-4.38-.08-.56,0-1.1,0-1.62.02l-2.16.06c-27.79.78-56.04,1.36-83.95,1.72-22.33.28-45.02.42-67.47.42-5.56,0-11.12,0-16.69-.02-27.93-.1-56.32-.4-84.37-.92h-.42c-17.65,0-35.55-.58-52.88-1.14-6.46-.2-12.9-.42-19.35-.6-.44-.4-1.1-1.12-1.6-1.66-.38-.42-.76-.84-1.16-1.24l-1.1-1.16c-3.5-3.66-6.86-7.52-9.98-11.52-.94-1.2-2.08-2.29-2.89-3.56-.98-1.55-1.97-3.1-2.95-4.66-.23-.36-.47-.78-.34-1.19.17-.57.9-.72,1.5-.76,8.86-.67,17.72-1.33,26.58-2-8.52-.83-17.05-1.65-25.57-2.48-1.8-.17-3.63-.36-5.3-1.04-1.18-.48-2.28-1.25-3.03-2.3-.32-.45-.57-.95-.9-1.4-.47-.66-.83-1.38-1.2-2.1-.47-.89-.92-1.78-1.37-2.68-.08-.17-.88-1.48-.79-1.62.5-.78.98-1.54,1.42-2.28,2.92-4.8,6.42-9.62,9.16-13.29,3.54-4.74,7.36-9.46,11.34-14.07,3.64-4.22,5.82-6.74,8.78-9.06.32-.24,2.26-1.48,9.64-1.48,2.3,0,4.66.12,6.94.22,2.18.1,4.22.18,6.12.18h.74c4.74-.06,9.48-.14,14.25-.22,10.8-.18,21.97-.38,32.93-.38,5.74-.06,11.36-.1,17.01-.16,5.64-.04,11.26-.1,16.91-.14,11.24-.06,22.49-.14,33.73-.18,5.62-.02,11.24-.02,16.85-.04,5.76-.02,11.54-.02,17.31-.02,32.21,0,65,.16,100.22.5,5.58.06,11.14.12,16.73.2,5.56.06,11.14.14,16.71.22,5.56.06,11.12.16,16.69.24,5.56.08,11.12.18,16.69.28,2.68.04,3.86.16,4.36.26,6.5,3.78,12.4,12.24,17.61,19.71,1.06,1.52,2.1,3.02,3.1,4.42.99,1.38,2.66,2.84,2.47,4.73-5.69,2.62-11.98,3.94-18.25,3.83,6.78.08,13.56.56,20.3,1.42.47.06.95.13,1.37.35,1.02.55,1.33,1.77,1.97,2.65.29.4.71.63.97,1.05.14.23,1.04,1.81.93,2.01-2.96,5.36-5.52,9.84-8.32,13.97Z"/>
            <path class="cls-9" d="M448.39,142.83s-.06.09-.09.13c-1.26,1.89-2.35,3.91-3.83,5.65-4.78,5.56-9.32,12.08-15.47,16.29-3.3,2.26-6.44,2.88-10.36,3.42-7.98,1.1-16.23,1.24-24.15,1.46-28.13.8-56.26,1.38-84.39,1.74-13.69.16-27.35.28-41.04.36-3.38,0-6.76.02-10.14.04-11.14.02-22.27.04-33.41,0-28.27-.1-56.54-.4-84.81-.92-6.92,0-13.85-.1-20.77-.26-15.37-.34-30.73-.96-46.08-1.32-6.98-.16-13.91.22-19.91-4-3.54-2.48-6.56-5.82-9.48-8.88-.3-.32-.6-.64-.9-.96-2.64-2.8-5.2-5.68-7.66-8.64-2.04-2.44-4.04-4.9-6.16-7.28-.9-1.04-1.64-2.2-2.34-3.38-.94-1.58-2.04-3.14-2.42-4.98-.06-.32-.08-.68.12-.92.18-.22.46-.28.72-.32,5-.88,10.2-.4,15.13-1.38.86-.04,1.74-.08,2.62-.14-3.88,1.3-7.88,2.2-11.94,2.7-.92.1-1.94.24-2.58.9-1.2,1.26-.56,3.02.14,4.26.6,1.08,1.26,2.12,1.96,3.12,1.4,2.04,2.94,3.96,4.58,5.78,2.6,2.9,5.4,5.6,8.22,8.3,1.98,1.9,3.96,3.8,5.96,5.7,1.38,1.34,2.76,2.66,4.38,3.7,2.72,1.76,5.92,2.62,9.04,3.42,1.54.4,3.1.76,4.66,1.06.56.1,1.1.24,1.68.22.58-.04,1.16.06,1.76.12,1.36.14,2.74.26,4.12.32,2.76.14,5.54.14,8.3-.02,2.22-.12,4.36-.22,6.46-.9,1.04-.34,2.1-.1,3.14.06,2.8.38,5.6.76,8.4,1.14,1.66,0,3.28.68,4.94.54.48-.04.96-.18,1.44-.18.32-.02.64.02.96.06,1.88.28,3.76.74,5.66,1,2.4.34,5.14.66,7.54.08.18-.04.34-.12.54-.18.56-.18,1.22-.06,1.8-.06,3.52.08,7.04.16,10.58.22,7.04.16,14.11.3,21.17.44,7.06.16,14.15.3,21.21.44,3.52.08,7.04.2,10.56.22.48,0,.88-.08,1.34-.22,1.14-.4,2.44-.36,3.64-.46,1.4-.1,2.8-.2,4.22-.28,5.62-.36,11.24-.56,16.89-.64,5.64-.1,11.28-.1,16.93-.02,5.62.06,11.26.2,16.91.32,1.24.04,2.48.06,3.72.1,3.44.08,6.86.16,10.3.26.96.02,1.96-.04,2.9.2.92.26,1.68.42,2.66.38,2.82-.08,5.66-.18,8.5-.26,5.66-.16,11.34-.32,17.01-.46,5.66-.14,11.34-.26,17.01-.36,1.56-.04,3.12-.06,4.68-.1,32.91-.58,64.82-2.04,97.74-2.24,3.24-.02,6.56-.06,9.54-1.32,2.9-1.22,5.4-3.88,5.52-6.96.06.78.96,1.4,1.8,1.34.94-.06,1.74-.68,2.48-1.26,3.83-3,7.7-6.14,10.65-10.04.54-.71,1.03-1.45,1.58-2.16.21-.26.31-.5.3-.84-.08-1.9-1.59-3.72-2.75-5.09-.17-.2-.33-.39-.5-.59,2.27-.27,4.62.17,6.64,1.26.26.14.53.32.59.6.05.23-.05.46-.18.67Z"/>
            <path class="cls-9" d="M468.46,113.45c-.66,1.2-1.32,2.42-2,3.6-.26.5-.54.98-.82,1.46-2.02,3.6-4.2,7.14-6.58,10.54-1.28,1.84-2.62,3.62-4.02,5.34-1.32,1.58-2.42,3.22-4.38,4.1-.34.16-.68.28-1.02.38,6.5-8.28,12.96-16.75,16.87-26.53,1.4-3.5,2.46-7.14,4.28-10.46.3-.54.62-1.12.6-1.74-.02-.5-.26-.96-.48-1.4-1.84-3.48-4.02-7.28-7.74-8.54-.68-.24-1.54-.68-1.32-1.34.12-.34.48-.5.76-.72,1.26-1,.66-3-.06-4.46-1.57-3.18-3.1-6.38-4.69-9.54-.34-.67-1-.79-1.65-1.05-1.81-.7-3.5-1.69-5.01-2.91-.72-.59-1.4-1.22-2.03-1.91,2.63.33,5.22.95,7.72,1.82.68.24,1.41.55,1.91,1.09.25.27.35.55.45.89.11.36.39.62.62.92,1.06,1.42,1.79,3.03,2.67,4.55,1.42,2.48,2.8,4.98,4.36,7.4,1.14,1.8,1.98,3.84,2.78,5.82.2.46.38.9.56,1.34.84,1.98,1.8,3.92,2.26,6,1.22,5.44-1.46,10.72-4.02,15.33Z"/>
            <path class="cls-9" d="M451.63,65.77c-.22.26-.56.4-.9.48-3.26-4.92-6.54-9.82-9.8-14.75-1.66-2.48-2.86-4.7-5.44-6.12-2.06-1.12-3.84-2.56-6.12-3.24-.98-.3-2.08-.56-2.68-1.38-.34-.46-.46-1.06-.7-1.58-1.16-2.46-3.94-2.34-6.1-3.22-.7-.3-1.26-.42-2.04-.48-2.12-.12-4.24-.22-6.36-.34-4.24-.24-8.46-.48-12.7-.72-7.42-.42-14.85-.84-22.27-1.26-4.08-.22-8.18-.46-12.28-.42-4.04.04-8.06.34-12.1.18-1.26-.05-2.56-.04-3.76-.43-1.18-.39-2.44-.22-3.67-.19-3.02.07-6.04.14-9.06.21-8.46.2-16.94.6-25.4.6-1.59.04-3.24.09-4.65.82-1.46.75-2.05,1.99-2.16,3.55-.01.21.01.49-.13.66-.26.31-.61.21-.94.08-1.17-.46-2.2-1.61-3.05-2.5-.63-.65-1.22-1.34-1.83-2.01-.4-.44-.56-.77-1.13-.78-.51-.01-1.09.17-1.6.24-2.05.28-4.11.46-6.18.54-2.06.07-4.11.04-6.17-.09-.94-.06-1.95-.06-2.87-.32-.58-.17-1.09-.43-1.7-.48-2.06-.17-4.22.04-6.29.06-2.12.03-4.25.05-6.37.08-8.49.11-16.99.22-25.48.32-3.69.05-7.39.09-11.08.14-1.92.02-3.84.25-5.59,1.1-2.54,1.23-.83,4.42-1.24,6.55-.25-2.68-.83-5.85-3.3-6.92-.92-.4-1.94-.41-2.94-.42-.13,0-.25,0-.38,0-4.23-.04-8.47-.08-12.71-.11-6.99-.05-13.92-.36-20.92-.47-19.59-.28-39.17.2-58.76.38-8.5.06-17.03.14-25.53.22-2.12.02-4.26.04-6.38.04-10.46.1-21.19.24-30.93,4-2.93,1.13-5.5,2.77-7.87,4.77-1.06.89-1.95,1.97-2.63,3.18,3.32,1.52,6.89,2.52,10.52,2.93-1.83.6-3.8.64-5.73.67-2.48.04-4.97.08-7.45.13-.89.01-1.79.03-2.65.24-1.53.38-2.82,1.34-3.91,2.45-.56.57-1.17,1.2-1.59,1.89-.3.49-.41,1.06-.69,1.56-.91,1.66-2.4,3.14-3.57,4.63-1.27,1.62-2.54,3.24-3.8,4.86-6.78,8.64-13.67,17.45-17.73,27.67-.88,2.22-1.62,4.48-2.12,6.82-.48,2.24,2.82,2.74,4.92,3.66,2.08.92,4.4,1.4,6.24,2.74-2.4-.44-4.84-.66-7.3-.68-.42,0-.92.02-1.2.36-.38.42-.18,1.08.04,1.62.54,1.3,1.02,2.5,1.74,3.68.36.62.48,1.24.62,1.94.3,1.54.76,3.02,1.4,4.44,1.26,2.86,3.14,5.42,5.5,7.48,1.28,1.1,2.66,2.06,4.16,2.82-.44-.06-.86-.12-1.3-.22-2.02-.46-3.86-1.54-5.32-3-.72-.74-1.36-1.58-1.86-2.5-2.02-3.78-4.06-7.56-5.86-11.46-1.4-3.06-3.48-6.6-3.7-10-.02-.18-.02-.34-.02-.52-.06-2.32.5-4.58,1.4-6.74,1.48-3.62,3.86-7.02,5.76-10.16,3.26-5.36,6.92-10.48,10.68-15.51,4-5.36,8.2-10.56,12.58-15.63.8-.94,1.58-1.84,2.36-2.7,3.2-3.68,6.22-6.86,10.34-10.08,8.74-6.84,20.73-6.78,31.13-6.94,13.37-.22,26.41-.34,39.6-.5,5.66-.08,11.3-.14,16.97-.2,5.66-.06,11.3-.1,16.97-.16,5.64-.04,11.28-.1,16.95-.14,5.64-.04,11.28-.06,16.93-.1,5.64-.02,11.26-.06,16.91-.08,5.64-.02,11.26-.02,16.91-.04,5.62-.02,11.24-.02,16.89-.02s11.24,0,16.87.02c5.6,0,11.22.02,16.85.04,5.6.02,11.22.04,16.83.06,5.62.04,11.22.06,16.83.1,5.6.04,11.2.08,16.81.14,5.6.04,11.2.1,16.79.14,5.6.06,11.18.12,16.79.2,5.58.06,11.16.14,16.75.22,5.58.08,11.16.16,16.75.24,5.58.08,11.16.18,16.73.28,5.32.1,10.32.44,15.13,2.58.64.28,1.28.6,1.92.96,5.26,2.9,9.64,7.14,13.6,11.62.92,1.04,1.86,2.08,2.76,3.14,1.6,1.8,3.12,3.66,4.44,5.64,1.58,2.38,3.08,4.8,4.46,7.3.36.66.72,1.56.22,2.14Z"/>
          </g>
          <g>
            <path class="cls-4" d="M446.38,103.05c-3.91,7.34-8.07,14.34-12.54,20.94-4.86,7.25-10.09,14.03-15.72,20.21-1.13,1.22-2.72,1.96-4.4,1.99-112.83,3.3-227.27,3-343.25-.73-1.62-.06-3.18-.76-4.28-1.93-12.84-13.61-23.97-27.46-30.97-41.98-.92-1.9-.73-4.13.4-5.9,1.16-1.8,2.35-3.58,3.58-5.32,8.29-11.83,18.1-22.81,29.17-33.18,1.13-1.01,2.6-1.62,4.1-1.65,114.23-2.26,227.67-1.99,340.37.76,1.74.06,3.39.83,4.53,2.17,11.83,13.79,22.17,27,28.96,38.71,1.04,1.8,1.07,4.04.06,5.9Z"/>
            <path class="cls-1" d="M446.38,103.05c-.62,1.16-1.24,2.31-1.87,3.46-.44.8-1.12,1.44-1.5,2.26-2.29,4.86-6.41,8.21-10.64,11.35-4.5,3.34-9.27,6.82-11.58,11.92.49-.88.97-1.76,1.46-2.63,5.16-9.32,10.3-18.61,15.05-28.15-.7-1.22-1.47-2.45-2.23-3.64-3.06-4.8-6.6-9.29-10.55-13.42-1.8-1.87-3.85-3.55-5.53-5.53-1.16-1.31-2.75-1.62-4.4-2.11-6.85-2.02-13.97-2.6-21.07-3.12-89.28-6.76-179.02-9.02-268.4-3.76-26.3,1.53-51.67,9.85-75.71,20.64-1.38.61-2.48,1.74-3.73,2.63-1.22.89-2.81,1.56-4.28,1.04-1.44-.52-2.17-2.08-2.2-3.64,8.29-11.83,18.1-22.81,29.17-33.18,1.13-1.01,2.6-1.62,4.1-1.65,114.23-2.26,227.67-1.99,340.37.76,1.74.06,3.39.83,4.53,2.17,11.83,13.79,22.17,27,28.96,38.71,1.04,1.8,1.07,4.04.06,5.9Z"/>
            <path class="cls-22" d="M441.03,100.21c-8.56,15.93-17.52,29.02-27.43,39.87-32.75.98-65.98,1.62-99.37,1.96-19.32.24-38.68.34-58.03.34-2.17,0-4.31,0-6.48-.03-58.74-.03-118.94-1.07-179.02-3-14.55-15.38-24.06-28.22-29.96-40.42,8.35-12.78,19.05-25.35,31.83-37.27.61,0,1.19-.03,1.8-.03,50.45-1.01,101.42-1.53,151.6-1.53,16.33,0,32.69.06,49.11.18,25.35.15,50.76.43,76.07.86,4.95.06,9.91.15,14.83.24.06.03.12.03.18,0,1.99.06,4.01.09,5.99.12,13.45.24,26.88.55,40.27.89h.28c.21.24.43.49.64.73,4.71,5.53,8.87,10.55,12.51,15.23,6.57,8.38,11.5,15.5,15.2,21.86Z"/>
            <path class="cls-20" d="M425.16,105.68c-57.21,2.17-114.51,3.3-171.78,3.52h-2.32c-64.15.18-128.3-.95-192.39-3.39-3.55-.15-9.05-.28-11.25-3.64-1.28-2.02-.52-4.4.46-6.36,3.18-6.6,7.22-12.72,11.62-18.59,2.11-2.81,4.31-5.56,6.54-8.32.52-.61.92-1.19,1.31-1.9,1.19-2.02,3.79-3.3,5.72-4.59.43-.28.86-.55,1.28-.8,50.45-1.01,101.42-1.53,151.6-1.53,62.01,0,124.75.76,186.45,2.29.31.21.61.49.92.73l.09.09c4.74,4.16,8.81,9.05,12.05,14.49.12.21.24.43.37.64,2.54,4.31,4.53,8.96,5.93,13.76.7,2.38,1.07,4.86,2.02,7.19,2.02,4.92-4.86,6.24-8.62,6.39Z"/>
          </g>
        </g>
        <g>
          <g>
            <path class="cls-19" d="M277.36,34.54c0,.12,0,.22,0,.33-.09,2.2-.5,4.29-1.12,6.32-.63,2.09-1.47,4.14-2.39,6.26-.58,1.33-1.19,2.63-1.83,3.93-.04.08-.08.17-.13.24-1.45,2.91-3.07,5.73-4.86,8.44-.63.97-1.34,1.93-2.14,2.83-1.06,1.21-2.29,2.32-3.68,3.18-3.26,2.03-7.45,2.33-11.25,2.55-4.25.23-8.52.23-12.78.02-4.06-.19-8.12-.32-11.95-1.84-4.11-1.64-7.48-4.63-10.19-7.93,0-.02-.03-.03-.04-.05-2-2.45-3.73-5.15-5.25-7.84-.43-.75-.85-1.5-1.26-2.24-.27-.5-.53-.98-.78-1.47-.32-.6-.61-1.2-.89-1.8-1.33-2.91-2.19-5.88-2.5-8.86-.17-1.72-.17-3.43.03-5.16.12-.96.29-1.91.52-2.87.28-1.11.65-2.24,1.09-3.37.13-.3.24-.61.38-.92.4-.99.81-1.98,1.26-2.95.24-.54.48-1.06.73-1.6.51-1.09,1.06-2.18,1.64-3.26.39-.71.78-1.41,1.21-2.11.52-.89,1.07-1.75,1.65-2.61.03-.06.07-.11.11-.17.29-.43.58-.85.88-1.27.25-.35.49-.69.75-1.02.04-.06.09-.12.14-.18,2.23-2.92,4.88-5.5,8.62-6.75,7.94-2.67,16.2-2.63,24.8-2.07,3.46.23,7.31.88,10.05,3.05,5.68,4.54,10.64,9.84,14.58,15.81.05.07.1.13.14.19,1.55,2.34,2.71,4.9,3.47,7.57,0,0,0,.02,0,.04.14.5.27.99.38,1.5.09.38.16.76.23,1.15,0,.02,0,.03,0,.05h0c.19,1.07.31,2.15.37,3.24.03.56.03,1.1.02,1.63Z"/>
            <path class="cls-15" d="M273.65,34.53c0,.1,0,.2,0,.3-.08,1.96-.45,3.82-1.01,5.63-.56,1.86-1.32,3.69-2.14,5.57-.52,1.18-1.07,2.34-1.64,3.5-.03.07-.07.15-.11.22-1.3,2.6-2.76,5.1-4.37,7.52-.56.86-1.21,1.72-1.93,2.52-.95,1.08-2.06,2.07-3.31,2.83-2.93,1.81-6.69,2.07-10.11,2.27-3.82.21-7.66.21-11.49.02-3.65-.17-7.3-.29-10.74-1.64-3.69-1.46-6.72-4.12-9.16-7.07,0-.02-.03-.03-.03-.04-1.8-2.18-3.35-4.58-4.71-6.98-.39-.67-.76-1.34-1.13-2-.24-.44-.48-.88-.7-1.31-.29-.54-.55-1.07-.8-1.61-1.2-2.6-1.97-5.23-2.25-7.89-.16-1.53-.16-3.06.03-4.59.1-.85.26-1.7.47-2.55.25-.99.58-2,.98-3,.11-.27.22-.55.34-.82.36-.89.73-1.76,1.13-2.63.22-.48.43-.95.66-1.42.46-.97.95-1.94,1.48-2.9.35-.63.7-1.26,1.09-1.88.47-.79.96-1.56,1.48-2.33.03-.05.06-.1.1-.15.26-.38.52-.76.79-1.13.23-.31.44-.62.68-.91.03-.05.08-.1.12-.16,2.01-2.6,4.38-4.9,7.74-6.02,7.14-2.38,14.56-2.34,22.29-1.84,3.11.21,6.57.78,9.03,2.72,5.1,4.05,9.56,8.77,13.1,14.08.04.06.09.11.12.17,1.39,2.08,2.44,4.37,3.12,6.75,0,0,0,.02,0,.03.13.44.24.89.34,1.34.08.34.15.68.21,1.02,0,.02,0,.03,0,.04h0c.17.95.28,1.92.33,2.88.03.49.03.98.02,1.45Z"/>
            <path class="cls-9" d="M269.62,21.01c1.39,2.08,2.44,4.37,3.12,6.75-.16-.32-.34-.62-.49-.91-.56-1.03-1.15-2.06-1.76-3.06-1.19-1.9-2.49-3.73-3.9-5.48-.6-.75-1.3-1.41-1.65-2.33-.3-.76-.92-1.36-1.48-1.94-1.89-1.93-4.12-3.46-6.18-5.18-1.19-1-2.35-2.07-3.75-2.75-1.37-.66-2.9-.89-4.41-.97-.56-.03-1.1-.04-1.66-.05-.23,0-.44,0-.66-.07-.24-.08-.5-.09-.76-.12-.7-.08-1.4-.14-2.1-.19-5.84-.43-11.75.06-17.44,1.48-1.04.26-2.09.56-3.05,1.06-.14.08-.27.16-.41.23-.89.56-1.68,1.26-2.48,1.93-.4.34-.81.67-1.24.96-.17.12-.34.21-.53.3-.3.15-.48.47-.66.75-.39.6-.63,1.22-.93,1.86-.05.1-.1.18-.12.3-.08.34-.13.69-.2,1.03-.43-.02-.85-.14-1.22-.36.03-.05.06-.1.1-.15.26-.38.52-.76.79-1.13.23-.31.44-.62.68-.91.03-.05.08-.1.12-.16,2.01-2.6,4.38-4.9,7.74-6.02,7.14-2.38,14.56-2.34,22.29-1.84,3.11.21,6.57.78,9.03,2.72,5.16,4.09,9.65,8.87,13.22,14.25Z"/>
            <path class="cls-9" d="M273.3,30.15c-.02.11-.04.22-.07.33-.07-.43-.18-.87-.14-1.31v-.04c.08.34.15.68.21,1.02Z"/>
            <path class="cls-9" d="M270.57,32.3c.06.14.17.26.27.37.36.38.72.76,1.08,1.14.13.14.27.22.41.34.28.25.46.66.62.99.13.28.18.39.15.69-.03.25-.06.49-.09.74-.07.49-.14.98-.23,1.46-.17.97-.38,1.94-.63,2.89-.5,1.91-1.16,3.78-1.98,5.58,0,.02-.02.04-.02.05.19-.42.45-.82.66-1.24.21-.43.42-.86.61-1.29.38-.87.73-1.77,1.02-2.67.59-1.81,1-3.69,1.21-5.58.05-.44.09-.87.12-1.31.01-.21.05-.43.03-.64-.02-.2-.05-.4-.07-.61-.06-1.04-.19-2.07-.4-3.09l-2.29,1.35c-.24.14-.5.32-.52.6,0,.08.01.15.04.22Z"/>
            <path class="cls-9" d="M212.26,19.9c-.37.71-.71,1.44-1,2.19-.3.76-.67,1.48-.99,2.23-.27.63-.53,1.25-.78,1.89-.4,1.01-.73,2.01-.98,3-1.26,5.09-.51,10.12,1.75,15.04.25.54.51,1.07.8,1.61.57,1.09,1.18,2.2,1.83,3.31,1.37,2.41,2.93,4.84,4.75,7.02,2.44,2.94,5.47,5.61,9.16,7.07,3.44,1.35,7.09,1.47,10.74,1.64,3.83.19,7.67.19,11.49-.02,3.42-.2,7.19-.47,10.11-2.27,2.18-1.34,3.91-3.33,5.23-5.35.63-.95,1.24-1.92,1.83-2.91.3-.51.6-1.02.89-1.53.23-.4.41-.83.7-1.2.18-.23.33-.48.47-.74.31-.57.56-1.17.72-1.79-.01.04-.36.08-.41.09-.15.02-.3.04-.45.04-.11,0-.19-.02-.3-.04-.14-.03-.28,0-.41,0-1.18.12-2.36.25-3.54.36,1.17.22,2.33.51,3.47.88-.12,1.71-1.06,3.24-2.02,4.66-1.57,2.35-3.3,4.71-5.76,6.12-1.43.82-3.05,1.28-4.66,1.64-5.94,1.33-12.1,1.49-18.17,1.11-2.92-.18-5.86-.49-8.66-1.34-1.39-.43-2.73-.99-3.99-1.72-.88-.52-1.72-1.12-2.48-1.8-.34-.31-.64-.71-1.04-.93-.09-.05-.17-.1-.25-.16-.47-.38-.9-.84-1.33-1.28-.91-.94-1.74-1.96-2.51-3.01-.79-1.08-1.63-2.13-2.29-3.3-.14-.26-.37-.5-.35-.81.01-.19.04-.38.12-.55.16-.37.47-.66.81-.88.52-.33,1.13-.55,1.56-.99-.05.06-.64-.11-.74-.13-.26-.05-.51-.1-.76-.16-.51-.11-1.01-.23-1.52-.37-.2-.05-.38-.1-.59-.1-.16,0-.29,0-.44-.07-.39-.18-.61-.56-.79-.94-.03-.07-.06-.14-.09-.21-.2-.47-.41-.94-.61-1.41-.82-1.88-1.47-3.87-1.69-5.91-.04-.34-.11-.74-.07-1.08.02-.17.16-.35.24-.5.19-.37.38-.74.57-1.12.06-.11.11-.23.1-.35-.03-.23-.3-.35-.53-.39-.22-.04-.39-.1-.59-.18-.08-.03-.19,0-.24-.06-.08-.1-.03-.44-.03-.55,0-.44.03-.87.05-1.31.04-.59.17-1.2.11-1.79-.07-.74.26-1.59.47-2.28.24-.82.54-1.61.86-2.4.2-.49.41-.97.64-1.44.1-.21.18-.45.32-.64.08-.11.17-.19.23-.31.19-.37.31-.79.47-1.18.32-.78.69-1.55,1.14-2.27.03-.04.06-.09.08-.13.77-1.16,1.85-2.18,3.18-2.61.4-.13.83-.25,1.26-.18.21.03.4.05.61.01.66-.13,1.31-.36,1.94-.58.3-.11.6-.22.9-.34-1.22-.61-2.44-1.21-3.66-1.82-.32.11-.63.25-.92.43-.09.05-.18.12-.28.16-.07.03-.14.05-.21.09-.22.13-.38.4-.55.59-.23.27-.46.54-.69.8-.12.13-.23.27-.35.4-.09.1-.13.2-.2.31-.17.28-.39.54-.57.81-.18.28-.36.56-.53.84-.21.35-.41.7-.59,1.06Z"/>
            <path class="cls-12" d="M270.66,32.32c0,.09.11.13.2.15.4.11.79.23,1.19.34.3.09.67.13.9.34.48.43.9.85.91,1.51,0-.03,0-.05,0-.08.06-.26-.04-.43.07-.67.07-.16.15-.33.23-.49.15-.32.3-.65.37-1,.12-.61-.1-1.36-.68-1.56-.35-.12-.74-.01-1.09.14-.21.09-.41.21-.62.29-.16.07-.31.08-.47.11-.35.08-.71.51-.95.76-.04.04-.08.09-.07.14Z"/>
            <path class="cls-13" d="M212.39,48.06c-.05-.02-.1-.05-.14-.09-.24-.23-.39-.63-.54-.92-.22-.4-.44-.79-.64-1.2-.29-.54-.55-1.07-.8-1.61.07.07.15.13.21.18,1.18,1.01,2.65,1.66,4.02,2.38.12.06.24.13.32.23.08.1.12.26.05.37-.07.1-.19.14-.31.17-.45.12-.9.23-1.36.35-.23.06-.55.21-.8.12Z"/>
            <path class="cls-14" d="M269.19,47.27c-1.68,1.2-3.86,1.73-5.97,2.22,1.86-.01,3.72,0,5.58.05-.23.32-.3.72-.19,1.09.37-.85.74-1.7,1.11-2.54.36-.82.65-1.71,1.1-2.5-.01.28-.47.67-.68.88-.29.29-.6.56-.94.81Z"/>
            <path class="cls-16" d="M219.35,15.73c-.07.1-.13.21-.2.31-.5.07-1.01.16-1.52.22-.34.04-.61-.04-.94-.09-.4-.06-.78.11-1.11.33-.44.29-.88.59-1.31.88-.44.3-.84.65-1.19,1.05.82-1.49,1.7-2.94,2.67-4.35.26-.38.52-.76.79-1.13,0,.07-.02.14,0,.21.12.95.82,1.34,1.54,1.78.42.26.85.52,1.27.78Z"/>
            <path class="cls-3" d="M207.93,32.29c-.01.13-.08.25-.07.39,0,.19.07.37.15.55.03.06.06.12.09.18.05.09.1.18.16.25.14.16.34.2.54.24.75.13,1.47.32,2.16.64-.05-.02-.37.16-.43.18-.17.06-.33.11-.5.16-.33.09-.67.14-1.01.16-.28.02-.48-.05-.68.21-.16.2-.2.48-.2.73,0,.35.09.7,0,1.04-.35-1.56-.36-3.12-.2-4.71Z"/>
            <path class="cls-8" d="M230.42,55.93c-1.18,1.31-2.22,2.78-1.94,4.35.3,1.65,1.11,3.02,2.78,3.19-4.52.75-9.39-1.8-11.95-5.6-1.89-2.81-4.18-5.69-6.07-8.49,2.8.98,6-.1,8.28-2.01,2.28-1.9,3.83-4.52,5.34-7.08,3.91-6.64,7.82-13.29,11.73-19.93,1.12-1.9,2.25-3.83,2.85-5.96s.6-4.51-.47-6.44c-1.07-1.93-3.37-3.26-5.52-2.75-.22.05-.32-.84-.17-1.02.15-.17.42-.17.64-.16,5.43.34,10.85.69,16.28,1.03,6.12.39,10.4,6.89,14.13,11.77-2.72-3.56-5.97.96-7.33,2.86-3.31,4.63-6.74,9.17-10.2,13.69-3.32,4.32-6.7,8.6-10.13,12.84-2.03,2.5-4.08,4.99-6.14,7.47-.57.68-1.35,1.43-2.08,2.24Z"/>
            <path class="cls-2" d="M262.8,31.91c-.42-2.31-1.2-4.71-2.25-6.99-.94-2.05-2.16-4.12-3.58-5.9-1.28-1.61-3.34-2.62-5.11-3.62-.77-.44-1.44-.99-2.24-1.35-16.09-7.17-35.02,6.74-33.39,23.62.27,2.83,1.17,5.59,2.64,8.07,4.02,6.85,11.38,11.21,19.44,11.98,2.98.28,6.02.15,8.93-.54,5.9-1.4,10.74-5.14,13.61-10.31,2.44-4.38,2.84-10.13,1.95-14.96ZM255.58,44.61c-2.16,3.89-5.79,6.69-10.23,7.75-2.18.52-4.47.62-6.7.4-6.05-.57-11.58-3.84-14.61-8.99-1.09-1.86-1.77-3.93-1.98-6.06-.06-.66-.09-1.32-.07-1.98,0-.29.05-.59.04-.88,0-.15-.05-.29-.09-.44-.12-.44-.1-.94,0-1.38.1-.48.35-.95.77-1.2.32-.2.71-.25,1.09-.29.88-.09,1.77-.13,2.66-.1-1.13-.18-2.25-.35-3.38-.53-.05,0,.37-1.35.42-1.47.18-.46.44-.88.66-1.33.35-.72.86-1.4,1.34-2.04.99-1.3,2.14-2.47,3.42-3.48,1.29-1.01,2.7-1.87,4.2-2.53,1.5-.66,3.09-1.13,4.72-1.36,1.65-.24,3.33-.25,4.97,0,1.49.22,2.95.65,4.33,1.27.6.27,1.11.69,1.68,1.01,1.33.76,2.87,1.52,3.84,2.73,1.07,1.34,1.98,2.88,2.69,4.43.79,1.72,1.37,3.52,1.69,5.25.36,1.97.42,3.89-.03,5.85-2.29.12-4.59.15-6.89.09,2.09.23,4.18.46,6.27.69.66.07.31.67.17,1.08-.12.36-.18.72-.18,1.11,0,.35-.03.67-.14,1-.08.25-.19.48-.3.72-.06.12-.12.24-.18.36-.04.08-.19.26-.19.35Z"/>
            <path class="cls-9" d="M257.66,50.32c1.93-1.91,3.25-4.37,4.02-6.97.77-2.59,1.02-5.32.99-8.03,0-.39-.04-.79-.18-1.16-.2-.51-.58-.7-1.1-.83-.78-.19-1.56-.38-2.33-.58,1.84.07,3.84-.02,5.68-.11-.31.11-.62.21-.93.32-.08.03-.16.05-.22.11-.06.06-.09.14-.11.22-.12.44-.06.9-.02,1.36.06.73.05,1.46,0,2.19-.02.36-.05.72-.09,1.08-.07.8-.24,1.57-.4,2.36-.3,1.49-.49,3-.9,4.46-.41,1.46-1.05,2.9-2.11,3.98.12.31.37.56.66.7-.37.02-.76.05-1.08.24-.18.11-.33.26-.47.41-.51.54-1.01,1.08-1.53,1.61-.17.17-.35.29-.55.41-.45.27-.75.75-1.11,1.11-1.66,1.67-3.85,2.73-6.1,3.45-.17.05-.34.11-.51.16-1.55.46-3.14.77-4.74.94-1.61.16-3.23.18-4.83.04-.8-.07-1.6-.17-2.4-.31-.4-.07-.79-.15-1.19-.24-1.26-.29-2.52-.49-3.75-.89-3.61-1.17-6.77-3.36-9.68-5.73-.35-.29-.7-.58-1.05-.87-.15-.13-.34-.26-.48-.4-.12-.12-.2-.26-.34-.37-.26-.22-.58-.36-.9-.45-.52-.14-1.07-.15-1.61-.22.07-.17.28-.23.46-.27.41-.08.83-.13,1.24-.14.21,0,.42.02.63,0,.17-.02.31-.03.48-.01.82.07,1.62.27,2.44.37.49.06.99.08,1.49,0-1.18.1-2.37.21-3.55.3.45,1.09,1.55,1.74,2.6,2.28.21.11.45.2.63.34.08.06.16.13.24.19.16.13.33.25.49.38.33.25.66.5.99.75.67.49,1.35.97,2.05,1.4.98.6,2.01,1.13,3.09,1.55,1.66.65,3.42,1.05,5.2,1.18,3.21.23,6.34.65,9.52.15.38-.06.75-.12,1.13-.2,2.51-.53,4.79-1.84,6.92-3.28,1.29-.87,2.21-1.91,3.32-3.01Z"/>
          </g>
          <g>
            <path class="cls-24" d="M259.42,38.25c.02.84-.03,1.66-.14,2.44-.28,2.09-.96,3.99-1.95,5.69,0,0,0,.02-.02.03-4.26,7.3-14.19,10.78-22.7,8.57-5.3-1.38-9.77-5.07-12.5-9.79-.21-.36-.41-.72-.6-1.09-1.37-2.69-2.2-5.67-2.32-8.71-.05-1.14,0-2.29.17-3.45.04-.31.09-.62.15-.93.92-4.89,3.98-8.71,7.77-11.63.98-.75,2-1.45,3.05-2.08,6.02-3.64,13.46-2.65,19.15,1.16,3.78,2.54,6.43,6,8.03,9.96.15.37.29.75.42,1.13.02.07.06.16.08.24.1.29.19.59.28.89.12.4.22.8.32,1.21.04.15.07.31.11.46.03.16.07.31.1.47.03.17.07.33.1.5.04.23.08.47.12.71,0,.02,0,.04,0,.07.03.2.06.39.09.59,0,.04,0,.07,0,.12.03.26.06.51.09.77,0,.04.02.08.02.12.09.84.14,1.71.15,2.57Z"/>
            <path class="cls-21" d="M254.53,37.96c.01.63-.03,1.25-.11,1.85-.21,1.58-.73,3.02-1.47,4.31,0,0,0,.02-.01.03-3.22,5.52-10.74,8.16-17.18,6.48-4.01-1.04-7.39-3.84-9.46-7.41-.16-.27-.31-.55-.45-.83-1.03-2.04-1.66-4.29-1.76-6.6-.04-.87,0-1.74.13-2.61.03-.24.07-.47.11-.7.7-3.7,3.01-6.59,5.88-8.8.74-.57,1.51-1.1,2.31-1.57,4.56-2.75,10.19-2.01,14.5.88,2.86,1.92,4.87,4.54,6.08,7.54.11.28.22.56.32.85.02.06.04.12.06.18.08.22.14.45.21.67.09.3.17.61.24.92.03.11.06.23.08.34.02.12.05.24.08.36.03.13.05.25.08.38.03.18.06.36.09.54,0,.02,0,.03,0,.05.02.15.04.29.07.45,0,.03,0,.06,0,.09.03.19.04.39.07.58,0,.03.01.06.01.09.07.64.11,1.29.11,1.94Z"/>
            <path class="cls-5" d="M233.04,28.26c1.23,3.54,3.89,6.57,7.24,8.26,3.68,1.86,10.53,2.75,13.69-.64,1.61-1.73,1.55-4.15,1.76-6.36.52-5.38-5.03-9.65-9.45-11.35-2.56-.99-7.51-2.62-10.08-1.07-1.4.84-2.64,2.45-3.25,3.94-.83,2.06-.74,4.39-.14,6.49.07.24.15.48.23.72Z"/>
            <path class="cls-11" d="M259.42,38.25c.02.84-.03,1.66-.14,2.44-.28,2.09-.96,3.99-1.95,5.69,0,0,0-.02,0-.03-.3-.7-.96-1.23-1.65-1.49-.95-.36-2-.35-3.01-.35-7.63.02-15.26-.81-22.7-2.49-1.27-.29-2.54-.6-3.83-.54-1.29.07-2.63.56-3.4,1.6-.45.6-.66,1.36-.63,2.11-.21-.36-.41-.72-.6-1.09-1.37-2.69-2.2-5.67-2.32-8.71-.02-1.15.02-2.31.17-3.45.04-.31.09-.62.15-.93.92-4.89,3.98-8.71,7.77-11.63-1.04,1.34-1.93,2.8-2.64,4.34-.92,2-1.68,3.97-1.26,6.19.33,1.73,1.19,3.37,2.39,4.65l.07.07c2.34,2.43,5.62,3.69,8.83,4.67,2.46.75,4.95,1.38,7.47,1.9,2.36.49,4.77.86,7.17.62,4.09-.41,8.61-3.22,8.2-7.88-.14-1.6.58-4.04,0-5.53.15.37.29.75.42,1.13.02.07.06.16.08.24.1.29.19.59.28.89.12.4.22.8.32,1.21.04.15.07.31.11.46.03.16.07.31.1.47.03.17.07.33.1.5.04.23.08.47.12.71,0,.02,0,.04,0,.07.03.2.06.39.09.59,0,.04,0,.07,0,.12.03.26.06.51.09.77,0,.04.02.08.02.12.09.84.14,1.71.15,2.57Z"/>
            <path class="cls-6" d="M236.28,51.74c.73-.16,1.57-.58,1.6-1.33.01-.32-.14-.62-.29-.89-1.62-2.86-4.68-4.87-7.96-5.21-.63-.07-1.27-.07-1.89.03-.34.06-.68.15-.95.37-.81.67-.42,1.75-.13,2.57.26.73.7,1.3,1.24,1.85,1.36,1.4,3.18,2.34,5.1,2.67,1.09.19,2.21.17,3.29-.06Z"/>
          </g>
        </g>
      </g>
    </g>
  </g>
</svg>