<?xml version="1.0" encoding="UTF-8"?>
<svg xmlns="http://www.w3.org/2000/svg" xmlns:xlink="http://www.w3.org/1999/xlink" viewBox="0 0 117.34 116.3">
  <defs>
    <style>
      .cls-1 {
        fill: url(#_ÂÁ_Ï_ÌÌ_È_ËÂÌÚ_3-6);
      }

      .cls-2 {
        fill: url(#_ÂÁ_Ï_ÌÌ_È_ËÂÌÚ_3-7);
      }

      .cls-3 {
        fill: url(#_ÂÁ_Ï_ÌÌ_È_ËÂÌÚ_3-8);
      }

      .cls-4 {
        fill: url(#_ÂÁ_Ï_ÌÌ_È_ËÂÌÚ_3-9);
      }

      .cls-5 {
        fill: url(#_ÂÁ_Ï_ÌÌ_È_ËÂÌÚ_3-2);
      }

      .cls-6 {
        fill: url(#_ÂÁ_Ï_ÌÌ_È_ËÂÌÚ_3-3);
      }

      .cls-7 {
        fill: url(#_ÂÁ_Ï_ÌÌ_È_ËÂÌÚ_3-4);
      }

      .cls-8 {
        fill: url(#_ÂÁ_Ï_ÌÌ_È_ËÂÌÚ_3-5);
      }

      .cls-9 {
        fill: url(#_ÂÁ_Ï_ÌÌ_È_ËÂÌÚ_7);
      }

      .cls-10 {
        fill: url(#_ÂÁ_Ï_ÌÌ_È_ËÂÌÚ_3);
      }

      .cls-11 {
        fill: url(#_ÂÁ_Ï_ÌÌ_È_ËÂÌÚ_11);
        mix-blend-mode: screen;
      }

      .cls-12 {
        isolation: isolate;
      }

      .cls-13 {
        fill: #ffdf80;
      }

      .cls-14 {
        fill: #a04623;
      }

      .cls-15 {
        fill: url(#_ÂÁ_Ï_ÌÌ_È_ËÂÌÚ_12-2);
      }

      .cls-16 {
        fill: #eb924d;
      }

      .cls-17 {
        fill: url(#_ÂÁ_Ï_ÌÌ_È_ËÂÌÚ_12);
      }
    </style>
    <linearGradient id="_ÂÁ_Ï_ÌÌ_È_ËÂÌÚ_3" data-name="¡ÂÁ˚ÏˇÌÌ˚È „‡‰ËÂÌÚ 3" x1="58.03" y1="-3.07" x2="58.61" y2="53.35" gradientUnits="userSpaceOnUse">
      <stop offset="0" stop-color="#cf5c2b"/>
      <stop offset="1" stop-color="#59173e"/>
    </linearGradient>
    <linearGradient id="_ÂÁ_Ï_ÌÌ_È_ËÂÌÚ_3-2" data-name="¡ÂÁ˚ÏˇÌÌ˚È „‡‰ËÂÌÚ 3" x1="100.31" y1="-21.61" x2="-1.28" y2="166.84" xlink:href="#_ÂÁ_Ï_ÌÌ_È_ËÂÌÚ_3"/>
    <linearGradient id="_ÂÁ_Ï_ÌÌ_È_ËÂÌÚ_3-3" data-name="¡ÂÁ˚ÏˇÌÌ˚È „‡‰ËÂÌÚ 3" x1="88.88" y1="-.41" x2="-12.7" y2="188.03" xlink:href="#_ÂÁ_Ï_ÌÌ_È_ËÂÌÚ_3"/>
    <linearGradient id="_ÂÁ_Ï_ÌÌ_È_ËÂÌÚ_3-4" data-name="¡ÂÁ˚ÏˇÌÌ˚È „‡‰ËÂÌÚ 3" x1="102.21" y1="-3.52" x2="102.79" y2="52.89" xlink:href="#_ÂÁ_Ï_ÌÌ_È_ËÂÌÚ_3"/>
    <linearGradient id="_ÂÁ_Ï_ÌÌ_È_ËÂÌÚ_3-5" data-name="¡ÂÁ˚ÏˇÌÌ˚È „‡‰ËÂÌÚ 3" x1="23.79" y1="-2.71" x2="24.37" y2="53.7" xlink:href="#_ÂÁ_Ï_ÌÌ_È_ËÂÌÚ_3"/>
    <linearGradient id="_ÂÁ_Ï_ÌÌ_È_ËÂÌÚ_3-6" data-name="¡ÂÁ˚ÏˇÌÌ˚È „‡‰ËÂÌÚ 3" x1="104.87" y1="-3.55" x2="105.45" y2="52.87" xlink:href="#_ÂÁ_Ï_ÌÌ_È_ËÂÌÚ_3"/>
    <linearGradient id="_ÂÁ_Ï_ÌÌ_È_ËÂÌÚ_3-7" data-name="¡ÂÁ˚ÏˇÌÌ˚È „‡‰ËÂÌÚ 3" x1="54.22" y1="-17.54" x2="38.81" y2="9.25" xlink:href="#_ÂÁ_Ï_ÌÌ_È_ËÂÌÚ_3"/>
    <linearGradient id="_ÂÁ_Ï_ÌÌ_È_ËÂÌÚ_3-8" data-name="¡ÂÁ˚ÏˇÌÌ˚È „‡‰ËÂÌÚ 3" x1="20.63" y1="11.71" x2="9.77" y2="52.61" xlink:href="#_ÂÁ_Ï_ÌÌ_È_ËÂÌÚ_3"/>
    <linearGradient id="_ÂÁ_Ï_ÌÌ_È_ËÂÌÚ_3-9" data-name="¡ÂÁ˚ÏˇÌÌ˚È „‡‰ËÂÌÚ 3" x1="62.69" y1="165.9" x2="59.27" y2="57.8" xlink:href="#_ÂÁ_Ï_ÌÌ_È_ËÂÌÚ_3"/>
    <linearGradient id="_ÂÁ_Ï_ÌÌ_È_ËÂÌÚ_7" data-name="¡ÂÁ˚ÏˇÌÌ˚È „‡‰ËÂÌÚ 7" x1="64.57" y1="10.31" x2="58.19" y2="78.52" gradientUnits="userSpaceOnUse">
      <stop offset="0" stop-color="#ffca2b"/>
      <stop offset="1" stop-color="#d15b24"/>
    </linearGradient>
    <linearGradient id="_ÂÁ_Ï_ÌÌ_È_ËÂÌÚ_12" data-name="¡ÂÁ˚ÏˇÌÌ˚È „‡‰ËÂÌÚ 12" x1="57.85" y1="102.56" x2="60.2" y2="57.19" gradientUnits="userSpaceOnUse">
      <stop offset="0" stop-color="#ffce3b"/>
      <stop offset="1" stop-color="#cc6923"/>
    </linearGradient>
    <linearGradient id="_ÂÁ_Ï_ÌÌ_È_ËÂÌÚ_12-2" data-name="¡ÂÁ˚ÏˇÌÌ˚È „‡‰ËÂÌÚ 12" x1="59.26" y1="76.03" x2="61.61" y2="23.61" xlink:href="#_ÂÁ_Ï_ÌÌ_È_ËÂÌÚ_12"/>
    <linearGradient id="_ÂÁ_Ï_ÌÌ_È_ËÂÌÚ_11" data-name="¡ÂÁ˚ÏˇÌÌ˚È „‡‰ËÂÌÚ 11" x1="101.19" y1="10.78" x2="24.57" y2="86.51" gradientUnits="userSpaceOnUse">
      <stop offset="0" stop-color="#f2de6d"/>
      <stop offset="1" stop-color="#000"/>
    </linearGradient>
  </defs>
  <g class="cls-12">
    <g id="Layer_2">
      <g id="BUTTON">
        <g>
          <g>
            <g>
              <path class="cls-10" d="M.74,54.88c-.64,3.11-.86,6.28-.68,9.44.17,3,.3,6.06,2.1,8.59.71,1,1.59,1.88,2.6,2.57.67.46,1.46.7,2.13,1.13.16.11.32.19.32.4,0,.4-.79.83-1.05,1.04-.53.44-1.07.94-1.26,1.62-.34,1.21.25,2.48.77,3.54,1.21,2.45,2.57,4.83,4.07,7.12,6.03,9.2,12.99,18.63,23.6,22.79,6.07,2.38,12.48,2.6,18.91,2.91,6.74.34,13.5.35,20.21-.01,6.03-.32,12.65-.82,17.8-3.95,3.82-2.34,6.85-5.83,9.2-9.34,3.87-5.79,7.25-11.9,10.11-18.25.27-.59.65-1.17.67-1.83.01-.31.04-.61,0-.92-.08-.61-.34-1.21-.75-1.67,1.14-.54,2.02-1.55,2.61-2.66.32-.61.57-1.25.78-1.9.17-.55.3-1.08.63-1.56.7-1.05.96-2.38,1.3-3.58.8-2.84,1.46-5.71,1.95-8.62.07-.42.14-.84.2-1.27.27-1.86.47-3.74.38-5.61,0-.18-.02-.37-.03-.54-.27,6.98-2.67,13.08-5.52,19.6-3,6.86-6.57,13.43-10.7,19.65-2.33,3.52-5.35,7.01-9.15,9.35-5.13,3.15-11.71,3.64-17.7,3.97-6.69.37-13.4.37-20.09.04-6.38-.3-12.77-.5-18.79-2.88-6.45-2.54-11.75-7.21-16.03-12.35-4.64-5.61-8.33-12.09-11.5-18.07-5.02-9.48-6.91-19.24-4.46-29.12-1.19,3.4-1.91,7.03-2.61,10.36Z"/>
              <path class="cls-5" d="M117.3,53.82c0,.18,0,.35-.02.52-.14,3.43-.79,6.68-1.76,9.84-.99,3.25-2.31,6.45-3.75,9.75-.91,2.07-1.87,4.1-2.87,6.12-.06.12-.12.26-.2.38-2.28,4.54-4.83,8.93-7.64,13.15-.99,1.5-2.11,3.01-3.37,4.4-1.67,1.88-3.6,3.61-5.79,4.95-5.12,3.16-11.71,3.63-17.69,3.98-6.68.36-13.39.36-20.09.03-6.38-.3-12.77-.5-18.79-2.87-6.45-2.55-11.75-7.21-16.02-12.36-.02-.03-.05-.05-.06-.08-3.14-3.81-5.86-8.02-8.25-12.21-.68-1.17-1.34-2.34-1.97-3.49-.43-.77-.84-1.53-1.23-2.29-.5-.94-.96-1.87-1.4-2.81-2.1-4.54-3.45-9.16-3.93-13.8-.27-2.67-.27-5.35.05-8.03.18-1.49.46-2.98.82-4.47.44-1.73,1.02-3.49,1.72-5.25.2-.47.38-.96.59-1.43.62-1.55,1.28-3.08,1.97-4.6.38-.84.76-1.66,1.15-2.49.8-1.7,1.67-3.4,2.58-5.07.61-1.11,1.23-2.2,1.9-3.28.82-1.38,1.69-2.73,2.6-4.07.05-.09.11-.17.17-.26.46-.67.91-1.32,1.38-1.97.39-.55.77-1.08,1.18-1.59.06-.09.14-.18.21-.27,3.51-4.56,7.67-8.57,13.55-10.52C44.83-.46,57.82-.4,71.33.48c5.44.36,11.5,1.37,15.79,4.75,8.93,7.08,16.72,15.34,22.92,24.63.08.11.15.2.21.3,2.43,3.64,4.27,7.64,5.45,11.8,0,.02.02.03.02.06.23.77.43,1.55.59,2.34.14.59.26,1.18.36,1.79,0,.03.02.05.02.08v.02c.3,1.66.49,3.34.58,5.03.05.87.05,1.72.03,2.54Z"/>
              <path class="cls-6" d="M117.3,53.82c0,.18,0,.35-.02.52-.14,3.43-.79,6.68-1.76,9.84-3.42-.17-6.88-.41-10.42-.62-13.94-.9-27.88-1.7-41.84-2.44-20.43-1.08-40.65-1.72-60.79-4.09-.27-2.67-.27-5.35.05-8.03,20.15-1.46,40.31-.93,60.75-.49.27.02.55.02.82.03-1.17-.18-2.34-.38-3.51-.55-17.78-2.73-37.39-4.57-54.93-10.14.62-1.55,1.28-3.08,1.97-4.6.38-.84.76-1.66,1.15-2.49.8-1.7,1.67-3.4,2.58-5.07.61-1.11,1.23-2.2,1.9-3.28,16.95-.49,34.44,1.96,50.69,3.36,13.42,1.14,26.93,2.04,40.32,3.43,1.93.2,3.86.43,5.77.68.08.11.15.2.21.3,2.43,3.64,4.27,7.64,5.45,11.8,0,.02.02.03.02.06.23.77.43,1.55.59,2.34.14.59.26,1.18.36,1.79,0,.03.02.05.02.08v.02c.3,1.66.49,3.34.58,5.03.05.87.05,1.72.03,2.54ZM108.49,80.41c-5.91-.64-11.74-1.21-17.68-1.37-11.78-.32-23.55-.8-35.32-1.46-11.78-.65-23.4-1.32-35.23-1.29-3.46,0-7.35-.3-11.22-.36.64,1.15,1.29,2.32,1.97,3.49,2.38,4.19,5.1,8.4,8.25,12.21,11.56,2.14,22.99,3.3,34.78,4.16,11.75.85,23.52,1.53,35.31,2.07,2.82.12,5.59.15,8.35.12,1.26-1.4,2.38-2.9,3.37-4.4,2.81-4.22,5.36-8.61,7.64-13.15-.08,0-.14,0-.21-.02Z"/>
              <path class="cls-16" d="M110.26,30.17c2.43,3.64,4.27,7.64,5.45,11.8-.27-.56-.59-1.09-.87-1.59-.97-1.81-2-3.6-3.08-5.35-2.08-3.33-4.36-6.53-6.82-9.58-1.05-1.31-2.28-2.48-2.89-4.07-.52-1.34-1.61-2.38-2.6-3.39-3.31-3.37-7.21-6.04-10.81-9.07-2.08-1.75-4.12-3.63-6.56-4.81-2.4-1.15-5.07-1.56-7.71-1.7-.97-.06-1.93-.08-2.9-.09-.39,0-.77.02-1.15-.12-.43-.14-.88-.15-1.32-.21-1.23-.14-2.45-.24-3.68-.33-10.22-.76-20.56.11-30.51,2.58-1.82.46-3.66.97-5.33,1.85-.24.14-.47.27-.71.41-1.56.97-2.93,2.2-4.34,3.37-.7.59-1.41,1.17-2.17,1.69-.3.21-.59.36-.93.52-.53.26-.84.82-1.15,1.31-.68,1.05-1.11,2.14-1.63,3.25-.09.18-.17.32-.21.53-.14.59-.23,1.2-.35,1.81-.74-.03-1.49-.24-2.13-.64.05-.09.11-.17.17-.26.46-.67.91-1.32,1.38-1.97.39-.55.77-1.08,1.18-1.59.06-.09.14-.18.21-.27,3.51-4.56,7.67-8.57,13.55-10.52C44.83-.46,57.82-.4,71.33.48c5.44.36,11.5,1.37,15.79,4.75,9.02,7.15,16.89,15.52,23.13,24.94Z"/>
              <path class="cls-16" d="M116.68,46.16c-.03.2-.08.38-.12.58-.12-.76-.32-1.52-.24-2.29v-.08c.14.59.26,1.18.36,1.79Z"/>
              <path class="cls-16" d="M109.1,51.07c1.43.01,2.92.04,4.2.68,2.11,1.06,3.1,3.5,3.71,5.78.25-2.02.22-4.07-.09-6.08-.05-.35-.12-.7-.31-.99-.23-.34-.6-.54-.96-.71-3.06-1.37-6.58-.63-9.89-.1-2.04.33-4.1.57-6.16.73-2.07.16-4.15.23-6.22.21-.39,0-.89-.11-1.25.1-.5.28.12.24.37.24,1.06,0,2.12.02,3.17.03,2.11.02,4.21.03,6.32.05,2.12.02,4.23.03,6.35.05.26,0,.52,0,.78,0Z"/>
              <path class="cls-16" d="M101.07,93.58c-2.32,3.52-5.35,7.02-9.16,9.36-5.12,3.16-11.71,3.63-17.69,3.98-6.68.36-13.39.36-20.09.03-6.38-.3-12.77-.5-18.79-2.87-6.45-2.55-11.75-7.21-16.02-12.36-3.17-3.83-5.91-8.06-8.31-12.29-1.14-1.94-2.2-3.89-3.2-5.79-.5-.94-.96-1.87-1.4-2.81-3.96-8.6-5.27-17.4-3.07-26.3.44-1.73,1.02-3.49,1.72-5.25.44-1.11.89-2.21,1.36-3.3.56-1.32,1.22-2.58,1.74-3.9.51-1.31,1.09-2.59,1.75-3.84,1.3-2.48,2.88-4.81,4.71-6.93.28-.33.58-.66.98-.83.36-.15.77-.15,1.16-.14,1.32.04,2.64.14,3.95.26,4.14.37,8.31,1.73,12.51,1.65,2.09-.04,4.16-.43,6.25-.53,1.07-.05,2.14-.02,3.21.04.53.03,1.07.07,1.6.11.27.02.53.05.8.07.17.01.32-.04.49-.03.13,0,.27.04.39.07-.97.3-2.01.46-3.01.63-1.01.17-2.03.31-3.05.42-2.05.22-4.11.32-6.17.36-2.07.04-4.14,0-6.21-.05-1.8-.05-3.6-.11-5.4-.15-1.84-.05-3.72-.07-5.47.5-2.32.76-4.2,2.54-5.56,4.57-.05.07-.1.15-.15.22-.8,1.25-1.44,2.6-2,3.97-.28.67-.49,1.41-.82,2.06-.11.21-.27.35-.41.54-.24.34-.39.75-.57,1.12-.39.83-.77,1.67-1.12,2.52-.56,1.38-1.08,2.78-1.5,4.21-.36,1.21-.94,2.7-.82,3.99.11,1.03-.12,2.1-.2,3.13-.02.27-.2,3.31,0,3.33,2.02.11,4.02.52,5.94,1.21-.83.09-1.65.23-2.48.39-.77.16-1.72.53-2.25,1.17-.23.27-.29.76-.34,1.1-.14.83-.09,1.67,0,2.5.38,3.59,1.53,7.06,2.96,10.35.36.82.72,1.65,1.07,2.47.3.69.63,1.42,1.26,1.85.49.33,1.12.45,1.7.56,1.2.22,2.29.72,3.5.96,2.38.47,4.79.85,7.21.91,4.36.11,8.83-.78,13.03.39-.68.05-1.37.1-2.05.15-4.28.31-8.56.59-12.84.82-2.11.11-4.23.23-6.34.31-.44.02-1.43-.09-1.66.41-.06.13-.04.26,0,.39.16.8.7,1.63,1.1,2.33,1.16,2.04,2.62,3.89,4,5.78,1.35,1.85,2.81,3.62,4.39,5.27.74.77,1.49,1.57,2.32,2.24.14.11.28.2.44.28.71.38,1.23,1.08,1.82,1.62,1.33,1.2,2.79,2.25,4.34,3.15,2.19,1.28,4.55,2.27,6.97,3.01,4.9,1.5,10.04,2.04,15.15,2.35,10.63.66,21.4.39,31.79-1.95,2.82-.63,5.65-1.43,8.16-2.87,4.29-2.46,7.32-6.59,10.07-10.7,1.67-2.49,3.32-5.17,3.53-8.16-1.99-.64-4.02-1.15-6.07-1.53,2.07-.19,4.13-.42,6.19-.63.24-.02.48-.06.72-.02.18.03.33.07.52.07.26,0,.52-.04.78-.08.08-.01.7-.08.72-.15-.3,1.09-.72,2.15-1.27,3.14-.25.45-.51.89-.82,1.29-.5.64-.83,1.4-1.22,2.1-.51.9-1.03,1.79-1.56,2.68-1.03,1.72-2.1,3.41-3.21,5.08Z"/>
              <path class="cls-7" d="M88.24,50.83c7.44-.15,14.88-.3,22.31-.43,1.44-.03,2.94-.06,4.28.46s2.51,1.73,2.45,3.1c0-.05,0-.09.02-.13.02-.83.02-1.68-.03-2.54-.09-1.69-.28-3.38-.58-5.04-.08.25-.18.49-.36.69-.59.71-2.01.78-2.86.92-.75.11-1.51.21-2.26.29-7.66.88-15.31,1.77-22.97,2.67Z"/>
              <path class="cls-8" d="M10.21,77.3c.26.7.53,1.41.81,2.13-1.14-1.94-2.2-3.89-3.2-5.79-.5-.94-.96-1.87-1.4-2.81.12.12.26.23.36.32.7.59,1.44,1.11,2.23,1.55,2.66,1.5,5.74,1.84,8.72,2.26,1.66.23,3.43.59,5.1.59,6.64.68,13.27,1.32,19.92,1.9-10.84-.26-21.7-.3-32.54-.15Z"/>
              <path class="cls-1" d="M109.5,76.11c-2.93,2.1-6.75,3.02-10.44,3.89,3.26-.02,6.51.01,9.76.09-.4.56-.52,1.26-.33,1.9.65-1.48,1.29-2.97,1.94-4.45.63-1.44,1.14-2.99,1.92-4.37-.02.49-.83,1.17-1.19,1.54-.5.51-1.05.98-1.65,1.41Z"/>
              <path class="cls-2" d="M49.69,21.67c-9.37,1.5-19.23,1.23-28.63.24-1.58-.17-3.74-.68-5.21.3-.8.53-1.61,1.08-2.41,1.63-.77.53-1.47,1.14-2.08,1.84,1.43-2.61,2.98-5.15,4.66-7.61.46-.67.91-1.32,1.38-1.97-.02.12-.03.24-.02.36.08,1.06.82,1.99,1.73,2.55.91.55,1.97.81,3.02,1,8.9,1.79,18.47.9,27.55,1.66Z"/>
              <path class="cls-3" d="M2.33,49.9c-.39.92.16,2.03,1,2.59s1.87.7,2.87.82c3.8.46,7.64.82,11.46.45-4.33.19-9.09.63-13.42.82-.29.01-.59.03-.85.16-.54.28-.73.97-.72,1.58,0,.61.15,1.23.02,1.82-.62-2.73-.64-5.45-.36-8.23Z"/>
              <path class="cls-4" d="M99.67,49.23c-.73-4.04-2.1-8.23-3.94-12.23-1.65-3.59-3.78-7.2-6.26-10.32-2.24-2.82-5.85-4.58-8.94-6.34-1.35-.76-2.51-1.74-3.92-2.36C48.46,5.45,15.36,29.79,18.2,59.32c.47,4.96,2.05,9.79,4.61,14.11,7.04,11.98,19.92,19.61,34.01,20.95,5.22.49,10.53.26,15.62-.95,10.32-2.46,18.78-9,23.81-18.03,4.27-7.66,4.97-17.72,3.42-26.17ZM87.04,71.45c-3.78,6.8-10.13,11.71-17.89,13.55-3.82.91-7.82,1.08-11.73.7-10.59-.99-20.26-6.72-25.56-15.72-1.91-3.26-3.1-6.88-3.46-10.6-.11-1.15-.15-2.31-.12-3.47.01-.51.09-1.03.06-1.54-.01-.27-.09-.51-.17-.77-.22-.77-.17-1.65,0-2.42.18-.84.62-1.66,1.35-2.1.56-.35,1.24-.44,1.9-.51,1.55-.17,3.1-.23,4.66-.18-1.97-.31-3.94-.61-5.91-.92-.09-.01.65-2.36.74-2.56.32-.81.77-1.55,1.15-2.32.62-1.26,1.5-2.45,2.34-3.56,1.72-2.28,3.75-4.33,5.99-6.1,2.25-1.77,4.73-3.27,7.35-4.42,2.63-1.16,5.41-1.97,8.26-2.39,2.88-.42,5.82-.43,8.7,0,2.61.39,5.17,1.14,7.58,2.22,1.05.47,1.94,1.21,2.95,1.77,2.33,1.32,5.03,2.66,6.71,4.77,1.87,2.34,3.46,5.04,4.71,7.74,1.38,3,2.4,6.15,2.96,9.18.64,3.44.73,6.81-.06,10.23-4.01.22-8.04.27-12.05.16,3.66.4,7.32.8,10.98,1.2,1.16.13.54,1.16.3,1.89-.21.64-.31,1.27-.31,1.94,0,.6-.06,1.17-.25,1.75-.15.43-.34.84-.53,1.25-.1.21-.2.42-.31.63-.07.14-.33.46-.33.62Z"/>
              <path class="cls-16" d="M90.68,81.44c3.37-3.34,5.68-7.65,7.03-12.19,1.35-4.54,1.78-9.31,1.74-14.04,0-.68-.07-1.39-.32-2.02-.35-.89-1.02-1.22-1.92-1.45-1.36-.34-2.72-.67-4.08-1.01,3.22.13,6.72-.04,9.93-.19-.54.19-1.08.37-1.62.56-.14.05-.27.1-.38.19-.11.1-.16.25-.2.39-.21.77-.1,1.58-.03,2.37.11,1.27.08,2.56,0,3.83-.04.63-.09,1.26-.15,1.89-.13,1.39-.41,2.75-.69,4.12-.53,2.6-.86,5.24-1.57,7.8-.71,2.56-1.83,5.07-3.7,6.95.22.53.64.98,1.16,1.23-.65.04-1.33.09-1.89.43-.31.19-.57.46-.82.72-.89.94-1.77,1.89-2.67,2.81-.29.3-.61.5-.96.72-.78.48-1.31,1.31-1.94,1.95-2.9,2.93-6.73,4.78-10.66,6.04-.3.1-.59.19-.89.28-2.7.81-5.49,1.35-8.29,1.64-2.81.29-5.64.31-8.46.08-1.41-.12-2.81-.3-4.2-.55-.69-.12-1.39-.27-2.07-.42-2.2-.5-4.41-.86-6.56-1.56-6.31-2.04-11.84-5.87-16.94-10.02-.62-.5-1.23-1.01-1.84-1.52-.27-.22-.6-.46-.84-.71-.21-.21-.36-.46-.59-.65-.45-.38-1.01-.63-1.58-.79-.92-.24-1.88-.26-2.82-.39.13-.3.49-.4.81-.47.72-.14,1.45-.22,2.18-.25.36-.01.74.04,1.09,0,.29-.03.54-.05.85-.02,1.44.13,2.84.47,4.27.64.86.1,1.74.14,2.6.01-2.07.18-4.14.37-6.21.53.78,1.9,2.71,3.04,4.54,3.98.37.19.78.34,1.1.6.14.11.28.22.42.34.29.22.57.45.86.67.57.44,1.15.88,1.73,1.31,1.17.86,2.35,1.7,3.59,2.46,1.72,1.06,3.52,1.98,5.4,2.71,2.9,1.14,5.98,1.83,9.09,2.06,5.62.4,11.08,1.14,16.65.27.66-.1,1.32-.21,1.97-.35,4.4-.93,8.38-3.22,12.1-5.74,2.25-1.52,3.87-3.35,5.8-5.26Z"/>
              <path class="cls-16" d="M22.68,72.41c-.8-1.93-1.59-3.86-2.39-5.79-.44-1.08-.89-2.16-1.19-3.29-.26-.97-.4-1.97-.55-2.97-.14-.99-.29-1.97-.43-2.96.14.96.14,1.95.26,2.91.12.98.26,1.96.43,2.93.34,1.93.8,3.84,1.37,5.72.27.88.55,1.75.87,2.61.13.35.27.71.35,1.07.05.25.05.5.07.75.08.77.52,1.53.83,2.22.71-.04,1.42-.08,2.13-.12-.13,0-.51-.55-.59-.65-.2-.25-.37-.52-.53-.8-.3-.54-.4-1.09-.63-1.64Z"/>
              <path class="cls-16" d="M36.08,23.59c3.82.33,7.66.04,11.47-.25-.93-.2-1.87-.34-2.82-.44-.95-.09-1.9-.14-2.85-.16-.96-.02-1.92-.01-2.88,0-.96.01-1.92.03-2.87.03-.96,0-1.91,0-2.87-.05-.12,0-.24-.02-.35-.02-.05.15-.09.38-.02.53.09.2.32.16.5.16.58,0,1.15.05,1.73.1.32.03.64.05.95.09Z"/>
            </g>
            <g>
              <path class="cls-9" d="M95.07,60.41c.03,1.45-.05,2.87-.26,4.24-.47,3.61-1.66,6.92-3.37,9.87,0,0,0,.03-.03.05-7.37,12.66-24.61,18.69-39.36,14.85-9.21-2.37-16.95-8.79-21.69-16.98-.37-.61-.71-1.26-1.03-1.9-2.37-4.66-3.82-9.85-4.03-15.11-.11-2,0-3.98.29-5.98.05-.55.16-1.08.24-1.61.32-1.58.74-3.11,1.29-4.58,2.34-6.34,6.84-11.48,12.19-15.61,1.71-1.29,3.47-2.5,5.29-3.61,10.45-6.29,23.35-4.58,33.22,2.03,6.55,4.4,11.16,10.4,13.93,17.27.26.63.5,1.29.74,1.95.05.13.11.26.16.42.16.5.32,1,.47,1.53.21.68.39,1.4.55,2.11.08.26.13.53.18.79.08.26.13.55.18.82.05.29.11.58.18.87.05.39.13.82.21,1.24v.11l.16,1.03c0,.08,0,.13.03.18.05.45.11.9.16,1.34,0,.08.03.16.03.21.16,1.47.24,2.97.26,4.48Z"/>
              <path class="cls-13" d="M86.64,72.85c-1.12,1.52-2.32,2.98-3.6,4.36-.1.11-.2.22-.3.33.8-.85,1.39-2.11,1.96-3.13.61-1.1,1.17-2.22,1.66-3.37.48-1.11,1.03-2.3,1.28-3.49.17-.83-.13-1.64-.1-2.48.03-.97.32-1.82.49-2.76.1-.59.06-1.22.05-1.82-.02-1.31-.1-2.62-.26-3.93-.31-2.6-.89-5.18-1.79-7.64-.05-.15-.11-.3-.17-.44-2.97-7.69-9.42-14.27-17.45-16.14-5.92-1.37-12.24-.11-17.77,2.42-.68.29-1.37.63-2.03.97-2.66,1.4-5.16,3.03-7.58,4.82-2.37,1.74-4.55,3.79-7,5.42-1.13.74-2.5,1.32-3.84.92-1.29-.37-1.95-1.47-2.55-2.58-.18-.34-.34-.68-.5-1.05,2.34-6.34,6.84-11.48,12.19-15.61,1.71-1.29,3.47-2.5,5.29-3.61,10.45-6.29,23.35-4.58,33.22,2.03,2.29,1.54,4.42,3.33,6.32,5.33,1.52,1.61,2.89,3.35,4.1,5.2,3.65,5.58,6.25,13.04,6.73,19.69.14,1.92.09,3.96-.87,5.63-.38.66-.89,1.29-1.48,1.78-.19.15-.32.24-.47.45-1.65,2.32-2.89,4.89-4.5,7.25-.33.49-.68.97-1.03,1.45Z"/>
              <path class="cls-17" d="M89.46,60.33c.03,1.24-.05,2.42-.21,3.58-.39,3.05-1.4,5.84-2.82,8.32,0,.03-.03.05-.03.05-5.71,9.82-18.35,14.9-29.98,13.16-.03,0-.05-.03-.11-.03-1-.13-2-.34-2.97-.61-6.58-1.71-12.27-5.87-16.27-11.37-.71-.95-1.34-1.92-1.92-2.95-.32-.53-.61-1.05-.87-1.61-2-3.92-3.21-8.29-3.4-12.74-.08-1.66.03-3.34.24-5.03.08-.47.13-.92.24-1.37,1.32-7.16,5.79-12.74,11.29-17.01,1.45-1.11,2.92-2.13,4.45-3.05,2.29-1.4,4.69-2.32,7.16-2.82,7.06-1.47,14.61.39,20.74,4.53,5.5,3.71,9.35,8.77,11.69,14.56.21.55.42,1.08.61,1.66.05.11.08.21.13.34.13.42.26.87.39,1.29.11.37.24.76.29,1.13,0,.03.03.05.03.08.08.18.11.37.16.55.05.24.11.45.16.68.05.21.11.45.16.68.03.24.08.47.13.74.05.32.13.68.18,1.03v.11c.05.29.11.55.16.87v.16c.05.37.08.76.13,1.13,0,.05.03.11.03.18.05.61.11,1.24.16,1.87.03.63.05,1.26.05,1.87Z"/>
              <path class="cls-15" d="M89.41,58.46c-9.5,6.77-24.9,9.64-38.44,7.11-7.95-1.47-14.93-4.87-20.09-9.42-.08-1.66.03-3.34.24-5.03.08-.47.13-.92.24-1.37,1.32-7.16,5.79-12.74,11.29-17.01,1.45-1.11,2.92-2.13,4.45-3.05,8.77-5.32,19.61-3.87,27.9,1.71,5.5,3.71,9.35,8.77,11.69,14.56.21.55.42,1.08.61,1.66.05.11.08.21.13.34.13.42.26.87.39,1.29.18.58.34,1.18.47,1.76.05.24.11.45.16.68.05.21.11.45.16.68.03.24.08.47.13.74.05.32.13.68.18,1.03v.11c.05.29.11.55.16.87v.16c.05.37.08.76.13,1.13,0,.05.03.11.03.18.05.61.11,1.24.16,1.87Z"/>
              <path class="cls-11" d="M88.12,50.38c-.29-.66-.55-1.32-.74-2.11-.24-.97-.55-1.97-1.26-2.69-.68-.74-1.82-1.11-2.71-.66-.58.29-.95.87-1.29,1.42-1.63,2.69-2.97,5.5-4.58,8.19-5.71,9.53-13.4,17.9-22.48,24.32-.87.61-1.79,1.24-2.32,2.16-.37.61-.53,1.34-.34,2.03.24,1.03,1.5,1.55,2.37,1.87.5.18,1.03.34,1.55.5-1-.13-2-.34-2.97-.61-6.58-1.71-12.27-5.87-16.27-11.37.74.29,1.53.37,2.34.21,1.45-.32,2.61-1.4,3.69-2.42,7.03-6.84,13.66-14.27,18.32-22.93,1.42-2.66,2.69-5.48,3.13-8.45.45-3,.03-6.21-1.68-8.71-.4-.55-.87-1.24-1.5-1.55-.21-.11-.45-.16-.68-.29-.74-.37-1.39-.84-2.16-1.18-1.34-.61-2.79-1.05-4.26-1.24,7.06-1.47,14.61.39,20.74,4.53,5.5,3.71,9.35,8.77,11.69,14.56.21.55.42,1.08.61,1.66.05.11.08.21.13.34.13.42.26.87.39,1.29.11.37.24.76.29,1.13Z"/>
            </g>
          </g>
          <g>
            <path class="cls-13" d="M75.59,57.41c2.88,0,5.77-.28,8.62-.67-.24.03-2.79-3.94-3.02-4.25-1.05-1.39-2.15-2.74-3.29-4.07-5.2-6.06-11.33-10.9-17.83-15.48-.66-.47-1.4-.95-2.21-.9-.83.06-1.5.66-2.11,1.23-4.92,4.65-9.98,9.2-14.34,14.38-2.91,3.31-5.45,6.99-7.89,10.65,2.48-.05,5.36-.31,7.84-.36,0,5.86,0,11.72.01,17.58,0,.24-.36.15-.12.14,2.61-.09,5.46.13,8.07-.26.41-.06.82,0,1.22-.07.08-.83-.02-1.72-.01-2.57.01-.85.04-1.71.09-2.56.1-1.71.02-5.94.35-7.63,4.06-.2,8.13-.33,12.19-.5.54-.02,1.07-.03,1.61-.07.49-.04.97-.2,1.47-.13.09.83.23,4.27.2,5.11-.03.9-.07,1.8-.11,2.7-.07,1.76-.14,3.53-.19,5.29.18-.06.5.02.68.03,1.56.05,3.12.2,4.69.26.8.03,3.3.41,3.99-.04.35-.22.43-.83.44-1.21.06-4.99-.78-11.4-.35-16.62Z"/>
            <path class="cls-14" d="M77.26,56.21c2.88,0,5.77-.28,8.62-.67-.24.03-2.79-3.94-3.02-4.25-1.05-1.39-2.15-2.74-3.29-4.07-5.2-6.06-11.33-10.91-17.83-15.48-.66-.47-1.4-.95-2.21-.9-.83.06-1.51.66-2.11,1.23-4.92,4.65-9.98,9.2-14.34,14.38-2.91,3.31-5.45,6.99-7.89,10.65,2.48-.05,5.36-.31,7.84-.36,0,5.86,0,11.72.01,17.58,0,.24-.36.15-.12.14,2.61-.09,5.46.13,8.07-.26.4-.06.82,0,1.22-.07.08-.83-.02-1.72-.01-2.56,0-.85.04-1.71.09-2.56.1-1.71.02-5.94.35-7.63,4.06-.2,8.13-.33,12.19-.5.54-.02,1.07-.03,1.61-.07.49-.04.97-.2,1.47-.13.09.83.23,4.27.2,5.11-.03.9-.07,1.8-.11,2.7-.07,1.76-.14,3.53-.19,5.29.18-.06.5.02.68.03,1.56.05,3.12.2,4.69.26.8.03,3.3.41,3.99-.04.35-.22.43-.83.44-1.21.06-4.99-.78-11.4-.35-16.62Z"/>
          </g>
        </g>
      </g>
    </g>
  </g>
</svg>