<?xml version="1.0" encoding="UTF-8"?>
<svg xmlns="http://www.w3.org/2000/svg" xmlns:xlink="http://www.w3.org/1999/xlink" version="1.1" viewBox="0 0 113 113.6">
  <defs>
    <style>
      .cls-1 {
        fill: none;
      }

      .cls-2 {
        fill: url(#linear-gradient-2);
      }

      .cls-3 {
        fill: url(#linear-gradient);
      }

      .cls-4 {
        fill: #c7102e;
      }

      .cls-5 {
        fill: #fefefe;
      }

      .cls-6 {
        fill: #012169;
      }

      .cls-7 {
        clip-path: url(#clippath);
      }
    </style>
    <linearGradient id="linear-gradient" x1="56.5" y1="115" x2="56.5" y2=".7" gradientTransform="translate(0 113.9) scale(1 -1)" gradientUnits="userSpaceOnUse">
      <stop offset="0" stop-color="#995828"/>
      <stop offset=".2" stop-color="#944d24"/>
      <stop offset=".7" stop-color="#88321b"/>
      <stop offset="1" stop-color="#842918"/>
    </linearGradient>
    <linearGradient id="linear-gradient-2" x1="-8492.5" y1="7740.3" x2="-8492.5" y2="7645.1" gradientTransform="translate(9228.4 8394.8) scale(1.1 -1.1)" gradientUnits="userSpaceOnUse">
      <stop offset="0" stop-color="#ffe392"/>
      <stop offset="0" stop-color="#fbd480"/>
      <stop offset=".2" stop-color="#f6bd65"/>
      <stop offset=".4" stop-color="#f3ae54"/>
      <stop offset=".5" stop-color="#f2aa4f"/>
      <stop offset=".7" stop-color="#f2ab51"/>
      <stop offset=".8" stop-color="#f3b258"/>
      <stop offset=".9" stop-color="#f6bd66"/>
      <stop offset=".9" stop-color="#f9cd78"/>
      <stop offset="1" stop-color="#fee290"/>
      <stop offset="1" stop-color="#ffe594"/>
    </linearGradient>
    <clipPath id="clippath">
      <circle class="cls-1" cx="56.5" cy="55.8" r="48" transform="translate(-1.2 110.4) rotate(-88.1)"/>
    </clipPath>
  </defs>
  <!-- Generator: Adobe Illustrator 28.7.1, SVG Export Plug-In . SVG Version: 1.2.0 Build 142)  -->
  <g>
    <g id="Layer_2">
      <g id="BUTTON">
        <g>
          <g>
            <path class="cls-3" d="M56.5,113.6C25.3,113.6,0,88.1,0,56.8S25.3,0,56.5,0s56.5,25.5,56.5,56.8-25.3,56.8-56.5,56.8h0Z"/>
            <circle class="cls-2" cx="56.5" cy="56.5" r="52.1"/>
            <circle class="cls-1" cx="56.5" cy="53.4" r="45.7"/>
          </g>
          <g class="cls-7">
            <g id="KeQxo0">
              <g>
                <path class="cls-4" d="M158.7,44.6v20.5c-30.6,0-61.1,0-91.7,0-.4,0-.5,0-.5.5,0,13.3,0,26.6,0,40,0,.4,0,.5-.4.5-6.5,0-13,0-19.6,0-.4,0-.5-.1-.5-.5,0-13.3,0-26.6,0-39.9,0-.4-.1-.5-.5-.5-30.5,0-61,0-91.6,0v-20.5c30.5,0,61.1,0,91.6,0,.4,0,.5,0,.5-.5,0-13.5,0-27,0-40.5h20.5c0,13.5,0,27,0,40.5,0,.4,0,.5.5.5,30.6,0,61.1,0,91.7,0Z"/>
                <path class="cls-5" d="M-46,65c30.5,0,61,0,91.6,0,.4,0,.5,0,.5.5,0,13.3,0,26.6,0,39.9,0,.4,0,.5.5.5,6.5,0,13,0,19.6,0,.4,0,.4,0,.4-.5,0-13.3,0-26.6,0-40,0-.4.1-.5.5-.5,30.6,0,61.1,0,91.7,0v6.8c-.2,0-.3,0-.5,0-14.8,0-29.5,0-44.3,0s-.3,0-.4,0c.1.1.3.2.4.3,5.3,2.6,10.6,5.3,15.9,7.9,9.5,4.7,19,9.5,28.5,14.2.1,0,.2.2.4.1v3.8c-.1,0-.2,0-.3-.1-12.4-6.1-24.7-12.4-37.1-18.5-5.1-2.5-10.1-5-15.1-7.6-.3-.2-.6-.2-1-.2-4.7,0-9.5,0-14.2,0h-.4c.1.1.3.2.4.3,5.4,2.6,10.7,5.4,16.2,8,3.1,1.5,6.2,3.1,9.3,4.6,14.1,7,28.2,14.1,42.2,21.1,0,0,0,0,0,0-.1,0-.2,0-.3,0-68,0-135.9,0-203.9,0-.3,0-.4,0-.4-.4,0-3.7,0-7.5,0-11.2.2,0,.3,0,.4-.1,9.8-4.8,19.5-9.8,29.3-14.6,5.1-2.5,10.2-5.1,15.3-7.6,0,0,.2,0,.3-.2-.2,0-.3,0-.4,0-14.8,0-29.5,0-44.3,0-.2,0-.3,0-.5,0,0-2.3,0-4.5,0-6.8ZM73.4,74.8c0,0,0,.1,0,.2,0,10.2,0,20.4,0,30.6,0,.4.2.4.4.4,20.5,0,41,0,61.5,0,.1,0,.2,0,.5,0-20.9-10.4-41.5-20.8-62.4-31.1ZM-22.9,105.9c0,0,.2,0,.2,0,20.5,0,41.1,0,61.6,0,.3,0,.4,0,.4-.4,0-10.2,0-20.3,0-30.5,0,0,0-.2,0-.2-20.8,10.2-41.4,20.7-62.1,31.1ZM-45.8,105.8s0,0,0,0h.4c4.7,0,9.5,0,14.2,0,.3,0,.6,0,.9-.2,12-6,23.9-11.9,35.9-18,5.4-2.7,10.7-5.4,16.2-8,5.1-2.5,10.2-5.1,15.3-7.6,0,0,.2,0,.3-.2,0,0,0,0-.1,0-4.9,0-9.8,0-14.7,0-.2,0-.4,0-.6.2-5.7,2.8-11.4,5.7-17.1,8.5-15,7.5-29.9,15-44.9,22.4-1.9,1-3.8,1.9-5.7,2.9Z"/>
                <path class="cls-5" d="M46.1,3.6c0,13.5,0,27,0,40.5,0,.4,0,.5-.5.5-30.5,0-61.1,0-91.6,0,0-2.3,0-4.5,0-6.8.2,0,.3,0,.5,0,14.8,0,29.5,0,44.3,0h.4c0-.1-.2-.2-.3-.2-14.9-7.4-29.7-14.9-44.6-22.3-.1,0-.2-.2-.4-.1v-3.8c.2,0,.3.1.5.2C-28.1,20.2-10.8,28.8,6.5,37.5c.3.2.7.3,1.1.3,4.7,0,9.4,0,14.2,0h.5c-.2-.1-.3-.2-.4-.2-5.7-2.9-11.3-5.7-17-8.5C-11.4,20.8-27.7,12.8-43.9,4.6c-.7-.3-1.3-.6-2-1,7.6,0,15.3,0,22.9,0,0,0,.2.1.3.2C-13.3,8.5-3.9,13.2,5.5,17.9c11.1,5.6,22.2,11.1,33.3,16.7.1,0,.3.2.4.2,0-.2,0-.3,0-.5,0-10.1,0-20.1,0-30.2,0-.2,0-.3,0-.5,2.3,0,4.5,0,6.8,0Z"/>
                <path class="cls-5" d="M158.7,44.6c-30.6,0-61.1,0-91.7,0-.4,0-.5,0-.5-.5,0-13.5,0-27,0-40.5,2.3,0,4.5,0,6.8,0,0,.2,0,.3,0,.5,0,10.1,0,20.2,0,30.2s0,.3,0,.5c.2,0,.3-.2.4-.2,19.4-9.7,38.9-19.4,58.3-29.2,1.2-.6,2.4-1.2,3.6-1.8,2.5,0,5.1,0,7.6,0,0,.1-.2.2-.4.2-22.4,11.2-44.8,22.4-67.3,33.6-.1,0-.3.1-.4.3h.4c4.7,0,9.5,0,14.2,0,.3,0,.6,0,.8-.2,22.5-11.2,45-22.5,67.5-33.7.1,0,.3,0,.3-.2.2,0,0,.2,0,.3,0,3.7,0,7.5,0,11.2,0,0-.1,0-.2,0-.8.4-1.6.8-2.5,1.2-14.1,7-28.1,14.1-42.2,21.1-.1,0-.3,0-.3.2.2,0,.3,0,.5,0,14.7,0,29.5,0,44.2,0,.2,0,.3,0,.5,0v6.8Z"/>
                <path class="cls-6" d="M135.8,3.6c-1.2.6-2.4,1.2-3.6,1.8-19.4,9.7-38.9,19.4-58.3,29.2-.1,0-.3.1-.4.2,0-.2,0-.3,0-.5,0-10.1,0-20.2,0-30.2,0-.2,0-.3,0-.5,20.8,0,41.6,0,62.4,0Z"/>
                <path class="cls-6" d="M39.3,3.6c0,.2,0,.3,0,.5,0,10.1,0,20.1,0,30.2s0,.3,0,.5c-.2,0-.3,0-.4-.2-11.1-5.6-22.2-11.1-33.3-16.7C-3.9,13.2-13.3,8.5-22.7,3.8c0,0-.2-.1-.3-.2,20.8,0,41.5,0,62.3,0Z"/>
                <path class="cls-4" d="M158.7,3.6c0,.1-.2.1-.3.2-22.5,11.2-45,22.5-67.5,33.7-.3.1-.5.2-.8.2-4.7,0-9.5,0-14.2,0h-.4c.1-.2.3-.2.4-.3,22.4-11.2,44.8-22.4,67.3-33.6.1,0,.3,0,.4-.2h15.3Z"/>
                <path class="cls-6" d="M-46,15.1c.2,0,.2,0,.4.1C-30.7,22.7-15.9,30.1-1,37.5c.1,0,.2.1.3.2h-.4c-14.8,0-29.5,0-44.3,0-.2,0-.3,0-.5,0,0-7.5,0-15.1,0-22.6Z"/>
                <path class="cls-6" d="M158.7,37.8c-.2,0-.3,0-.5,0-14.7,0-29.5,0-44.2,0s-.3,0-.5,0c0-.2.2-.2.3-.2,14.1-7,28.1-14.1,42.2-21.1.8-.4,1.6-.8,2.5-1.2,0,0,.1-.1.2,0v22.6Z"/>
                <path class="cls-6" d="M-46,71.8c.2,0,.3,0,.5,0,14.8,0,29.5,0,44.3,0s.3,0,.4,0c0,.2-.2.2-.3.2-5.1,2.5-10.1,5.1-15.3,7.6-9.8,4.8-19.5,9.7-29.3,14.6-.1,0-.2.2-.4.1,0-7.5,0-15,0-22.6Z"/>
                <path class="cls-6" d="M158.7,94.4c-.2,0-.3,0-.4-.1-9.5-4.7-19-9.5-28.5-14.2-5.3-2.6-10.6-5.3-15.9-7.9-.1,0-.3-.1-.4-.3.1,0,.3,0,.4,0,14.8,0,29.5,0,44.3,0,.2,0,.3,0,.5,0v22.6Z"/>
                <path class="cls-4" d="M-45.9,3.6c.6.4,1.3.7,2,1C-27.7,12.8-11.4,20.8,4.8,29c5.7,2.8,11.3,5.7,17,8.5.1,0,.2.1.4.2h-.5c-4.7,0-9.4,0-14.2,0-.4,0-.7,0-1.1-.3C-10.8,28.8-28.1,20.2-45.4,11.5c-.2,0-.3-.2-.5-.2,0-2.5,0-4.9,0-7.4,0-.1,0-.2,0-.3Z"/>
                <path class="cls-4" d="M158.7,105.9c-14.1-7-28.2-14.1-42.2-21.1-3.1-1.5-6.2-3.1-9.3-4.6-5.4-2.6-10.8-5.4-16.2-8-.2,0-.3-.2-.4-.3h.4c4.7,0,9.5,0,14.2,0,.3,0,.6,0,1,.2,5,2.5,10.1,5.1,15.1,7.6,12.4,6.1,24.7,12.3,37.1,18.5.1,0,.2.1.3.1v7.7Z"/>
                <path class="cls-6" d="M73.4,74.8c20.8,10.2,41.5,20.7,62.4,31.1-.2,0-.3,0-.5,0-20.5,0-41,0-61.5,0-.3,0-.4,0-.4-.4,0-10.2,0-20.4,0-30.6,0,0,0,0,0-.2Z"/>
                <path class="cls-6" d="M-22.9,105.9c20.7-10.4,41.3-20.9,62.1-31.1,0,0,0,.2,0,.2,0,10.2,0,20.3,0,30.5,0,.3,0,.4-.4.4-20.5,0-41.1,0-61.6,0,0,0-.2,0-.2,0Z"/>
                <path class="cls-4" d="M-45.8,105.8c1.9-1,3.8-1.9,5.7-2.9,15-7.5,29.9-15,44.9-22.4,5.7-2.8,11.4-5.7,17.1-8.5.2-.1.4-.2.6-.2,4.9,0,9.8,0,14.7,0,0,0,0,0,.1,0,0,.1-.2.2-.3.2-5.1,2.5-10.2,5.1-15.3,7.6-5.4,2.6-10.8,5.3-16.2,8-11.9,6-23.9,12-35.9,18-.3.1-.6.2-.9.2-4.7,0-9.5,0-14.2,0h-.4s0,0,0,0Z"/>
              </g>
            </g>
          </g>
        </g>
      </g>
    </g>
  </g>
</svg>