<?xml version="1.0" encoding="UTF-8"?>
<svg xmlns="http://www.w3.org/2000/svg" xmlns:xlink="http://www.w3.org/1999/xlink" viewBox="0 0 856.19 281.83">
  <defs>
    <style>
      .cls-1 {
        fill: #f9df8c;
      }

      .cls-2 {
        fill: url(#_ÂÁ_Ï_ÌÌ_È_ËÂÌÚ_7);
      }

      .cls-3 {
        fill: #d9e0ea;
      }

      .cls-4 {
        isolation: isolate;
      }

      .cls-5 {
        fill: url(#_ÂÁ_Ï_ÌÌ_È_ËÂÌÚ_2);
        mix-blend-mode: screen;
      }

      .cls-6 {
        fill: url(#_ÂÁ_Ï_ÌÌ_È_ËÂÌÚ_17-2);
      }

      .cls-7 {
        fill: url(#_ÂÁ_Ï_ÌÌ_È_ËÂÌÚ_17-3);
      }

      .cls-8 {
        fill: url(#_ÂÁ_Ï_ÌÌ_È_ËÂÌÚ_12-2);
      }

      .cls-9 {
        fill: url(#_ÂÁ_Ï_ÌÌ_È_ËÂÌÚ_12);
      }

      .cls-10 {
        fill: url(#_ÂÁ_Ï_ÌÌ_È_ËÂÌÚ_17);
      }
    </style>
    <linearGradient id="_ÂÁ_Ï_ÌÌ_È_ËÂÌÚ_17" data-name="¡ÂÁ˚ÏˇÌÌ˚È „‡‰ËÂÌÚ 17" x1="492.36" y1="-153.2" x2="390.31" y2="310.66" gradientUnits="userSpaceOnUse">
      <stop offset="0" stop-color="#9eacb3"/>
      <stop offset="1" stop-color="#35404c"/>
    </linearGradient>
    <linearGradient id="_ÂÁ_Ï_ÌÌ_È_ËÂÌÚ_17-2" data-name="¡ÂÁ˚ÏˇÌÌ˚È „‡‰ËÂÌÚ 17" x1="462.3" y1="-172.4" x2="349.68" y2="852.08" xlink:href="#_ÂÁ_Ï_ÌÌ_È_ËÂÌÚ_17"/>
    <linearGradient id="_ÂÁ_Ï_ÌÌ_È_ËÂÌÚ_2" data-name="¡ÂÁ˚ÏˇÌÌ˚È „‡‰ËÂÌÚ 2" x1="774.74" y1="-455.2" x2="178.35" y2="592.46" gradientUnits="userSpaceOnUse">
      <stop offset="0" stop-color="#dae6e9"/>
      <stop offset="1" stop-color="#000"/>
    </linearGradient>
    <linearGradient id="_ÂÁ_Ï_ÌÌ_È_ËÂÌÚ_17-3" data-name="¡ÂÁ˚ÏˇÌÌ˚È „‡‰ËÂÌÚ 17" x1="428.2" y1="394.78" x2="428.2" y2="196.06" xlink:href="#_ÂÁ_Ï_ÌÌ_È_ËÂÌÚ_17"/>
    <linearGradient id="_ÂÁ_Ï_ÌÌ_È_ËÂÌÚ_7" data-name="¡ÂÁ˚ÏˇÌÌ˚È „‡‰ËÂÌÚ 7" x1="428.27" y1="48.25" x2="428.27" y2="141.27" gradientUnits="userSpaceOnUse">
      <stop offset="0" stop-color="#f6cb51"/>
      <stop offset="1" stop-color="#c26234"/>
    </linearGradient>
    <linearGradient id="_ÂÁ_Ï_ÌÌ_È_ËÂÌÚ_12" data-name="¡ÂÁ˚ÏˇÌÌ˚È „‡‰ËÂÌÚ 12" x1="428.27" y1="294.61" x2="428.27" y2="130.82" gradientUnits="userSpaceOnUse">
      <stop offset="0" stop-color="#f6cf5a"/>
      <stop offset="1" stop-color="#be6e35"/>
    </linearGradient>
    <linearGradient id="_ÂÁ_Ï_ÌÌ_È_ËÂÌÚ_12-2" data-name="¡ÂÁ˚ÏˇÌÌ˚È „‡‰ËÂÌÚ 12" x1="427.5" y1="240.48" x2="427.5" y2="93.25" xlink:href="#_ÂÁ_Ï_ÌÌ_È_ËÂÌÚ_12"/>
  </defs>
  <g class="cls-4">
    <g id="Layer_2">
      <g id="Layer_1-2" data-name="Layer_1">
        <g>
          <g>
            <path class="cls-10" d="M426.33,281.83c-8.48,0-16.96-.01-25.45-.04-50.7-.17-101.51-.73-151.02-1.64h-.29c-11.13,0-23.23-.15-36.71-.46-14.19-.32-28.4-.76-42.61-1.21-13.11-.41-26.22-.82-39.32-1.13l-3.76-.06c-11.92-.18-26.74-.4-40.22-9.88-6.87-4.82-12.52-10.77-17.5-16.02l-3.39-3.59c-4.96-5.26-9.76-10.68-14.22-16.04l-2.45-2.94c-2.68-3.23-5.36-6.46-8.16-9.6-2.63-3.04-4.46-5.96-5.93-8.43l-.71-1.16c-1.83-2.98-4.33-7.07-5.45-12.48-.05-.26-.09-.52-.13-.77-1.44-1.06-2.81-2.25-4.09-3.54-2.49-2.57-4.45-5.21-5.98-8.03l-.66-1.23c-3.44-6.44-7-13.1-10.22-20.05-.47-1.03-.96-2.04-1.46-3.07-2.64-5.42-5.91-12.15-6.49-19.91-.06-.7-.09-1.35-.09-2.06-.12-5.9,1.12-12.01,3.69-18.18,2.49-6.09,5.93-11.56,8.96-16.38.8-1.28,1.59-2.53,2.34-3.76,6.67-10.97,14.12-21.18,19.85-28.84,7.13-9.55,14.89-19.2,23.07-28.64,1.45-1.7,2.94-3.42,4.43-5.07,5.32-6.12,11.63-12.93,20.35-19.74C101.84,2.87,126.07,2.52,145.54,2.24l1.86-.03c16.94-.28,33.61-.47,50.3-.65l20.15-.24c10.05-.14,20.1-.25,30.19-.36l30.17-.29,30.19-.25,30.09-.18,30.12-.14,30.06-.07c10.01-.03,20.03-.03,30.08-.03s20.03,0,30.04.03c9.93,0,19.94.03,29.96.07l29.92.11,29.97.17c10,.07,19.97.14,29.94.25l29.79.25c10.03.11,19.98.22,29.96.36,8.99.1,18.04.23,27.08.35l32.47.46c9.95.15,19.89.32,29.8.5,9.93.19,21.47.81,32.95,5.93,1.49.65,3.1,1.46,4.7,2.35,12.22,6.74,21.51,16.33,28.23,23.93l1.21,1.36c1.31,1.47,2.63,2.95,3.9,4.46,3.55,3.99,6.48,7.72,8.98,11.47,2.56,3.85,4.74,7.36,6.71,10.75l.38.61c1.07,1.72,2.7,4.33,3.62,7.84.03.13.07.25.1.38,4.03,1.65,8.69,4.87,12.82,11.05,1.36,2.05,2.41,4,3.34,5.71.4.74.79,1.48,1.21,2.21l1.46,2.55c2,3.52,3.89,6.84,5.92,10,2.89,4.55,4.81,9.27,6.22,12.77.32.73,1.81,4.27,1.81,4.27,1.44,3.28,3.06,7,4.05,11.45,3.59,16.01-4.14,29.89-8.75,38.18l-.77,1.4c-.9,1.65-1.82,3.31-2.74,4.93-.53,1.01-1.1,1.98-1.67,2.96-3.99,7.11-8.09,13.67-12.39,19.82-2.45,3.53-5.1,7.04-7.83,10.4l-1.01,1.23c-1.08,1.34-2.42,3-4.13,4.67-1.42,1.4-2.95,2.63-4.58,3.69l-.24.65c-2.09,5.55-5.14,10.7-9.06,15.29-1.88,2.19-3.7,4.42-5.54,6.66-6.9,8.43-14.72,17.99-25.01,25.04-8.76,6.01-17.2,7.57-25.09,8.66-13.84,1.91-27.67,2.28-41.05,2.64l-3.58.09c-49.78,1.42-100.34,2.46-150.28,3.1-24.38.29-48.71.5-73.07.64-6.07,0-12.05.03-18.04.07-11.41.02-22.76.04-34.11.04Z"/>
            <path class="cls-6" d="M832.89,162.27c-1.17,2.14-2.34,4.32-3.54,6.42-.47.86-.97,1.71-1.44,2.57-3.62,6.42-7.47,12.69-11.72,18.76-2.26,3.27-4.67,6.42-7.16,9.5-1.28,1.52-2.49,3.15-3.93,4.59-1.17,1.17-2.53,2.1-4.05,2.8-.62.27-1.28.66-1.95.86-.82.23-1.79.08-2.65.12-1.99.04-3.97.23-5.96.51-.97.16-1.95.35-2.92.55-.31.08-2.69.82-2.8.7,1.36,1.48,3.08,2.61,4.94,3.31.93.35,1.91.62,2.92.74.43.04.86.04,1.28,0,.93-.12,1.75.19,2.69.39-1.48,3.89-3.66,7.51-6.35,10.67-8.49,9.93-16.58,21.49-27.49,28.96-5.88,4.05-11.48,5.14-18.45,6.11-14.17,1.95-28.85,2.18-42.94,2.57-49.99,1.44-100.01,2.45-150.04,3.11-21.49.23-42.94.47-64.43.58-2.84,0-5.68.04-8.53.04-6,0-12.03.04-18.03.08-19.82.04-39.59.08-59.41,0-50.26-.19-100.52-.7-150.82-1.64-12.3,0-24.6-.19-36.91-.47-4.48-.08-8.99-.19-13.47-.35-22.85-.58-45.67-1.48-68.44-1.99-12.42-.31-24.72.39-35.43-7.12-6.27-4.4-11.64-10.36-16.86-15.81-.51-.55-1.05-1.13-1.6-1.71-4.67-4.94-9.23-10.08-13.63-15.34-3.62-4.36-7.16-8.72-10.94-12.96-1.6-1.83-2.92-3.89-4.17-6-1.67-2.8-3.62-5.61-4.32-8.88-.08-.55-.12-1.21.23-1.64.31-.39.82-.51,1.28-.55,8.88-1.6,18.14-.74,26.86-2.49,1.79-.31,3.54-.78,5.26-1.36-8.1-.04-16.16-.08-24.22-.16-2.06,0-4.09-.04-6.11-.23-.78-.12-1.52-.23-2.3-.39-3.58-.82-6.85-2.76-9.46-5.33-1.28-1.32-2.41-2.84-3.31-4.48-3.58-6.7-7.24-13.43-10.43-20.36-2.49-5.45-6.19-11.76-6.58-17.79-.04-.31-.04-.62-.04-.93-.12-4.13.9-8.14,2.49-11.99,2.65-6.42,6.85-12.46,10.24-18.06,5.8-9.54,12.3-18.65,19-27.56,7.12-9.54,14.6-18.76,22.39-27.8,1.44-1.67,2.8-3.27,4.2-4.79,5.68-6.54,11.06-12.19,18.38-17.95,15.57-12.15,36.87-12.03,55.36-12.34,23.75-.39,46.95-.58,70.39-.86,10.08-.16,20.13-.27,30.17-.39,10.08-.08,20.09-.16,30.17-.27,10.04-.08,20.05-.16,30.13-.23,10.04-.08,20.05-.12,30.09-.19,10.04-.04,20.01-.12,30.05-.16,10.04,0,20.05,0,30.05-.04,10.01-.04,20.01-.04,30.02-.04,5.41,0,10.78,0,16.2.04,4.59-.04,9.23,0,13.82,0,9.97,0,19.93.04,29.94.04,9.97.04,19.97.08,29.94.12,9.97.08,19.93.12,29.9.19s19.93.12,29.9.23c9.93.08,19.89.19,29.82.27,9.97.08,19.89.19,29.86.35,9.93.08,19.85.23,29.78.39,2.06.04,4.17.04,6.23.08,7.86.12,15.69.23,23.51.35,9.93.12,19.85.31,29.74.51,9.46.16,18.38.78,26.9,4.55,1.13.51,2.3,1.09,3.43,1.71,9.34,5.18,17.13,12.69,24.18,20.67,1.64,1.87,3.31,3.7,4.91,5.61,2.84,3.19,5.57,6.5,7.9,10.01,2.18,3.27,4.24,6.58,6.19,9.93.86,1.44,1.99,3,2.41,4.63.08.19.12.43.12.66-.04.78-.66,1.09-1.32,1.36-1.75.7-4.67,2.45-3.11,4.79.51.78,1.44,1.09,2.3,1.36,1.99.62,3.97,1.25,5.96,1.83.74.23,1.44.39,2.18.39.58-.04,1.09-.12,1.67,0,3.11.55,5.57,3.19,7.24,5.72,1.52,2.26,2.69,4.71,4.05,7.09,2.53,4.4,4.98,8.84,7.75,13.16,2.02,3.19,3.54,6.81,4.94,10.36.35.82.7,1.6,1.01,2.37,1.48,3.5,3.19,6.97,4.01,10.67,2.18,9.69-2.61,19.08-7.16,27.25Z"/>
            <path class="cls-5" d="M674.87,19.2c-19.7-2.61-39.71,4.44-56.26,15.46-16.55,11.02-30.17,25.81-43.64,40.41-19.97,21.68-39.94,43.37-59.88,65.05-11.21,12.19-22.42,24.37-33.64,36.56-5.61,6.11-11.21,12.19-16.82,18.3-2.8,3.04-5.57,6.15-8.41,9.11-9.07,9.46-16.04,22.27-21.88,33.91-2.49,4.94-4.79,10.36-3.93,15.81.9,5.45,4.98,8.37,9.93,9.77,2.69.74,5.26.78,8.02.9,12.85.47,25.69,1.25,38.54,1.64-2.84,0-5.68.04-8.53.04-6,0-12.03.04-18.03.08-19.82.04-39.59.08-59.41,0-50.26-.19-100.52-.7-150.82-1.64-12.3,0-24.6-.19-36.91-.47-4.48-.08-8.99-.19-13.47-.35-1.21-.47-2.41-.97-3.62-1.52,20.59.51,41.27-3.89,60.07-12.34,11.68-5.22,22.66-12.03,32.55-20.17,11.02-9.07,19.08-20.21,28.54-30.68,13.78-15.22,27.56-30.48,41.34-45.71,27.56-30.48,55.13-60.97,82.69-91.45,6.15-6.85,12.61-14.17,14.25-23.2,1.67-9.07-3.66-20.09-12.85-20.94.74-.74,1.44-1.44,2.18-2.14,4.59-.04,9.23,0,13.82,0,9.97,0,19.93.04,29.94.04,9.97.04,19.97.08,29.94.12,9.97.08,19.93.12,29.9.19s19.93.12,29.9.23c9.93.08,19.89.19,29.82.27,9.97.08,19.89.19,29.86.35,9.93.08,19.85.23,29.78.39,2.06.04,4.17.04,6.23.08.27.62.51,1.28.78,1.91Z"/>
            <path class="cls-3" d="M800.11,128.08c1.47,4.69,4.03,9.04,7.43,12.59.6.63,1.27,1.33,1.27,2.21,0,.51-.23.98-.46,1.43-2.26,4.49-4.52,8.98-6.78,13.47-1.15,2.28-2.29,4.56-3.44,6.83-.5,1-1.02,1.96-1.37,3.02-.71,2.18-2.35,3.94-3.75,5.74-2.69,3.43-5.43,7.1-8.49,10.2-1.23,1.24-2.66,2-3.72,3.44-3.12,4.26-6.2,8.63-8.91,13.16-1.02,1.71-1.12,3.44-1.65,5.29-.28.98-.77,1.85-1.4,2.66-3.21,4.11-7.71,7.14-11.41,10.78-3.28,3.22-6.15,6.9-9.84,9.65-9.35,6.96-21.67,4.78-33.26,6.05-23.13,2.54-46.47.23-69.73-.55-33.21-1.12-63.75,3.76-96.97,3.28-16.09-.23-32.18-.47-48.26-.7,1.52,2.88,3.05,5.75,4.57,8.63-15.36-8.31-33.59-8.94-51.05-9.17-20.83-.28-41.66-.28-62.49-.28-3.57,0-7.31.04-10.44,1.76-3.13,1.72-5.31,5.71-3.79,8.94-1.43-6.81-10.31-8.37-17.27-8.45-63.55-.74-127.1-1.49-190.65-2.23-7.45-.09-14.91-.18-22.35-.58-7.06-.38-14.11-1.04-21.09-2.23-3.47-.6-6.91-1.33-10.32-2.22-1.7-.45-3.4-.94-5.08-1.47-2.06-.65-3.51-1.61-5.31-2.86-1.07-.75-2.35-1.55-3.03-2.69-2.97-5.01-6.61-9.74-10.28-14.29-2.67-3.32-5.49-6.51-8.37-9.65-1.46-1.6-2.94-3.18-4.43-4.76-3.39-3.6-5.68-7.81-8.12-12.14-8.44-14.93-15.3-30.69-22.06-46.46,17.89,22.61,38.47,44.12,56.35,66.73,4.79,6.05,9.79,12.28,16.65,15.79,7.02,3.59,15.19,3.94,23.07,4.2,190.41,6.3,381.07,4.86,571.36-4.32,10.53-.51,21.48-1.16,30.69-6.29,7.51-4.19,13.17-11.01,18.33-17.9,14.6-19.47,26.51-44.15,35.84-66.63Z"/>
            <path class="cls-3" d="M587.64,43.46c-1.58,2.16-3.3,4.33-5.64,5.63-3.26,1.81-7.22,1.67-10.92,1.23-2.49-.29-4.96-.69-7.41-1.2,4.22-1.51,8.6-2.55,13.05-3.09,1.12-.14,2.28-.25,3.28-.78.96-.51,1.68-1.36,2.39-2.19,1.93-2.25,3.93-4.44,5.99-6.58,2.06-2.14,4.18-4.21,6.35-6.23.6-.56,1.21-1.12,1.83-1.67.32-.28.63-.57.95-.85.23-.2.51-.55.8-.65-1.21,2.22-2.66,4.35-4.02,6.5-1.36,2.16-2.75,4.3-4.19,6.4-.8,1.17-1.62,2.34-2.46,3.48Z"/>
            <path class="cls-3" d="M70.77,95.68c.39.12.8.24,1.12.5.74.6.77,1.7.74,2.65-.06,1.78-.11,3.56-.17,5.34,2.28-3.89,4.49-7.82,6.64-11.78-3.53-1.92-7.77-1.9-11.79-1.82-1.77.03-3.54.07-5.31.1-.9.02-1.81.03-2.71.05-.41,0-.83.02-1.24.02-.22,0-1-.11-1.17.05-.83.79,2.72,1.62,3.03,1.72,1.7.5,3.4,1,5.11,1.49,1.92.56,3.84,1.12,5.76,1.68Z"/>
            <path class="cls-3" d="M93.49,181.1c-1.57-3.13-3.19-6.46-2.91-9.96.05-.58.16-1.19.51-1.65.55-.73,1.54-.94,2.44-1.1,12.9-2.29,25.87-4.13,38.89-5.52-2.6-.98-5.34-.96-8.12-.83-8.81.42-17.63.38-26.43-.13-5.06-.29-10.24-.72-15.1.72,2.06,3.66,3.29,7.73,4.96,11.59,1.67,3.86,3.92,7.65,7.43,9.97-.29-1.21-1.1-1.98-1.66-3.09Z"/>
            <path class="cls-3" d="M770.96,129.46c2.97.35,5.97.91,8.64,2.25,2.67,1.35,5.02,3.57,5.95,6.41.91,2.74.44,5.72-.03,8.57,2.15-2.39,3.76-5.27,4.67-8.36.16-.55.3-1.14.2-1.71-.08-.45-.32-.86-.56-1.26-1.39-2.36-2.82-4.69-4.29-6.99-.39-.62-.8-1.24-1.37-1.7-.87-.69-2.02-.91-3.12-1.07-.33-.05-.67-.09-1-.13-3.71-.46-7.45-.52-11.18-.4-.69.02-1.3-.01-1.97-.14-.71-.14-1.41.04-2.11.16-1.84.3-3.68.55-5.54.73-1.85.19-3.71.32-5.57.4-.93.04-1.86.06-2.79.07-.47,0-.93,0-1.4,0-.43,0-.92.06-1.34-.01,1.5.27,2.99.55,4.49.84,1.84.35,3.69.72,5.53,1.1.92.19,1.84.38,2.76.57.33.07.62.11.95.06.53-.09,1.02-.04,1.56,0,2.23.14,4.47.27,6.69.51.28.03.56.06.83.09Z"/>
            <path class="cls-7" d="M806.52,136.73c-2.74-6.58-5.09-11.31-7.86-15.9-3.91-6.55-8.32-13.23-13.09-19.89-11.85-16.51-25.22-38.49-43.4-48.52-.28-.18-.61-.32-.89-.43-3.1-1.39-8-1.74-14.44-1.85-9.93-.18-19.81-.36-29.7-.5-9.89-.14-19.81-.32-29.7-.43-9.92-.14-19.81-.28-29.74-.39-2.87-.03-5.73-.08-8.6-.12-6.71-.08-13.44-.01-20.14-.42-2.97-.18-5.91.22-8.88,0-3.65-.28-7.33-.58-10.91-1.37,3.35-7.12,6.69-14.25,10.04-21.37-3.67,3.94-7.08,8.12-10.21,12.5-1.52,2.12-2.99,4.38-4.95,6.12-1.46,1.29-2.99,2.96-4.84,3.63-1.68.62-3.52.65-5.31.68-7.47.12-14.99.5-22.41-.09-13.58-1.07-27.35-.54-40.97-.6-37.24-.18-74.48-.3-111.72-.17-10.03.04-20.03.04-30.02.07-19.99.07-40.02.21-60.05.32-10.03.07-20.06.18-30.06.25-10.03.11-20.06.18-30.1.28-28.03,0-56.1.68-84.13,1.07-14.41.21-40.09-3.91-52.4,5.69-6.62,5.19-11.17,10.46-18.11,18.5-1.43,1.65-2.81,3.35-4.26,4.99-.81.91-1.83,1.63-2.53,2.64-.99,1.43-1.68,2.92-2.95,4.16-1.2,1.18-2.65,2.11-4.22,2.7-2.39.89-4.99,1.02-7.54,1.13-3.48.15-6.95.31-10.43.46-2.76.12-5.63.27-8.07,1.57,7.36-.5,14.83.63,21.72,3.29.26.1.56.23.65.5.11.28-.05.59-.2.85-1.03,1.71-2.22,3.18-3.68,4.51-1.37,1.24-2.41,3.2-3.49,4.69-1.43,1.97-2.86,3.95-4.25,5.95-3.11,4.44-6.12,8.95-8.93,13.59-.89,1.46-1.81,2.95-2.77,4.48-1.49,2.35-3.56,5.62-4.7,7.9.39.85.82,1.74,1.17,2.49.68,1.32,1.28,2.63,1.89,3.88,4.34,9.46,9.5,18.85,15.3,27.89,5.23,8.15,10.85,16.04,16.68,23.51,5.94,7.54,12.27,14.87,18.89,21.77l1.96,2.03c4.94,5.23,8.68,10.46,16.33,10.67,43.22,1.21,86.48,3.13,129.7,3.13h.6c34.32.64,68.64,1.09,102.96,1.36,3.36.03,6.8-.24,10.2-.23,3.52,0,7.04,0,10.56,0,.85,0,1.85.07,2.33.77.38.55.29,1.29.19,1.95-1.27,8.24-2.54,16.47-3.81,24.71,3.51-8.41,7.01-16.81,10.52-25.22.24-.59.51-1.2,1-1.6.56-.46,1.33-.56,2.05-.64,3.54-.35,7.12-.29,10.65.16,1.53.2,3.04.65,4.57.5,1.69-.17,3.4-.12,5.1-.11,7.51.02,15.03.02,22.54.02h1.12c18.07,0,36.17-.19,54.21-.21,4.09,0,8.09,1.54,11.46,3.8,4.07,2.73,7.34,6.48,10.4,10.3-1.46-4.4-2.65-8.89-3.57-13.43,4.15-.4,8.3-.8,12.46-1.2,3.34-.32,6.52.31,9.89.28,8.44-.08,16.88-.28,25.32-.28,49.7-.64,100.03-1.67,149.55-3.06l3.84-.11c11.24-.32,29.7,1.99,40.09-3.06,1.57-.75,2.77-2.06,3.95-3.34,8.93-9.68,17.68-19.78,25.86-30.09,5.05-6.37,9.82-12.84,14.16-19.21,5.69-8.36,10.64-17.18,16.54-27.82.64-1.17,2.31-4.2,3.24-6.33-.14-.32-1.25-2.81-1.64-3.74ZM773.65,164.62c-4.09,6.05-8.61,12.13-13.38,18.14-7.36,9.32-15.72,19.03-24.83,28.92-1.74.5-5.37,1.1-12.66,1.1-2.81,0-5.62-.07-8.29-.14-2.77-.07-5.37-.14-7.79-.14-1,0-1.96,0-2.88.04l-3.84.11c-49.41,1.39-99.64,2.42-149.27,3.06-39.7.5-80.04.75-119.95.75-9.89,0-19.78,0-29.67-.04-49.66-.18-100.14-.71-150.01-1.64h-.75c-31.38,0-63.21-1.03-94.02-2.03-11.49-.36-22.94-.75-34.4-1.07-.78-.71-1.96-1.99-2.85-2.95-.68-.75-1.35-1.49-2.06-2.21l-1.96-2.06c-6.23-6.51-12.2-13.38-17.75-20.49-1.68-2.13-3.7-4.07-5.14-6.33-1.75-2.76-3.5-5.52-5.25-8.28-.41-.64-.83-1.39-.61-2.11.31-1.02,1.6-1.28,2.66-1.36,15.76-1.18,31.51-2.37,47.27-3.55-15.16-1.47-30.31-2.94-45.47-4.41-3.2-.31-6.45-.63-9.43-1.85-2.09-.86-4.06-2.22-5.38-4.08-.58-.81-1.02-1.68-1.59-2.49-.84-1.17-1.47-2.46-2.14-3.73-.83-1.58-1.64-3.17-2.43-4.77-.15-.3-1.56-2.64-1.4-2.89.89-1.39,1.74-2.74,2.53-4.06,5.19-8.54,11.42-17.11,16.29-23.62,6.3-8.43,13.09-16.83,20.17-25.01,6.47-7.51,10.35-11.99,15.62-16.11.57-.43,4.02-2.63,17.15-2.63,4.09,0,8.29.21,12.34.39,3.88.18,7.51.32,10.89.32h1.32c8.43-.11,16.86-.25,25.33-.39,19.21-.32,39.06-.68,58.55-.68,10.21-.11,20.21-.18,30.24-.28,10.03-.07,20.03-.18,30.06-.25,19.99-.11,39.98-.25,59.98-.32,10-.04,19.99-.04,29.95-.07,10.25-.04,20.53-.04,30.77-.04,57.27,0,115.58.28,178.19.89,9.93.11,19.81.21,29.74.36,9.89.11,19.81.25,29.7.39,9.89.11,19.78.28,29.67.43,9.89.14,19.78.32,29.67.5,4.77.07,6.87.28,7.76.46,11.56,6.72,22.06,21.77,31.3,35.04,1.89,2.7,3.74,5.37,5.51,7.86,1.76,2.46,4.72,5.05,4.39,8.4-10.12,4.66-21.31,7.01-32.45,6.8,12.06.15,24.12.99,36.08,2.52.84.11,1.7.22,2.44.62,1.82.97,2.37,3.14,3.51,4.71.52.72,1.27,1.12,1.73,1.87.26.41,1.85,3.22,1.66,3.57-5.27,9.53-9.82,17.5-14.8,24.83Z"/>
            <path class="cls-3" d="M797.23,214.5c-.05.08-.1.16-.15.24-2.25,3.36-4.18,6.95-6.82,10.04-8.5,9.89-16.58,21.49-27.5,28.96-5.87,4.02-11.45,5.12-18.43,6.08-14.19,1.96-28.85,2.21-42.94,2.6-50.02,1.42-100.03,2.45-150.05,3.09-24.33.28-48.63.5-72.96.64-6.01,0-12.02.04-18.04.07-19.81.04-39.59.07-59.41,0-50.26-.18-100.53-.71-150.79-1.64-12.31,0-24.62-.18-36.92-.46-27.32-.6-54.64-1.71-81.93-2.35-12.42-.28-24.72.39-35.4-7.11-6.3-4.41-11.67-10.35-16.86-15.79-.53-.57-1.07-1.14-1.6-1.71-4.7-4.98-9.25-10.1-13.62-15.37-3.63-4.34-7.19-8.72-10.96-12.95-1.6-1.85-2.92-3.91-4.16-6.01-1.67-2.81-3.63-5.59-4.3-8.86-.11-.57-.14-1.21.21-1.64.32-.39.82-.5,1.28-.57,8.89-1.57,18.14-.71,26.89-2.45,1.53-.07,3.09-.14,4.66-.25-6.9,2.31-14.02,3.91-21.24,4.8-1.64.18-3.45.43-4.59,1.6-2.13,2.24-1,5.37.25,7.58,1.07,1.92,2.24,3.77,3.49,5.55,2.49,3.63,5.23,7.04,8.15,10.28,4.63,5.16,9.61,9.96,14.62,14.76,3.52,3.38,7.04,6.76,10.6,10.14,2.45,2.38,4.91,4.73,7.79,6.58,4.84,3.13,10.53,4.66,16.08,6.08,2.74.71,5.51,1.35,8.29,1.89,1,.18,1.96.43,2.99.39,1.03-.07,2.06.11,3.13.21,2.42.25,4.87.46,7.33.57,4.91.25,9.85.25,14.76-.04,3.95-.21,7.75-.39,11.49-1.6,1.85-.6,3.74-.18,5.58.11,4.98.68,9.96,1.35,14.94,2.03,2.95,0,5.83,1.21,8.79.96.85-.07,1.71-.32,2.56-.32.57-.04,1.14.04,1.71.11,3.34.5,6.69,1.32,10.07,1.78,4.27.6,9.14,1.17,13.41.14.32-.07.6-.21.96-.32,1-.32,2.17-.11,3.2-.11,6.26.14,12.52.28,18.82.39,12.52.28,25.08.53,37.64.78,12.56.28,25.15.53,37.71.78,6.26.14,12.52.36,18.78.39.85,0,1.57-.14,2.38-.39,2.03-.71,4.34-.64,6.47-.82,2.49-.18,4.98-.36,7.51-.5,10-.64,19.99-1,30.02-1.14,10.03-.18,20.06-.18,30.09-.04,10,.11,20.03.36,30.06.57,2.21.07,4.41.11,6.62.18,6.12.14,12.2.28,18.32.46,1.71.04,3.49-.07,5.16.36,1.64.46,2.99.75,4.73.68,5.02-.14,10.07-.32,15.12-.46,10.07-.28,20.17-.57,30.24-.82,10.07-.25,20.17-.46,30.24-.64,2.78-.07,5.55-.11,8.32-.18,58.52-1.03,115.26-3.63,173.78-3.98,5.76-.04,11.67-.11,16.97-2.35,5.16-2.17,9.6-6.9,9.82-12.38.11,1.39,1.71,2.49,3.2,2.38,1.67-.11,3.1-1.21,4.41-2.24,6.81-5.34,13.68-10.91,18.93-17.86.96-1.27,1.83-2.59,2.81-3.83.36-.46.55-.89.53-1.49-.13-3.37-2.82-6.61-4.88-9.06-.3-.35-.59-.7-.89-1.04,4.04-.49,8.22.31,11.8,2.24.46.25.94.56,1.06,1.07.09.41-.09.82-.32,1.19Z"/>
            <path class="cls-3" d="M832.91,162.27c-1.17,2.13-2.35,4.3-3.56,6.4-.46.89-.96,1.74-1.46,2.6-3.59,6.4-7.47,12.7-11.7,18.75-2.28,3.27-4.66,6.44-7.15,9.5-2.35,2.81-4.3,5.73-7.79,7.29-.6.28-1.21.5-1.81.68,11.56-14.73,23.05-29.77,29.99-47.17,2.49-6.23,4.38-12.7,7.61-18.6.53-.96,1.1-1.99,1.07-3.1-.04-.89-.46-1.71-.85-2.49-3.27-6.19-7.15-12.95-13.77-15.19-1.21-.43-2.74-1.21-2.35-2.38.21-.6.85-.89,1.35-1.28,2.24-1.78,1.17-5.34-.11-7.93-2.79-5.65-5.51-11.34-8.33-16.97-.6-1.19-1.77-1.41-2.94-1.87-3.21-1.25-6.23-3-8.91-5.17-1.29-1.04-2.5-2.18-3.61-3.4,4.67.59,9.28,1.68,13.72,3.24,1.21.43,2.5.98,3.39,1.95.45.49.62.97.81,1.59.2.65.69,1.1,1.1,1.64,1.88,2.52,3.17,5.39,4.75,8.1,2.53,4.41,4.98,8.86,7.76,13.16,2.03,3.2,3.52,6.83,4.94,10.35.36.82.68,1.6,1,2.38,1.49,3.52,3.2,6.97,4.02,10.67,2.17,9.68-2.6,19.07-7.15,27.25Z"/>
            <path class="cls-3" d="M803,77.5c-.39.46-1,.71-1.6.85-5.8-8.75-11.63-17.47-17.43-26.22-2.95-4.41-5.09-8.36-9.68-10.89-3.66-1.99-6.83-4.55-10.89-5.76-1.74-.53-3.7-1-4.77-2.45-.6-.82-.82-1.89-1.25-2.81-2.06-4.38-7.01-4.16-10.85-5.73-1.25-.53-2.24-.75-3.63-.85-3.77-.21-7.54-.39-11.31-.6-7.54-.43-15.05-.85-22.59-1.28-13.2-.75-26.4-1.49-39.59-2.24-7.26-.39-14.55-.82-21.84-.75-7.19.07-14.34.6-21.52.32-2.23-.08-4.55-.07-6.68-.76-2.1-.69-4.34-.39-6.53-.33-5.37.13-10.74.25-16.11.38-15.04.35-30.12,1.06-45.16,1.06-2.82.07-5.76.16-8.27,1.46-2.59,1.34-3.65,3.54-3.85,6.3-.03.37.02.86-.24,1.17-.46.55-1.08.37-1.68.13-2.09-.83-3.91-2.86-5.42-4.44-1.11-1.16-2.17-2.38-3.25-3.57-.7-.78-.99-1.37-2.01-1.39-.9-.02-1.94.31-2.84.43-3.64.5-7.31.82-10.99.96-3.65.13-7.32.08-10.96-.16-1.67-.11-3.47-.11-5.1-.57-1.04-.29-1.93-.76-3.03-.85-3.67-.3-7.51.07-11.19.11-3.77.05-7.55.1-11.33.14-15.1.19-30.2.38-45.3.57-6.57.08-13.14.17-19.71.25-3.42.04-6.83.45-9.95,1.95-4.52,2.18-1.48,7.86-2.2,11.64-.44-4.76-1.47-10.4-5.86-12.3-1.63-.7-3.46-.73-5.23-.75-.23,0-.45,0-.68,0-7.53-.08-15.06-.14-22.59-.2-12.44-.09-24.75-.65-37.19-.83-34.83-.5-69.65.36-104.48.68-15.12.11-30.27.25-45.39.39-3.77.04-7.58.07-11.35.07-18.6.18-37.67.43-55,7.11-5.21,2.01-9.77,4.92-13.99,8.48-1.88,1.58-3.47,3.51-4.67,5.65,5.91,2.71,12.25,4.47,18.71,5.2-3.26,1.07-6.75,1.13-10.18,1.19-4.42.07-8.83.15-13.25.22-1.58.03-3.18.06-4.71.43-2.73.67-5.01,2.39-6.95,4.36-1,1.02-2.08,2.13-2.83,3.36-.53.88-.73,1.88-1.22,2.78-1.62,2.94-4.27,5.59-6.34,8.23-2.26,2.88-4.51,5.76-6.76,8.64-12.06,15.37-24.3,31.02-31.52,49.2-1.57,3.95-2.88,7.97-3.77,12.13-.85,3.98,5.02,4.87,8.75,6.51,3.7,1.64,7.83,2.49,11.1,4.87-4.27-.78-8.61-1.17-12.98-1.21-.75,0-1.64.04-2.13.64-.68.75-.32,1.92.07,2.88.96,2.31,1.81,4.45,3.09,6.55.64,1.1.85,2.21,1.1,3.45.53,2.74,1.35,5.37,2.49,7.9,2.24,5.09,5.59,9.64,9.78,13.3,2.28,1.96,4.73,3.66,7.4,5.02-.78-.11-1.53-.21-2.31-.39-3.59-.82-6.87-2.74-9.46-5.34-1.28-1.32-2.42-2.81-3.31-4.45-3.59-6.72-7.22-13.45-10.42-20.38-2.49-5.44-6.19-11.74-6.58-17.79-.04-.32-.04-.6-.04-.92-.11-4.13.89-8.15,2.49-11.99,2.63-6.44,6.87-12.49,10.25-18.07,5.8-9.53,12.31-18.64,19-27.57,7.11-9.53,14.59-18.78,22.38-27.78,1.42-1.67,2.81-3.27,4.2-4.8,5.69-6.55,11.06-12.2,18.39-17.93,15.55-12.17,36.85-12.06,55.35-12.34,23.76-.39,46.96-.6,70.4-.89,10.07-.14,20.1-.25,30.17-.36,10.07-.11,20.1-.18,30.17-.28,10.03-.07,20.06-.18,30.13-.25,10.03-.07,20.06-.11,30.09-.18,10.03-.04,20.03-.11,30.06-.14,10.03-.04,20.03-.04,30.06-.07,10-.04,19.99-.04,30.02-.04s19.99,0,29.99.04c9.96,0,19.96.04,29.95.07,9.96.04,19.96.07,29.92.11,10,.07,19.96.11,29.92.18,9.96.07,19.92.14,29.88.25,9.96.07,19.92.18,29.85.25,9.96.11,19.89.21,29.85.36,9.92.11,19.85.25,29.77.39,9.92.14,19.85.28,29.77.43,9.92.14,19.85.32,29.74.5,9.46.18,18.36.78,26.89,4.59,1.14.5,2.28,1.07,3.42,1.71,9.36,5.16,17.15,12.7,24.19,20.67,1.64,1.85,3.31,3.7,4.91,5.58,2.85,3.2,5.55,6.51,7.9,10.03,2.81,4.23,5.48,8.54,7.93,12.98.64,1.17,1.28,2.77.39,3.81Z"/>
          </g>
          <g>
            <path class="cls-2" d="M793.65,143.78c-6.96,13.05-14.35,25.5-22.29,37.24-8.64,12.88-17.94,24.95-27.94,35.93-2.01,2.17-4.84,3.48-7.83,3.53-200.6,5.87-404.09,5.33-610.29-1.3-2.88-.11-5.65-1.36-7.61-3.43-22.83-24.19-42.62-48.82-55.07-74.64-1.63-3.37-1.3-7.34.71-10.49,2.07-3.21,4.19-6.36,6.36-9.46,14.73-21.04,32.18-40.56,51.86-58.98,2.01-1.79,4.62-2.88,7.28-2.94,203.1-4.02,404.79-3.53,605.18,1.36,3.1.11,6.03,1.47,8.05,3.86,21.04,24.52,39.41,48,51.48,68.82,1.85,3.21,1.9,7.18.11,10.49Z"/>
            <path class="cls-1" d="M793.65,143.78c-1.1,2.06-2.21,4.1-3.33,6.14-.79,1.43-1.99,2.55-2.68,4.01-4.07,8.63-11.4,14.6-18.91,20.18-8,5.94-16.47,12.12-20.59,21.19.87-1.56,1.73-3.12,2.6-4.68,9.18-16.56,18.31-33.09,26.77-50.05-1.25-2.17-2.61-4.35-3.97-6.47-5.44-8.53-11.74-16.53-18.76-23.87-3.21-3.32-6.85-6.31-9.84-9.84-2.07-2.34-4.89-2.88-7.83-3.75-12.18-3.59-24.84-4.62-37.46-5.55-158.74-12.01-318.3-16.04-477.21-6.69-46.75,2.72-91.87,17.5-134.6,36.7-2.45,1.09-4.4,3.1-6.63,4.68-2.17,1.58-5,2.77-7.61,1.85-2.56-.92-3.86-3.7-3.91-6.47,14.73-21.04,32.18-40.56,51.86-58.98,2.01-1.79,4.62-2.88,7.28-2.94,203.1-4.02,404.79-3.53,605.18,1.36,3.1.11,6.03,1.47,8.05,3.86,21.04,24.52,39.41,48,51.48,68.82,1.85,3.21,1.9,7.18.11,10.49Z"/>
            <path class="cls-9" d="M784.14,138.72c-15.22,28.32-31.15,51.59-48.76,70.89-58.22,1.74-117.32,2.88-176.68,3.48-34.36.43-68.77.6-103.18.6-3.86,0-7.67,0-11.53-.05-104.43-.05-211.48-1.9-318.3-5.33-25.88-27.35-42.78-50.18-53.28-71.87,14.84-22.72,33.87-45.07,56.59-66.27,1.09,0,2.12-.05,3.21-.05,89.7-1.79,180.33-2.72,269.54-2.72,29.03,0,58.12.11,87.31.33,45.07.27,90.24.76,135.26,1.52,8.81.11,17.61.27,26.37.43.11.05.22.05.33,0,3.53.11,7.12.16,10.66.22,23.92.43,47.79.98,71.6,1.58h.49c.38.43.76.87,1.14,1.3,8.37,9.84,15.77,18.76,22.24,27.07,11.69,14.9,20.44,27.56,27.02,38.87Z"/>
            <path class="cls-8" d="M755.92,148.45c-101.71,3.86-203.59,5.87-305.42,6.25h-4.13c-114.06.33-228.11-1.69-342.06-6.03-6.31-.27-16.09-.49-20.01-6.47-2.28-3.59-.92-7.83.82-11.31,5.65-11.74,12.83-22.62,20.66-33.05,3.75-5,7.67-9.89,11.63-14.79.92-1.09,1.63-2.12,2.34-3.37,2.12-3.59,6.74-5.87,10.17-8.15.76-.49,1.52-.98,2.28-1.41,89.7-1.79,180.33-2.72,269.54-2.72,110.25,0,221.8,1.36,331.51,4.08.54.38,1.09.87,1.63,1.3l.16.16c8.43,7.39,15.66,16.09,21.42,25.77.22.38.44.76.65,1.14,4.51,7.67,8.05,15.93,10.55,24.46,1.25,4.24,1.9,8.64,3.59,12.78,3.59,8.75-8.64,11.09-15.33,11.36Z"/>
          </g>
        </g>
      </g>
    </g>
  </g>
</svg>