<?xml version="1.0" encoding="UTF-8"?>
<svg xmlns="http://www.w3.org/2000/svg" xmlns:xlink="http://www.w3.org/1999/xlink" viewBox="0 0 292.1 128.89">
  <defs>
    <style>
      .cls-1 {
        fill: #f9df8c;
      }

      .cls-2 {
        fill: url(#_ÂÁ_Ï_ÌÌ_È_ËÂÌÚ_7);
      }

      .cls-3 {
        fill: #d9e0ea;
      }

      .cls-4 {
        isolation: isolate;
      }

      .cls-5 {
        fill: url(#_ÂÁ_Ï_ÌÌ_È_ËÂÌÚ_2);
        mix-blend-mode: screen;
      }

      .cls-6 {
        fill: url(#_ÂÁ_Ï_ÌÌ_È_ËÂÌÚ_17-2);
      }

      .cls-7 {
        fill: url(#_ÂÁ_Ï_ÌÌ_È_ËÂÌÚ_17-3);
      }

      .cls-8 {
        fill: url(#_ÂÁ_Ï_ÌÌ_È_ËÂÌÚ_12-2);
      }

      .cls-9 {
        fill: url(#_ÂÁ_Ï_ÌÌ_È_ËÂÌÚ_12);
      }

      .cls-10 {
        fill: url(#_ÂÁ_Ï_ÌÌ_È_ËÂÌÚ_17);
      }
    </style>
    <linearGradient id="_ÂÁ_Ï_ÌÌ_È_ËÂÌÚ_17" data-name="¡ÂÁ˚ÏˇÌÌ˚È „‡‰ËÂÌÚ 17" x1="178.79" y1="-38.8" x2="149.12" y2="54.45" gradientUnits="userSpaceOnUse">
      <stop offset="0" stop-color="#9eacb3"/>
      <stop offset="1" stop-color="#35404c"/>
    </linearGradient>
    <linearGradient id="_ÂÁ_Ï_ÌÌ_È_ËÂÌÚ_17-2" data-name="¡ÂÁ˚ÏˇÌÌ˚È „‡‰ËÂÌÚ 17" x1="165.98" y1="-41.05" x2="115.25" y2="226.49" xlink:href="#_ÂÁ_Ï_ÌÌ_È_ËÂÌÚ_17"/>
    <linearGradient id="_ÂÁ_Ï_ÌÌ_È_ËÂÌÚ_2" data-name="¡ÂÁ˚ÏˇÌÌ˚È „‡‰ËÂÌÚ 2" x1="317.45" y1="-169.81" x2="37.56" y2="203.93" gradientUnits="userSpaceOnUse">
      <stop offset="0" stop-color="#dae6e9"/>
      <stop offset="1" stop-color="#000"/>
    </linearGradient>
    <linearGradient id="_ÂÁ_Ï_ÌÌ_È_ËÂÌÚ_17-3" data-name="¡ÂÁ˚ÏˇÌÌ˚È „‡‰ËÂÌÚ 17" x1="152.38" y1="162.18" x2="147.84" y2="85.29" xlink:href="#_ÂÁ_Ï_ÌÌ_È_ËÂÌÚ_17"/>
    <linearGradient id="_ÂÁ_Ï_ÌÌ_È_ËÂÌÚ_7" data-name="¡ÂÁ˚ÏˇÌÌ˚È „‡‰ËÂÌÚ 7" x1="146.31" y1="25" x2="146.31" y2="60.03" gradientUnits="userSpaceOnUse">
      <stop offset="0" stop-color="#f6cb51"/>
      <stop offset="1" stop-color="#c26234"/>
    </linearGradient>
    <linearGradient id="_ÂÁ_Ï_ÌÌ_È_ËÂÌÚ_12" data-name="¡ÂÁ˚ÏˇÌÌ˚È „‡‰ËÂÌÚ 12" x1="146.31" y1="119.92" x2="146.31" y2="66.8" gradientUnits="userSpaceOnUse">
      <stop offset="0" stop-color="#f6cf5a"/>
      <stop offset="1" stop-color="#be6e35"/>
    </linearGradient>
    <linearGradient id="_ÂÁ_Ï_ÌÌ_È_ËÂÌÚ_12-2" data-name="¡ÂÁ˚ÏˇÌÌ˚È „‡‰ËÂÌÚ 12" x1="146.3" y1="113.39" x2="146.3" y2="42.05" xlink:href="#_ÂÁ_Ï_ÌÌ_È_ËÂÌÚ_12"/>
  </defs>
  <g class="cls-4">
    <g id="Layer_2">
      <g id="Isolation_Mode">
        <g>
          <g>
            <path class="cls-10" d="M144.42,128.89c-43.27,0-86.65-1.12-128.94-3.34-5.99-.08-11.8-4.9-14.18-11.78-.9-2.6-1.28-5.59-1.11-8.89.02-.55.09-1.53.37-2.65.06-.23.14-.51.22-.79l.04-.36c.07-.73.11-1.53.15-2.33.04-.71.08-1.43.13-2.13.1-1.21.23-2.55.56-3.96.28-1.18.68-2.27,1.19-3.25-.48-.71-.81-1.42-1.03-2.03-.44-1.24-.57-2.34-.62-3.07-.09-1.21-.11-2.52-.06-4.01.04-1.29.15-2.51.25-3.58l.08-.86c.12-1.1.2-2.03.25-2.96.14-2.91.3-5.82.49-8.74.08-1.19.25-3.81,1.8-6.15-1.51-1.07-2.93-2.97-3.19-6.36-.26-3.69-.22-7.27-.18-10.73.03-2.78.06-5.41-.06-7.96-.03-.53-.08-1.55-.13-2.78l-.05-1.21L.04,23.03c-.31-5.16,1.18-10.33,4.09-14.17,2.93-3.87,6.94-6.1,11.31-6.26C57.08.87,100.13,0,143.36,0s88.18.88,133.19,2.61c4.4.17,8.45,2.42,11.39,6.34,2.9,3.86,4.37,9.05,4.04,14.22-.04.52-.02,1.16,0,1.9.04,1.66.09,3.73-.39,6.08-.23,1.27-.64,2.43-1.21,3.45.19.64.32,1.32.39,2.03.09.87.13,1.78.1,2.7,0,.81-.07,1.77-.15,2.74-.05.61-.1,1.22-.1,1.85,0,.28.05.76.1,1.27.09.87.2,1.95.19,3.18-.03,2.23-.09,4.44-.16,6.69-.19,5.56-.5,10.56-.95,15.32-.07.7-.19,1.92-.64,3.26.19.25.37.51.55.8,1.53,2.53,1.53,5.23,1.53,6.38v2.48c0,2.49,0,4.84.09,7.17.13,3.28.3,6.53.48,9.79.09,1.61.17,3.22.27,4.81.32,5.2-1.1,10.21-4.01,14.1-2.9,3.89-6.9,6.15-11.25,6.37-44.43,2.23-88.96,3.36-132.38,3.36Z"/>
            <path class="cls-6" d="M276.54,118.36c-47.98,2.42-95.55,3.53-142.71,3.32-22.58-.09-45.06-.48-67.44-1.2-16.97-.52-33.89-1.22-50.76-2.1-3.8,0-7.35-3.24-8.76-7.35-.63-1.79-.77-3.78-.68-5.72.02-.34.05-.68.14-1.02.12-.54.33-.99.39-1.54.02-.29.05-.56.08-.84.15-1.54.2-3.12.3-4.68.08-.86.17-1.77.36-2.62.32-1.34,1.04-2.62,2.19-3.08.44-.16.87-.16,1.29-.39.66-.38,1.29-.88,1.92-1.31.17-.11.35-.25.39-.47.09-.32-.17-.65-.39-.86-1.35-1.29-2.84-2.11-4.43-2.9-.45-.22-.89-.52-1.08-1.06-.09-.27-.14-.57-.15-.86-.08-1.02-.08-2.1-.05-3.12.05-1.34.18-2.65.3-3.98.11-1.08.21-2.17.27-3.24.14-2.89.3-5.77.48-8.64.06-.86.15-1.81.66-2.44.32-.36.71-.56,1.11-.72,1.64-.7,3.5-.79,4.76-2.42.75-.97,1.02-2.6.3-3.58-.39-.56-.99-.81-1.55-1.04-1.17-.48-2.33-.95-3.49-1.43-.59-.23-1.16-.47-1.74-.72-.29-.11-.56-.23-.84-.34-.53-.22-.56-.27-.62-1.02-.42-6.08.06-12.33-.23-18.44-.03-.34-.11-2.06-.18-4-.14-2.81-.29-6.04-.36-6.04-.41-6.74,3.94-12.54,9.59-12.76,38.31-1.58,77.02-2.44,116.08-2.58,35.02-.13,70.34.32,105.95,1.33,12.87.34,25.76.77,38.7,1.27,5.68.22,10.06,6.06,9.62,12.83-.15,2.31.23,4.52-.24,6.85-.11.54-.26,1.11-.6,1.47-.48.54-1.14.57-1.76.59-.47.02-.87.27-1.29.48-1.07.57-2.13,1.13-3.22,1.68-.29.16-.62.36-.68.73-.08.54.42.9.84,1.08.65.27,1.31.5,1.98.68.59.14,1.28.41,1.88.27.35-.07.66-.36,1.04-.3.59.11.8.73.86,1.36.06.54.08,1.06.06,1.58-.02,1.61-.26,3.17-.26,4.82,0,1.47.3,2.89.29,4.37-.03,2.13-.09,4.3-.15,6.49-.18,4.91-.47,9.89-.92,14.8-.08.72-.17,1.49-.56,2.01-.69.91-2.19.99-3.16,1.18-1.01.18-2.01.32-3.04.41-2.03.18-4.09.2-6.12.2-.27,0-.54-.02-.8-.02-.14.61.18,1.25.62,1.61.44.34.98.47,1.49.57.42,0,.9.22,1.31.3.47.09.92.2,1.38.3.92.2,1.83.41,2.75.61.92.2,1.83.41,2.75.61.35.09.6.09.95.04.39-.04.81.07,1.2.13.83.13,1.74.3,2.22,1.11.38.61.39,1.42.39,2.17v2.49c0,2.49,0,5,.09,7.51.14,3.32.3,6.61.5,9.93.08,1.61.17,3.24.27,4.86.41,6.7-3.89,12.49-9.53,12.78Z"/>
            <path class="cls-5" d="M238.36,9.53c-10.73,1.61-20.08,5.7-28.66,13.58-4.45,4.09-8.85,8.3-13.18,12.58-5.94,5.9-11.75,11.95-17.42,18.19-5.68,6.22-11.23,12.63-16.64,19.19-5.4,6.58-10.67,13.3-15.78,20.18-2.57,3.44-5.1,6.94-7.58,10.45-1.08,1.52-2.54,3.1-3.23,4.93-.21.59-.32,1.22-.48,1.81-.83,2.78-2.16,5.13-2.13,8.23.02,1.02.21,2.06.57,3.01-22.58-.09-45.06-.48-67.44-1.2-1.76-.72-3.49-1.47-5.23-2.28,6.76,1.04,12.91-4.43,18.13-9.68,27.42-27.54,52.94-57.78,76.22-90.28.98-1.36,2-2.89,1.95-4.68-.08-2.97-4.19-3.6-5.98-3.78-7.77-.72-15.56-.9-23.34-.54,1.19-.68,2.39-1.36,3.58-2.06,35.02-.13,70.34.32,105.95,1.33.26.34.48.68.71,1.02Z"/>
            <path class="cls-3" d="M8.47,82.21c-.03,1.24-.03,2.53.31,3.71-.61-.32-1.14-.8-1.41-1.51-.23-.61-.21-1.29-.2-1.94.01-.63-.06-1.27-.03-1.9.09-2.43.46-4.81.57-7.22.2-4.21-.95-10.41,2.67-12.87,1.04-.7,2.24-1.81,3.3-2.36.13-.07.27-.1.4-.15.21-.09,1.58-.7,1.57-.86.12,1.52-.29,3.09-1.12,4.25-.49.69-1.12,1.23-1.83,1.58-.36.18-.73.31-1.12.38-.57.09-.64.08-1.08.7-.17.23-.31.49-.5.69-.36.38-.49.98-.64,1.51-.44,1.53-.7,3.13-.76,4.74-.02.61-.02,1.22-.08,1.83-.01.15-.03.3-.06.44-.03.17-.1.31-.15.47-.34,1.22-.3,2.58-.14,3.83.06.46.19.89.27,1.35.18,1.09.05,2.25.02,3.35Z"/>
            <path class="cls-3" d="M282,70.81c.15-.74.25-1.59.18-2.35-.06-.6-.15-1.02-.08-1.64.17-1.63.31-3.26.41-4.89.16-2.5.24-5.01.24-7.52,0-1.15.13-2.51-.08-3.64-.11-.6-.22-1.06-.27-1.71-.18-2.65-.66-5.29-.62-7.94.01-.79-.43-1.65-.73-2.33-.72-1.61-1.69-3.07-2.86-4.26.36.29,1.04.37,1.47.52.51.18,1.02.36,1.53.54.91.32,1.85.77,2.8.92.24.04.49.04.65.3.23.37.2,1.07.22,1.51.05,1.2-.07,2.39-.16,3.58-.05.67-.09,1.35-.09,2.02,0,1.46.3,2.89.29,4.37-.1,6.95-.41,14.21-1.07,21.3-.07.71-.16,1.48-.56,2.01-.31.41-.77.63-1.21.8-.27.12-.56.22-.84.29.38-.53.66-1.19.8-1.85Z"/>
            <path class="cls-3" d="M6.58,32.55c-.04-.83-.43-10.03-.54-10.03-.4-6.73,3.93-12.54,9.59-12.76,85.07-3.52,172.04-3.4,260.72.02,5.69.22,10.06,6.07,9.62,12.83-.16,2.31.23,4.52-.24,6.85-.1.54-.26,1.1-.6,1.48-.31.32-.73.44-1.14.56-1.07.31-2.13.65-3.2.92.93-.99,1.99-2.19,2.42-3.63.29-.98.05-1.82-.22-2.76-.42-1.44-.5-2.82-.55-4.34-.06-1.87.22-4.56-1.03-6.06-.94-1.12-2.18-2.1-3.36-2.8-2.92-1.71-6.29-2.07-9.5-2.22-.16,0-.32-.01-.48-.02-5.92-.23-11.87-.25-17.77.47-.72.09-1.34.33-2.04.49-.87.2-1.89-.05-2.77-.1-2.01-.12-4.02-.23-6.03-.33-4.02-.19-8.04-.31-12.06-.36-3.01-.04-6.03-.05-9.04-.06-.95,0-1.9,0-2.85,0-1.83,0-3.66,0-5.49-.01-2.54,0-5.08-.01-7.61-.02-.12,0-.24,0-.36,0-4.02,0-8.04-.02-12.06-.03-2.01,0-4.02,0-6.03-.01-.92,0-1.94.15-2.84-.05-.91-.21-1.66-.86-2.63-.97-.87-.09-1.78.09-2.64.17-2.19.21-4.38.46-6.57.74-.99.13-2.07.32-2.74,1.21-.23.31-.4.68-.68.92-.62.53-1.46.18-2.18-.12-1.42-.6-2.92-.94-4.43-1.01-1.36-.06-2.71.22-4.07.12-.86-.06-1.68-.31-2.52-.5-3.31-.78-6.77-.83-10.12-1.11-2.49-.21-4.98-.37-7.47-.48-8.04-.34-16.09-.16-24.13.25-4.02.2-8.04.46-12.06.74-1.84.13-3.88.59-5.71.31-.53-.08-1.02-.33-1.54-.45-.55-.12-1.1-.1-1.66-.1-2.23.02-4.47.05-6.7.06-2.61.02-5.23,0-7.85,0-.88,0-1.74.21-2.6.21-.79,0-1.57-.21-2.37-.2-1.65.02-3.3.4-4.84,1.15-.59.29-1.2.64-1.84.59-1.17-.08-1.98-1.4-3.04-2-2.52-1.43-5.13,1.3-7.7.19-1.28-.55-2.59-.47-3.94-.49-1.72-.02-3.44-.03-5.16-.02-5.83.03-11.66.27-17.46.97-2.89.36-5.77.82-8.64,1.43-1.38.29-2.79.78-4.19.97-.44.07-.76.05-1.14.37-1.71,1.43-6.43,9.42-3.06,12.23.21.18.45.33.69.44.36.18.74.24,1.11.4.37.17.87.06,1.26.06.96,0,1.92-.01,2.89-.02,1.02,0,2.06-.01,3.03.33-2.19.53-4.38,1.06-6.56,1.59-.71.17-1.42.35-2.09.71-.12.06-.24.08-.35.14-.46.22-.81.87-.98,1.4-.44,1.37-.16,2.89-.35,4.3-.33,2.54.08,5.29.29,7.84.27,3.26.6,6.53,1.01,9.77-.41-.07-.83-.12-1.24-.19-.4-.05-.83-.14-1.08-.51-.19-.29-.21-.66-.24-1.04-.43-6.07.06-12.32-.23-18.44Z"/>
            <path class="cls-3" d="M286.06,105.58c-.3-4.93-.56-9.86-.76-14.79-.06-1.46-.08-2.93-.09-4.39-.02-2.27.03-4.54.07-6.8.01-.84-.63-1.36-1.18-1.76-.76-.55-1.62-.88-2.47-1.17-3.6-1.2-7.31-1.93-11.04-2.16.18,0,.3,12.1.32,13.23,0-.6.15-1.25.22-1.84.09-.74.18-1.47.26-2.21.1-.83.2-1.67.3-2.5.07-.56.1-1.14.09-1.71,0-1.16-.14-2.33-.42-3.45,2.34.38,4.69.76,7.03,1.14,1.04.17,2.13.36,2.97,1.11.77.68,1.24,1.76,1.46,2.88.12.6.18,1.21.21,1.82.02.53-.02,1.06.13,1.57.15.52.18,1.03.21,1.57.01.18.17,1.82.09,1.86-.85.42-1.5,1.37-1.66,2.45-.13.83.04,1.73.43,2.42.15.26.37.44.53.69.19.31.19.71.22,1.09.12,2.05-.03,4.1-.02,6.15.01,1.55.01,3.11.04,4.66.01.42.16.83.23,1.27.13.9.04,1.84-.19,2.7-.46,1.8-1.5,3.4-2.81,4.42-2.29,1.78-5.15,2.14-7.87,2.38-4.55.39-9.12.36-13.66.87-1.51.15-3.01.32-4.5.48-3.01.29-6.02.56-9.02.8-5.69.46-11.39.8-17.08,1.02-13.47.54-26.97.49-40.46.41-1.64,0-3.27-.02-4.91-.03-1.32,0-2.58.21-3.89.06-3.16-.38-6.32.31-9.46.73-3.67.49-7.61.54-10.78-1.72-1.01-.72-1.99-1.69-3.17-1.72-.98-.02-1.86.61-2.74,1.11-1.69.96-3.53,1.47-5.37,1.75-.04,0-.07.01-.11.02-3.92.61-7.7.28-11.62-.04-2.88-.23-5.9.35-8.65-.87-2.12-.94-4.35-2.25-6.53-1.54-.77.25-1.46.74-2.2,1.09-1.43.68-3,.81-4.54.9-.96.06-1.92.11-2.89.15-4.01.16-8.03.13-12.04-.08-1.69-.09-3.4-.07-5.03-.65-1.13-.4-2.25-.15-3.42-.06-4.87.38-9.76.47-14.65.27-1.99-.08-3.98-.21-5.97-.38-.97-.09-1.97-.29-2.95-.29-.66,0-1.28.26-1.95.26-4.04-.02-8.09-.09-12.13-.14-6.91-.08-13.83-.17-20.74-.26-4.73.76-8.68-.2-13.37-1.22-3.83-.85-8.01-2.7-9.61-6.95-.67-1.78-.78-3.74-.72-5.67.02-.57.06-1.13,0-1.7-.06-.52-.21-1.01-.28-1.53-.22-1.73.23-3.74.59-5.41.19-.86.42-1.82.98-2.44.17-.19.37-.36.54-.54.37-.39.72-.79,1.07-1.2.7-.82,1.36-1.68,1.98-2.58-.11.15-.89.22-1.08.29-.37.14-.72.31-1.06.52-.69.41-1.32.95-1.87,1.59-.94,1.09-2.14,2.99-2,4.64.09,1.01-.09,2.12-.15,3.14-.06,1.15-.13,2.31-.26,3.46-.06.54-.26,1-.38,1.53-.09.34-.11.68-.13,1.02-.1,1.94.04,3.93.67,5.73,1.41,4.1,4.96,7.34,8.77,7.34,85.57,4.49,172.56,4.42,260.91-.02,5.63-.29,9.94-6.08,9.52-12.78Z"/>
            <path class="cls-3" d="M21.83,69.22c0,1.36.05,2.72.11,4.08.03.68.06,1.36.1,2.04.03.5,0,1.04.09,1.53.07.41.16.75.18,1.18.05,1.16.09,2.32.14,3.48.09,2.32.18,4.64.28,6.96.12,2.97.24,5.94.35,8.91.07,1.66.3,3.07,1.04,4.49.14.27.28.54.44.79.28.43.61.72,1.03.94,1.54.81,3.27,1.21,4.92,1.52,2.55.48,5.14.59,7.72.7,34.03,1.44,68.08,2.88,102.12,1.87,4.16-.12,8.47-.26,12.33,1.6-1.76-3.76-6.02-4.3-9.63-4.4-37.82-1.01-75.67-2.17-113.37-5.93-1.03-.1-2.16-.26-2.89-1.15-.52-.63-.73-1.53-.91-2.39-1.93-9.28-2.32-19.01-1.14-28.47.07-.57.21-1.2.19-1.78-.03-.6-.07-1.21-.08-1.81-.01-1.26.03-2.52.12-3.77-.15-.29-.5-.29-.78-.26-.72.09-1.44.18-2.15.27.04.82,0,1.61-.08,2.42-.03.27.02.48.04.75.05.54-.04,1.12-.06,1.65-.03.81-.06,1.62-.08,2.42-.02.78-.03,1.57-.02,2.36Z"/>
            <path class="cls-3" d="M154.15,109.76c.43-1.27,1.83-1.5,2.98-1.53,9.16-.22,18.33-.43,27.49-.65,8.65-.2,17.31-.41,25.96-.61,2.78-.07,5.77-.06,8.08,1.79-.05-.4-.1-.8-.15-1.2,1-.2,1.93-.45,2.93-.36.55.05,1.11-.17,1.65-.26,1.28-.21,2.57-.29,3.87-.35,7.13-.37,14.26-.49,21.38-.93,1.8-.11,3.59-.24,5.39-.41,1.78-.16,3.58-.28,5.35-.58.26-.04.47-.15.74-.17.33-.02.67-.05,1-.08,1.81-.18,3.64-.59,5.3-1.5,2.1-1.15,3.95-3.2,4.63-5.84.3-1.17.36-2.41.41-3.63.22-5.6.15-11.22-.2-16.82-.24-.29-.82.22-.91.61-.87,4.07-1.51,8.2-1.93,12.37-.25,2.47-.47,5.09-1.75,7.05-1.41,2.14-3.77,2.97-5.99,3.59-11.81,3.26-24.03,3.58-36.14,3.88-11.29.28-22.58.57-33.86.85-9.4-.38-19.03,1.41-28.38.19-2.63-.34-5.28-.91-7.89-.46-.2.03-.41.08-.54.26-.1.13-.13.3-.16.47-.24,1.38.27,3.03.76,4.31Z"/>
            <path class="cls-7" d="M270.82,86c-.03-4.77-.06-9.51-.1-14.28-.03-4.57-.05-9.14-.08-13.71-.04-5.5.14-11.05-.4-16.51-.11-1.06-.33-2.18-.32-3.26.01-1.62-.26-2.87-.85-4.44-.78-2.11-1.9-4.03-3.14-5.78-2.73-3.86-6.66-4.03-10.75-4.24-4.3-.21-8.58-.02-12.87-.05-4.79-.04-9.59-.06-14.38-.1-5.82-.05-11.65-.12-17.47-.19-5.83-.07-11.67-.15-17.5-.22-2.92-.04-5.84-.07-8.76-.11-.61,0-1.23-.07-1.83.09-.37.1-.72.28-1.1.33-1.31.15-2.79-.24-4.07-.55.17-3.58.7-7.14,1.57-10.58-1.19,3.56-2.57,7.04-4.12,10.39-.1.21-.21.44-.39.55-.19.11-.41.08-.62.04-.44-.08-.9-.12-1.34-.25-1.01-.3-2.08-.17-3.12-.18-4.5-.04-9.01-.07-13.51-.09-8.85-.04-17.7-.03-26.56.04-9.49.08-18.98-.07-28.48-.11-2.58-.02-5.16-.04-7.73-.05-1.11,0-2.18-.06-3.26.22-1.12.29-2.48.06-3.62-.03-.63-.05-1.3-.13-1.81-.59-.5-.45-.74-1.19-.97-1.89-.46-1.45-.93-2.9-1.39-4.35.07,1.69.22,3.38.44,5.05.07.55.1,1.25-.31,1.51-.13.09-.29.11-.44.12-.5.06-1.03.19-1.54.08-.97-.22-1.93-.16-2.92-.16-10.74.02-21.48-.02-32.23-.07-6.03-.02-20.5-3.67-22.48,6.08-.27,1.36-.26,2.75-.33,4.14-.21,4.21-.08,8.43-.03,12.66.16,13.93.49,27.87.98,41.79.07,2.13.15,4.27.37,6.4.18,1.69.08,3.88,1.19,5.19.37.44.66.88.99,1.41.67,1.03,1.59,1.8,2.6,2.36,2.17,1.21,4.67,1.52,7.05,1.65,7.8.44,15.6.82,23.39,1.11,7.84.31,15.68.57,23.53.75,7.84.18,15.68.29,23.53.36,7.12.06,14.23.08,21.35.09,3.63,0,7.26,0,10.9,0,3.92,0,8.66-1.45,12.27.78,1.8,1.11,3.32,2.89,4.17,5.09-.14-1.78-.1-3.58.12-5.34,2.84-.49,5.71-.76,8.59-.83,1.24-.03,2.43.19,3.68.18,1.46-.01,2.92-.02,4.38-.04,5.83-.05,11.67-.11,17.5-.18,3.61-.04,7.23-.1,10.84-.15,7.84-.1,15.68-.33,23.53-.67,1.41-.07,2.83-.13,4.23-.2,10.81-.51,21.62-1.26,32.4-2.28.92-.1,1.81-.2,2.66-.39,1.39-.33,2.68-.9,3.82-2.05,1.39-1.39,2.72-2.91,3.65-4.75,1.52-3.05,1.15-6.45,1.13-9.84ZM264.98,92.47c-.58,1.13-1.62,2.26-2.47,3.11-.21.2-.52.44-1.35.62-.6.15-1.33.23-2.05.29-10.36.98-21.18,1.74-32.18,2.28-1.4.07-2.8.13-4.2.18-8.23.36-15.88.57-23.39.67-22.3.33-44.29.49-65.36.49-9.45,0-18.9-.03-28.35-.1-7.77-.07-15.67-.18-23.44-.36-7.76-.18-15.66-.43-23.44-.74-7.79-.31-15.63-.69-23.32-1.13-1.7-.08-3.64-.28-5-1.03-.33-.2-.49-.36-.54-.41-.26-.41-.56-.88-.93-1.38-.03-.25-.04-.52-.06-.75-.04-.44-.07-.88-.11-1.29-.18-1.8-.26-3.65-.33-5.88-.48-13.77-.81-27.77-.98-41.61l-.03-2.34c-.06-3.42-.11-6.65.05-9.84.01-.36.03-.74.04-1.11.03-.77.04-1.47.12-1.88.18-.85,2.21-1.74,6.37-1.74,2.06,0,4.26.2,6.19.38,1.66.16,3.23.31,4.57.31,9.6.05,19.21.07,28.81.07h5.4c7.18,0,14.37.03,21.55.08l6.94.05c5.07.05,10.14.08,15.2.08,2.13,0,4.27,0,6.41-.02,5.34-.05,10.69-.08,16.03-.08,18.12,0,36.57.25,54.43.47,14.01.18,28.5.36,42.7.43l.7.02c1.25,0,2.49-.02,3.74-.03,1.22-.02,2.43-.03,3.64-.03,1.77,0,3.23.03,4.56.1h.14c3.85.21,5.63.44,6.67,1.92,1.07,1.51,1.81,2.88,2.31,4.19.37,1.02.38,1.31.38,1.7-.01,1.29.14,2.42.26,3.32.03.26.07.54.1.8.37,3.8.36,7.71.36,11.87-.01,1.31-.01,2.6,0,3.91l.18,27.94c.01.62.03,1.2.04,1.77.04,2.01.08,3.77-.38,4.7Z"/>
          </g>
          <g>
            <path class="cls-2" d="M265.99,67.16c-.02,8.57-.44,17.25-1.22,25.94-.21,2.32-1.87,4.12-3.88,4.26-76.02,5.79-152.35,6.68-228.36.84-2.05-.17-3.69-2.03-3.86-4.38-1.22-17.06-2.49-35.2-1.89-52.38.08-2.75.21-5.48.41-8.16.17-2.39,1.93-4.26,4.02-4.33,81.14-2.7,157.51-2.63,229.07,1.96,1.97.12,3.61,1.82,3.88,4.07,1.24,10.31,1.85,21.13,1.82,32.19Z"/>
            <path class="cls-1" d="M264.59,66.6c-.29.98-.56,1.96-.81,2.96-.78,3.09-1.36,6.25-1.74,9.44-.19,1.57-.4,3.19-.4,4.77,0,.5.11.97.13,1.46.01.27-.02.53-.07.8-.05.28-.14.55-.21.82-.09.33-.74,1.9-.61,2.16-2.47-5.15-2.2-11.39-2.43-17.28-.23-5.91-1.37-12.42-5.56-15.84-2.8-2.27-6.39-2.66-9.79-2.97-68.41-6.2-137.5-8.95-206.11-8.4-.47,1.52-.92,3.04-1.33,4.58-.62,2.33-1.18,4.69-1.66,7.07-.24,1.19-.47,2.38-.67,3.58-.19,1.09-.51,2.28-.48,3.4,0,.34.07.67.04,1.01-.05.56-.22,1.12-.33,1.67-.24,1.19-.43,2.4-.59,3.61-.15,1.21-.26,2.43-.32,3.66-.06,1.17-.16,2.43-.05,3.6-.17-1.87-.34-3.75-.51-5.62-.46-5.06-.91-10.12-1.37-15.18-.23-2.53-.46-5.06-.68-7.59-.09-.95-.06-2.06-.47-2.92-.13-.28-.32-.54-.47-.81-.55-.97-.93-2.09-1.33-3.15.08-2.75.21-5.48.41-8.16.17-2.39,1.93-4.26,4.02-4.33,81.14-2.7,157.51-2.63,229.07,1.96,1.97.12,3.61,1.82,3.88,4.07.53,4.39.93,8.79,1.23,13.2.11,1.65.2,3.31.28,4.96.07,1.52.24,3.11.12,4.63-.1,1.29.23,2.53.07,3.84-.19,1.5-.65,2.94-1.09,4.37-.06.21-.13.42-.19.63Z"/>
            <path class="cls-9" d="M260.64,92.6c-22.31,1.7-44.46,2.94-66.25,3.73-15.66.57-31.12.91-46.34,1.01-.39.02-.79.02-1.18,0-2.86.05-5.7.05-8.54.05-35.85,0-71.35-1.34-105.5-3.97-1.29-17.85-2.7-37.91-1.7-56.19.04-1.2.12-2.37.21-3.54,36.58-1.17,69.92-1.77,101.92-1.77,15.32,0,30.17.14,44.6.41.23.02.46.02.68.02,1.31.02,2.61.05,3.9.07,13.37.29,26.4.69,39.13,1.24,13.11.53,25.9,1.2,38.51,2.01.66,5.41,1.12,10.98,1.41,16.68.68,13.04.39,26.71-.83,40.25Z"/>
            <path class="cls-8" d="M261.47,52.34c.11,2.19-.24,4.56-.39,6.74-.79,11.18-22.63,9.8-28.9,10.26-56.24,4.12-113.43.94-169.68-2.09-8.19-.44-16.37-1.03-24.56-1.52-6.04-.36-5.56-6.36-5.92-11.8-.37-5.57-.69-11.14-.91-16.72.04-1.2.12-2.37.21-3.54,36.58-1.17,69.92-1.77,101.92-1.77,45.93,0,87.4,1.24,126.82,3.76.66,5.41,1.12,10.98,1.41,16.68Z"/>
          </g>
        </g>
      </g>
    </g>
  </g>
</svg>