<?xml version="1.0" encoding="UTF-8"?>
<svg xmlns="http://www.w3.org/2000/svg" xmlns:xlink="http://www.w3.org/1999/xlink" viewBox="0 0 73.18 68.8">
  <defs>
    <style>
      .cls-1 {
        fill: url(#_ÂÁ_Ï_ÌÌ_È_ËÂÌÚ_203);
      }

      .cls-2 {
        fill: url(#_ÂÁ_Ï_ÌÌ_È_ËÂÌÚ_202);
      }

      .cls-3 {
        fill: url(#_ÂÁ_Ï_ÌÌ_È_ËÂÌÚ_10);
      }

      .cls-3, .cls-4, .cls-5 {
        mix-blend-mode: screen;
      }

      .cls-6 {
        fill: #d9e0ea;
      }

      .cls-7 {
        isolation: isolate;
      }

      .cls-4 {
        fill: url(#_ÂÁ_Ï_ÌÌ_È_ËÂÌÚ_10-2);
      }

      .cls-8 {
        fill: #b72c26;
        mix-blend-mode: multiply;
      }

      .cls-5 {
        fill: url(#_ÂÁ_Ï_ÌÌ_È_ËÂÌÚ_2);
      }

      .cls-9 {
        fill: url(#_ÂÁ_Ï_ÌÌ_È_ËÂÌÚ_17-6);
      }

      .cls-10 {
        fill: url(#_ÂÁ_Ï_ÌÌ_È_ËÂÌÚ_17-7);
      }

      .cls-11 {
        fill: url(#_ÂÁ_Ï_ÌÌ_È_ËÂÌÚ_17-8);
      }

      .cls-12 {
        fill: url(#_ÂÁ_Ï_ÌÌ_È_ËÂÌÚ_17-5);
      }

      .cls-13 {
        fill: url(#_ÂÁ_Ï_ÌÌ_È_ËÂÌÚ_17-2);
      }

      .cls-14 {
        fill: url(#_ÂÁ_Ï_ÌÌ_È_ËÂÌÚ_17-3);
      }

      .cls-15 {
        fill: url(#_ÂÁ_Ï_ÌÌ_È_ËÂÌÚ_17-4);
      }

      .cls-16 {
        fill: url(#_ÂÁ_Ï_ÌÌ_È_ËÂÌÚ_17);
      }
    </style>
    <linearGradient id="_ÂÁ_Ï_ÌÌ_È_ËÂÌÚ_17" data-name="¡ÂÁ˚ÏˇÌÌ˚È „‡‰ËÂÌÚ 17" x1="59.42" y1="-4.08" x2="41.38" y2="26.39" gradientUnits="userSpaceOnUse">
      <stop offset="0" stop-color="#9eacb3"/>
      <stop offset="1" stop-color="#35404c"/>
    </linearGradient>
    <linearGradient id="_ÂÁ_Ï_ÌÌ_È_ËÂÌÚ_17-2" data-name="¡ÂÁ˚ÏˇÌÌ˚È „‡‰ËÂÌÚ 17" x1="59.75" y1="-8.59" x2="1.68" y2="99.13" xlink:href="#_ÂÁ_Ï_ÌÌ_È_ËÂÌÚ_17"/>
    <linearGradient id="_ÂÁ_Ï_ÌÌ_È_ËÂÌÚ_17-3" data-name="¡ÂÁ˚ÏˇÌÌ˚È „‡‰ËÂÌÚ 17" x1="-43.43" y1="-25.2" x2="-43.14" y2="2.78" gradientTransform="translate(114.24 32.01) rotate(.94) scale(1.06 1) skewX(1.83)" xlink:href="#_ÂÁ_Ï_ÌÌ_È_ËÂÌÚ_17"/>
    <linearGradient id="_ÂÁ_Ï_ÌÌ_È_ËÂÌÚ_17-4" data-name="¡ÂÁ˚ÏˇÌÌ˚È „‡‰ËÂÌÚ 17" x1="8.04" y1="11.46" x2="8.3" y2="36.66" xlink:href="#_ÂÁ_Ï_ÌÌ_È_ËÂÌÚ_17"/>
    <linearGradient id="_ÂÁ_Ï_ÌÌ_È_ËÂÌÚ_17-5" data-name="¡ÂÁ˚ÏˇÌÌ˚È „‡‰ËÂÌÚ 17" x1="62.35" y1="1.73" x2="62.69" y2="33.98" xlink:href="#_ÂÁ_Ï_ÌÌ_È_ËÂÌÚ_17"/>
    <linearGradient id="_ÂÁ_Ï_ÌÌ_È_ËÂÌÚ_17-6" data-name="¡ÂÁ˚ÏˇÌÌ˚È „‡‰ËÂÌÚ 17" x1="19.07" y1="4.85" x2="14.65" y2="12.52" xlink:href="#_ÂÁ_Ï_ÌÌ_È_ËÂÌÚ_17"/>
    <linearGradient id="_ÂÁ_Ï_ÌÌ_È_ËÂÌÚ_17-7" data-name="¡ÂÁ˚ÏˇÌÌ˚È „‡‰ËÂÌÚ 17" x1="11.36" y1="10.41" x2="5.3" y2="33.23" xlink:href="#_ÂÁ_Ï_ÌÌ_È_ËÂÌÚ_17"/>
    <linearGradient id="_ÂÁ_Ï_ÌÌ_È_ËÂÌÚ_2" data-name="¡ÂÁ˚ÏˇÌÌ˚È „‡‰ËÂÌÚ 2" x1="57.21" y1="-5.55" x2="8.87" y2="67.64" gradientUnits="userSpaceOnUse">
      <stop offset="0" stop-color="#dae6e9"/>
      <stop offset="1" stop-color="#000"/>
    </linearGradient>
    <linearGradient id="_ÂÁ_Ï_ÌÌ_È_ËÂÌÚ_17-8" data-name="¡ÂÁ˚ÏˇÌÌ˚È „‡‰ËÂÌÚ 17" x1="37.47" y1="98.6" x2="35.51" y2="36.8" xlink:href="#_ÂÁ_Ï_ÌÌ_È_ËÂÌÚ_17"/>
    <radialGradient id="_ÂÁ_Ï_ÌÌ_È_ËÂÌÚ_203" data-name="¡ÂÁ˚ÏˇÌÌ˚È „‡‰ËÂÌÚ 203" cx="43.47" cy="22.71" fx="43.47" fy="22.71" r="45.26" gradientUnits="userSpaceOnUse">
      <stop offset="0" stop-color="#df5733"/>
      <stop offset=".68" stop-color="#7e1c2d"/>
      <stop offset=".73" stop-color="#86212d"/>
      <stop offset=".82" stop-color="#9e2f2e"/>
      <stop offset=".93" stop-color="#c44631"/>
      <stop offset="1" stop-color="#df5733"/>
    </radialGradient>
    <linearGradient id="_ÂÁ_Ï_ÌÌ_È_ËÂÌÚ_202" data-name="¡ÂÁ˚ÏˇÌÌ˚È „‡‰ËÂÌÚ 202" x1="37.74" y1="31.23" x2="13.49" y2="95.06" gradientUnits="userSpaceOnUse">
      <stop offset=".09" stop-color="#df5733"/>
      <stop offset=".68" stop-color="#7e1c2d"/>
      <stop offset=".73" stop-color="#86212d"/>
      <stop offset=".82" stop-color="#9e2f2e"/>
      <stop offset=".93" stop-color="#c44631"/>
      <stop offset="1" stop-color="#df5733"/>
    </linearGradient>
    <linearGradient id="_ÂÁ_Ï_ÌÌ_È_ËÂÌÚ_10" data-name="¡ÂÁ˚ÏˇÌÌ˚È „‡‰ËÂÌÚ 10" x1="41.6" y1="14.45" x2="40.05" y2="37.85" gradientUnits="userSpaceOnUse">
      <stop offset="0" stop-color="#f3b577"/>
      <stop offset="1" stop-color="#000"/>
    </linearGradient>
    <linearGradient id="_ÂÁ_Ï_ÌÌ_È_ËÂÌÚ_10-2" data-name="¡ÂÁ˚ÏˇÌÌ˚È „‡‰ËÂÌÚ 10" x1="34.48" y1="36.07" x2="23.34" y2="57.92" xlink:href="#_ÂÁ_Ï_ÌÌ_È_ËÂÌÚ_10"/>
  </defs>
  <g class="cls-7">
    <g id="Layer_2">
      <g id="Layer_1-2" data-name="Layer_1">
        <g>
          <g>
            <path class="cls-16" d="M73.17,34.54c0,.12,0,.22,0,.33-.09,2.2-.5,4.29-1.12,6.32-.63,2.09-1.47,4.14-2.39,6.26-.58,1.33-1.19,2.63-1.83,3.93-.04.08-.08.17-.13.24-1.45,2.91-3.07,5.73-4.86,8.44-.63.97-1.34,1.93-2.14,2.83-1.06,1.21-2.29,2.32-3.68,3.18-3.26,2.03-7.45,2.33-11.25,2.55-4.25.23-8.52.23-12.78.02-4.06-.2-8.12-.32-11.95-1.84-4.11-1.64-7.48-4.63-10.19-7.93,0-.02-.03-.03-.04-.05-2-2.45-3.73-5.15-5.25-7.84-.43-.75-.85-1.5-1.26-2.24-.27-.5-.53-.98-.78-1.47-.32-.6-.61-1.2-.89-1.8-1.33-2.91-2.19-5.88-2.5-8.86-.17-1.72-.17-3.43.03-5.16.12-.96.29-1.91.52-2.87.28-1.11.65-2.24,1.09-3.37.13-.3.24-.61.38-.92.4-.99.81-1.98,1.26-2.95.24-.54.48-1.06.73-1.6.51-1.09,1.06-2.18,1.64-3.26.39-.71.78-1.41,1.21-2.11.52-.89,1.07-1.75,1.65-2.61.03-.06.07-.11.11-.17.29-.43.58-.85.88-1.27.25-.35.49-.69.75-1.02.04-.06.09-.12.14-.18,2.23-2.92,4.88-5.5,8.62-6.75C27.07-.29,35.33-.26,43.93.31c3.46.23,7.31.88,10.05,3.05,5.68,4.54,10.64,9.84,14.58,15.81.05.07.1.13.14.19,1.55,2.34,2.71,4.9,3.47,7.57,0,0,0,.02,0,.04.14.5.27.99.38,1.5.09.38.16.76.23,1.15,0,.02,0,.03,0,.05h0c.19,1.07.31,2.15.37,3.24.03.56.03,1.1.02,1.63Z"/>
            <path class="cls-13" d="M69.46,34.53c0,.1,0,.2,0,.3-.08,1.96-.45,3.82-1.01,5.63-.56,1.86-1.32,3.69-2.14,5.57-.52,1.18-1.07,2.34-1.64,3.5-.03.07-.07.15-.11.22-1.3,2.6-2.76,5.1-4.37,7.52-.56.86-1.21,1.72-1.93,2.52-.95,1.08-2.06,2.07-3.31,2.83-2.93,1.81-6.69,2.07-10.11,2.27-3.82.21-7.66.21-11.49.02-3.65-.17-7.3-.29-10.74-1.64-3.69-1.46-6.72-4.12-9.16-7.07,0-.02-.03-.03-.03-.04-1.8-2.18-3.35-4.58-4.71-6.98-.39-.67-.76-1.34-1.13-2-.24-.44-.48-.88-.7-1.31-.29-.54-.55-1.07-.8-1.61-1.2-2.6-1.97-5.23-2.25-7.89-.16-1.53-.16-3.06.03-4.59.1-.85.26-1.7.47-2.55.25-.99.58-2,.98-3,.11-.27.22-.55.34-.82.36-.89.73-1.76,1.13-2.63.22-.48.43-.95.66-1.42.46-.97.95-1.94,1.48-2.9.35-.63.7-1.26,1.09-1.88.47-.79.96-1.56,1.48-2.33.03-.05.06-.1.1-.15.26-.38.52-.76.79-1.13.23-.31.44-.62.68-.91.03-.05.08-.1.12-.16,2.01-2.6,4.38-4.9,7.74-6.02,7.14-2.38,14.56-2.34,22.29-1.84,3.11.21,6.57.78,9.03,2.72,5.1,4.05,9.56,8.77,13.1,14.08.04.06.09.11.12.17,1.39,2.08,2.44,4.37,3.12,6.75,0,0,0,.02,0,.03.13.44.24.89.34,1.34.08.34.15.68.21,1.02,0,.02,0,.03,0,.04h0c.17.95.28,1.92.33,2.88.03.49.03.98.02,1.45Z"/>
            <path class="cls-6" d="M65.43,21.01c1.39,2.08,2.44,4.37,3.12,6.75-.16-.32-.34-.62-.49-.91-.56-1.03-1.15-2.06-1.76-3.06-1.19-1.9-2.49-3.73-3.9-5.48-.6-.75-1.3-1.42-1.65-2.33-.3-.76-.92-1.36-1.48-1.94-1.89-1.93-4.12-3.46-6.18-5.18-1.19-1-2.35-2.07-3.75-2.75-1.37-.66-2.9-.89-4.41-.97-.56-.03-1.1-.04-1.66-.05-.23,0-.44,0-.66-.07-.24-.08-.5-.09-.76-.12-.7-.08-1.4-.14-2.1-.19-5.84-.43-11.75.06-17.44,1.48-1.04.26-2.09.56-3.05,1.06-.14.08-.27.16-.41.23-.89.56-1.68,1.26-2.48,1.93-.4.34-.81.67-1.24.96-.17.12-.34.21-.53.3-.3.15-.48.47-.66.75-.39.6-.63,1.22-.93,1.86-.05.1-.1.18-.12.3-.08.34-.13.69-.2,1.03-.43-.02-.85-.14-1.22-.36.03-.05.06-.1.1-.15.26-.38.52-.76.79-1.13.23-.31.44-.62.68-.91.03-.05.08-.1.12-.16,2.01-2.6,4.38-4.9,7.74-6.02,7.14-2.38,14.56-2.34,22.29-1.84,3.11.21,6.57.78,9.03,2.72,5.16,4.09,9.65,8.87,13.22,14.25Z"/>
            <path class="cls-6" d="M69.11,30.15c-.02.11-.04.22-.07.33-.07-.43-.18-.87-.14-1.31v-.04c.08.34.15.68.21,1.02Z"/>
            <path class="cls-6" d="M66.38,32.3c.06.14.17.26.27.37.36.38.72.76,1.08,1.14.13.14.27.22.41.34.28.25.46.66.62.99.13.28.18.39.15.69-.03.25-.06.49-.09.74-.07.49-.14.98-.23,1.46-.17.97-.38,1.94-.63,2.89-.5,1.91-1.16,3.78-1.98,5.58,0,.02-.02.04-.02.05.19-.42.45-.82.66-1.24.21-.43.42-.86.61-1.29.38-.87.73-1.77,1.02-2.67.59-1.81,1-3.69,1.21-5.58.05-.44.09-.87.12-1.31.01-.21.05-.43.03-.64-.02-.2-.05-.4-.07-.61-.06-1.04-.19-2.07-.4-3.09l-2.29,1.35c-.24.14-.5.32-.52.6,0,.08.01.15.04.22Z"/>
            <path class="cls-6" d="M8.07,19.9c-.37.71-.71,1.44-1,2.19-.3.76-.67,1.48-.99,2.23-.27.63-.53,1.25-.78,1.89-.4,1.01-.73,2.01-.98,3-1.26,5.09-.51,10.12,1.75,15.04.25.54.51,1.07.8,1.61.57,1.09,1.18,2.2,1.83,3.31,1.37,2.41,2.93,4.84,4.75,7.02,2.44,2.94,5.47,5.61,9.16,7.07,3.44,1.35,7.09,1.47,10.74,1.64,3.83.19,7.67.19,11.49-.02,3.42-.2,7.19-.47,10.11-2.27,2.18-1.34,3.91-3.33,5.23-5.35.63-.95,1.24-1.92,1.83-2.91.3-.51.6-1.02.89-1.53.23-.4.41-.83.7-1.2.18-.23.33-.48.47-.74.31-.57.56-1.17.72-1.79-.01.04-.36.08-.41.09-.15.02-.3.04-.45.04-.11,0-.19-.02-.3-.04-.14-.03-.28,0-.41,0-1.18.12-2.36.25-3.54.36,1.17.22,2.33.51,3.47.88-.12,1.71-1.06,3.24-2.02,4.66-1.57,2.35-3.3,4.71-5.76,6.12-1.43.82-3.05,1.28-4.66,1.64-5.94,1.33-12.1,1.49-18.17,1.11-2.92-.18-5.86-.49-8.66-1.34-1.39-.43-2.73-.99-3.99-1.72-.88-.52-1.72-1.12-2.48-1.8-.34-.31-.64-.71-1.04-.93-.09-.05-.17-.1-.25-.16-.47-.38-.9-.84-1.33-1.28-.91-.94-1.74-1.96-2.51-3.01-.79-1.08-1.63-2.13-2.29-3.3-.14-.26-.37-.5-.35-.81.01-.19.04-.38.12-.55.16-.37.47-.66.81-.88.52-.33,1.13-.55,1.56-.99-.05.06-.64-.11-.74-.13-.26-.05-.51-.1-.76-.16-.51-.11-1.01-.23-1.52-.37-.2-.05-.38-.1-.59-.1-.16,0-.29,0-.44-.07-.39-.18-.61-.56-.79-.94-.03-.07-.06-.14-.09-.21-.2-.47-.41-.94-.61-1.41-.82-1.88-1.47-3.87-1.69-5.91-.04-.34-.11-.74-.07-1.08.02-.17.16-.35.24-.5.19-.37.38-.74.57-1.12.06-.11.11-.23.1-.35-.03-.23-.3-.35-.53-.39-.22-.04-.39-.1-.59-.18-.08-.03-.19,0-.24-.06-.08-.1-.03-.44-.03-.55,0-.44.03-.87.05-1.31.04-.59.17-1.2.11-1.79-.07-.74.26-1.59.47-2.28.24-.82.54-1.61.86-2.4.2-.49.41-.97.64-1.44.1-.21.18-.45.32-.64.08-.11.17-.19.23-.31.19-.37.31-.79.47-1.18.32-.78.69-1.55,1.14-2.27.03-.04.06-.09.08-.13.77-1.16,1.85-2.18,3.18-2.61.4-.13.83-.25,1.26-.18.21.03.4.05.61.01.66-.13,1.31-.36,1.94-.58.3-.11.6-.22.9-.34-1.22-.61-2.44-1.21-3.66-1.82-.32.11-.63.25-.92.43-.09.05-.18.12-.28.16-.07.03-.14.05-.21.09-.22.13-.38.4-.55.59-.23.27-.46.54-.69.8-.12.13-.23.27-.35.4-.09.1-.13.2-.2.31-.17.28-.39.54-.57.81-.18.28-.36.56-.53.84-.21.35-.41.7-.59,1.06Z"/>
            <path class="cls-14" d="M66.47,32.32c0,.09.11.13.2.15.4.11.79.23,1.19.34.3.09.67.13.9.34.48.43.9.85.91,1.51,0-.03,0-.05,0-.08.06-.26-.04-.43.07-.67.07-.16.15-.33.23-.49.15-.32.3-.65.37-1,.12-.61-.1-1.36-.68-1.56-.35-.12-.74-.01-1.09.14-.21.09-.41.21-.62.29-.16.07-.31.08-.47.11-.35.08-.71.51-.95.76-.04.04-.08.09-.07.14Z"/>
            <path class="cls-15" d="M8.2,48.06c-.05-.02-.1-.05-.14-.09-.24-.23-.39-.63-.54-.92-.22-.4-.44-.79-.64-1.2-.29-.54-.55-1.07-.8-1.61.07.07.15.13.21.18,1.18,1.01,2.65,1.66,4.02,2.38.12.06.24.13.32.23.08.1.12.26.05.37-.07.1-.19.14-.31.17-.45.12-.9.23-1.36.35-.23.06-.55.21-.8.12Z"/>
            <path class="cls-12" d="M65,47.27c-1.68,1.2-3.86,1.73-5.97,2.22,1.86-.01,3.72,0,5.58.05-.23.32-.3.72-.19,1.09.37-.85.74-1.7,1.11-2.54.36-.82.65-1.71,1.1-2.5-.01.28-.47.67-.68.88-.29.29-.6.56-.94.81Z"/>
            <path class="cls-9" d="M15.16,15.73c-.07.1-.13.21-.2.31-.5.07-1.01.16-1.52.22-.34.04-.61-.04-.94-.09-.4-.06-.78.11-1.11.33-.44.29-.88.59-1.31.88-.44.3-.84.65-1.19,1.05.82-1.49,1.7-2.94,2.67-4.35.26-.38.52-.76.79-1.13,0,.07-.02.14,0,.21.12.95.82,1.34,1.54,1.78.42.26.85.52,1.27.78Z"/>
            <path class="cls-10" d="M3.74,32.29c-.01.13-.08.25-.07.39,0,.19.07.37.15.55.03.06.06.12.09.18.05.09.1.18.16.25.14.16.34.2.54.24.75.13,1.47.32,2.16.64-.05-.02-.37.16-.43.18-.17.06-.33.11-.5.16-.33.09-.67.14-1.01.16-.28.02-.48-.05-.68.21-.16.2-.2.48-.2.73,0,.35.09.7,0,1.04-.35-1.56-.36-3.12-.2-4.71Z"/>
            <path class="cls-5" d="M26.23,55.93c-1.18,1.31-2.22,2.78-1.94,4.35.3,1.65,1.11,3.02,2.78,3.19-4.52.75-9.39-1.8-11.95-5.6-1.89-2.81-4.18-5.69-6.07-8.49,2.8.98,6-.1,8.28-2.01,2.28-1.9,3.83-4.52,5.34-7.08,3.91-6.64,7.82-13.29,11.73-19.93,1.12-1.9,2.25-3.83,2.85-5.96s.6-4.51-.47-6.44c-1.07-1.93-3.37-3.26-5.52-2.75-.22.05-.32-.84-.17-1.02.15-.17.42-.17.64-.16,5.43.34,10.85.69,16.28,1.03,6.12.39,10.4,6.89,14.13,11.77-2.72-3.56-5.97.96-7.33,2.86-3.31,4.63-6.74,9.17-10.2,13.69-3.32,4.32-6.7,8.6-10.13,12.84-2.03,2.5-4.08,4.99-6.14,7.47-.57.68-1.35,1.43-2.08,2.24Z"/>
            <path class="cls-11" d="M58.61,31.91c-.42-2.31-1.2-4.71-2.25-6.99-.94-2.05-2.16-4.12-3.58-5.9-1.28-1.61-3.34-2.62-5.11-3.62-.77-.44-1.44-.99-2.24-1.35C29.34,6.88,10.41,20.79,12.04,37.67c.27,2.83,1.17,5.59,2.64,8.07,4.02,6.85,11.38,11.21,19.44,11.98,2.98.28,6.02.15,8.93-.54,5.9-1.4,10.74-5.14,13.61-10.31,2.44-4.38,2.84-10.13,1.95-14.96ZM51.39,44.61c-2.16,3.89-5.79,6.69-10.23,7.75-2.18.52-4.47.62-6.7.4-6.05-.57-11.58-3.84-14.61-8.99-1.09-1.86-1.77-3.93-1.98-6.06-.06-.66-.09-1.32-.07-1.98,0-.29.05-.59.04-.88,0-.15-.05-.29-.09-.44-.12-.44-.1-.94,0-1.38.1-.48.35-.95.77-1.2.32-.2.71-.25,1.09-.29.88-.09,1.77-.13,2.66-.1-1.13-.18-2.25-.35-3.38-.53-.05,0,.37-1.35.42-1.47.18-.46.44-.88.66-1.33.35-.72.86-1.4,1.34-2.04.99-1.3,2.14-2.47,3.42-3.48,1.29-1.01,2.7-1.87,4.2-2.53,1.5-.66,3.09-1.13,4.72-1.36,1.65-.24,3.33-.25,4.97,0,1.49.22,2.95.65,4.33,1.27.6.27,1.11.69,1.68,1.01,1.33.76,2.87,1.52,3.84,2.73,1.07,1.34,1.98,2.88,2.69,4.43.79,1.72,1.37,3.52,1.69,5.25.36,1.97.42,3.89-.03,5.85-2.29.12-4.59.15-6.89.09,2.09.23,4.18.46,6.27.69.66.07.31.67.17,1.08-.12.36-.18.72-.18,1.11,0,.35-.03.67-.14,1-.08.25-.19.48-.3.72-.06.12-.12.24-.18.36-.04.08-.19.26-.19.35Z"/>
            <path class="cls-6" d="M53.47,50.32c1.93-1.91,3.25-4.37,4.02-6.97.77-2.59,1.02-5.32.99-8.03,0-.39-.04-.79-.18-1.16-.2-.51-.58-.7-1.1-.83-.78-.19-1.56-.38-2.33-.58,1.84.07,3.84-.02,5.68-.11-.31.11-.62.21-.93.32-.08.03-.16.05-.22.11-.06.06-.09.14-.11.22-.12.44-.06.9-.02,1.36.06.73.05,1.46,0,2.19-.02.36-.05.72-.09,1.08-.07.8-.24,1.57-.4,2.36-.3,1.49-.49,3-.9,4.46-.41,1.46-1.05,2.9-2.11,3.98.12.31.37.56.66.7-.37.02-.76.05-1.08.24-.18.11-.33.26-.47.41-.51.54-1.01,1.08-1.53,1.61-.17.17-.35.29-.55.41-.45.27-.75.75-1.11,1.11-1.66,1.67-3.85,2.73-6.1,3.45-.17.05-.34.11-.51.16-1.55.46-3.14.77-4.74.94-1.61.16-3.23.18-4.83.04-.8-.07-1.6-.17-2.4-.31-.4-.07-.79-.15-1.19-.24-1.26-.29-2.52-.49-3.75-.89-3.61-1.17-6.77-3.36-9.68-5.73-.35-.29-.7-.58-1.05-.87-.15-.13-.34-.26-.48-.4-.12-.12-.2-.26-.34-.37-.26-.22-.58-.36-.9-.45-.52-.14-1.07-.15-1.61-.22.07-.17.28-.23.46-.27.41-.08.83-.13,1.24-.14.21,0,.42.02.63,0,.17-.02.31-.03.48-.01.82.07,1.62.27,2.44.37.49.06.99.08,1.49,0-1.18.1-2.37.21-3.55.3.45,1.09,1.55,1.74,2.6,2.28.21.11.45.2.63.34.08.06.16.13.24.19.16.13.33.25.49.38.33.25.66.5.99.75.67.49,1.35.97,2.05,1.4.98.6,2.01,1.13,3.09,1.55,1.66.65,3.42,1.05,5.2,1.18,3.21.23,6.34.65,9.52.15.38-.06.75-.12,1.13-.2,2.51-.53,4.79-1.84,6.92-3.28,1.29-.87,2.21-1.91,3.32-3.01Z"/>
          </g>
          <g>
            <path class="cls-1" d="M56.24,37.25c.02.84-.03,1.66-.14,2.44-.28,2.09-.96,3.99-1.95,5.69,0,0,0,.02-.02.03-4.26,7.3-14.19,10.78-22.7,8.57-5.3-1.38-9.77-5.07-12.5-9.79-.21-.36-.41-.72-.6-1.09-1.37-2.69-2.2-5.67-2.32-8.71-.05-1.14,0-2.29.17-3.45.04-.31.09-.62.15-.93.92-4.89,3.98-8.71,7.77-11.63.98-.75,2-1.45,3.05-2.08,6.02-3.64,13.46-2.65,19.15,1.16,3.78,2.54,6.43,6,8.03,9.96.15.37.29.75.42,1.13.02.07.06.16.08.24.1.29.19.59.28.89.12.4.22.8.32,1.21.04.15.07.31.11.46.03.16.07.31.1.47.03.17.07.33.1.5.04.23.08.47.12.71,0,.02,0,.04,0,.07.03.2.06.39.09.59,0,.04,0,.07,0,.12.03.26.06.51.09.77,0,.04.02.08.02.12.09.84.14,1.71.15,2.57Z"/>
            <path class="cls-2" d="M51.34,36.96c.01.63-.03,1.25-.11,1.85-.21,1.58-.73,3.02-1.47,4.31,0,0,0,.02-.01.03-3.22,5.52-10.74,8.16-17.18,6.48-4.01-1.04-7.39-3.84-9.46-7.41-.16-.27-.31-.55-.45-.83-1.03-2.04-1.66-4.29-1.76-6.6-.04-.87,0-1.74.13-2.61.03-.24.07-.47.11-.7.7-3.7,3.01-6.59,5.88-8.8.74-.57,1.51-1.1,2.31-1.57,4.56-2.75,10.19-2.01,14.5.88,2.86,1.92,4.87,4.54,6.08,7.54.11.28.22.56.32.85.02.06.04.12.06.18.08.22.14.45.21.67.09.3.17.61.24.92.03.11.06.23.08.34.02.12.05.24.08.36.03.13.05.25.08.38.03.18.06.36.09.54,0,.02,0,.03,0,.05.02.15.04.29.07.45,0,.03,0,.06,0,.09.03.19.04.39.07.58,0,.03.01.06.01.09.07.64.11,1.29.11,1.94Z"/>
            <path class="cls-3" d="M29.85,27.26c1.23,3.54,3.89,6.57,7.24,8.26,3.68,1.86,10.53,2.75,13.69-.64,1.61-1.73,1.55-4.15,1.76-6.36.52-5.38-5.03-9.65-9.45-11.35-2.56-.99-7.51-2.62-10.08-1.07-1.4.84-2.64,2.45-3.25,3.94-.83,2.06-.74,4.39-.14,6.49.07.24.15.48.23.72Z"/>
            <path class="cls-8" d="M56.24,37.25c.02.84-.03,1.66-.14,2.44-.28,2.09-.96,3.99-1.95,5.69,0,0,0-.02,0-.03-.3-.7-.96-1.23-1.65-1.49-.95-.36-2-.35-3.01-.35-7.63.02-15.26-.81-22.7-2.49-1.27-.29-2.54-.6-3.83-.54-1.29.07-2.63.56-3.4,1.6-.45.6-.66,1.36-.63,2.11-.21-.36-.41-.72-.6-1.09-1.37-2.69-2.2-5.67-2.32-8.71-.02-1.15.02-2.31.17-3.45.04-.31.09-.62.15-.93.92-4.89,3.98-8.71,7.77-11.63-1.04,1.34-1.93,2.8-2.64,4.34-.92,2-1.68,3.97-1.26,6.19.33,1.73,1.19,3.37,2.39,4.65l.07.07c2.34,2.43,5.62,3.69,8.83,4.67,2.46.75,4.95,1.38,7.47,1.9,2.36.49,4.77.86,7.17.62,4.09-.41,8.61-3.22,8.2-7.88-.14-1.6.58-4.04,0-5.53.15.37.29.75.42,1.13.02.07.06.16.08.24.1.29.19.59.28.89.12.4.22.8.32,1.21.04.15.07.31.11.46.03.16.07.31.1.47.03.17.07.33.1.5.04.23.08.47.12.71,0,.02,0,.04,0,.07.03.2.06.39.09.59,0,.04,0,.07,0,.12.03.26.06.51.09.77,0,.04.02.08.02.12.09.84.14,1.71.15,2.57Z"/>
            <path class="cls-4" d="M33.09,50.74c.73-.16,1.57-.58,1.6-1.33.01-.32-.14-.62-.29-.89-1.62-2.86-4.68-4.87-7.96-5.21-.63-.07-1.27-.07-1.89.03-.34.06-.68.15-.95.37-.81.67-.42,1.75-.13,2.57.26.73.7,1.3,1.24,1.85,1.36,1.4,3.18,2.34,5.1,2.67,1.09.19,2.21.17,3.29-.06Z"/>
          </g>
        </g>
      </g>
    </g>
  </g>
</svg>